<svg width="421" height="103" viewBox="0 0 421 103" fill="none" xmlns="http://www.w3.org/2000/svg">
<path d="M10.0625 8.0625C11.5208 10.3125 12.8125 12.8333 13.9375 15.625C15.0625 18.375 16.0625 21.3958 16.9375 24.6875C17.8125 27.9792 18.5833 31.1458 19.25 34.1875C19.9167 37.2292 20.4792 40.1875 20.9375 43.0625C22.1875 41.5208 23.125 39.8958 23.75 38.1875C24.0833 37.3542 24.4583 36.2917 24.875 35C25.3333 33.6667 25.8542 32.0833 26.4375 30.25C27.1458 28 27.7708 25.9583 28.3125 24.125C28.8542 22.2917 29.3542 20.625 29.8125 19.125C30.7292 16.125 32.25 14.0417 34.375 12.875C36.875 11.5 38.1875 12.7083 38.3125 16.5C38.4375 20.2917 38.125 24.4375 37.375 28.9375C36.375 34.6042 35.2083 38.4583 33.875 40.5C35.5 40.0417 37.3542 39.2917 39.4375 38.25C40.5208 37.7083 41.5833 37.25 42.625 36.875C43.7083 36.5 44.7917 36.1667 45.875 35.875C46.875 35.625 47.8542 35.5 48.8125 35.5C49.7708 35.4583 50.7083 35.5833 51.625 35.875C53.5 36.4167 54.5208 37.5833 54.6875 39.375C54.7292 39.7917 54.6458 40.6458 54.4375 41.9375C54.2708 43.1875 54.0208 44.9167 53.6875 47.125C53.3542 49.3333 53.0208 51.5625 52.6875 53.8125C52.3958 56.0625 52.0833 58.375 51.75 60.75C51.4167 63.125 51.1458 65.3333 50.9375 67.375C50.7708 69.4167 50.6458 71.3125 50.5625 73.0625C50.3542 76.5625 50.8333 77.7708 52 76.6875C55.9583 73.0625 58.8125 71.3333 60.5625 71.5C62.2708 71.6667 62.1042 73.3958 60.0625 76.6875C59.1458 78.1042 58.1667 79.6458 57.125 81.3125C56.0833 82.9375 54.9375 84.25 53.6875 85.25C51.6458 87.375 49.2083 88.0208 46.375 87.1875C43.625 86.3958 41.4167 85.0625 39.75 83.1875C38.3333 81.6458 37.8958 78.5417 38.4375 73.875C38.7708 71.5 39.1042 69.1667 39.4375 66.875C39.8125 64.5833 40.2083 62.25 40.625 59.875C41.0417 57.5 41.3542 55.3542 41.5625 53.4375C41.8125 51.4792 41.9792 49.7083 42.0625 48.125C42.1875 45 41.0625 44.1458 38.6875 45.5625C34.1458 47.7292 30.8542 49.6042 28.8125 51.1875C27.7708 51.9792 26.75 52.8333 25.75 53.75C24.75 54.625 23.75 55.5625 22.75 56.5625C22.875 63.1042 22.0625 69.9583 20.3125 77.125C18.5625 84.2917 14.8958 87.0625 9.3125 85.4375C7.39583 84.8958 6.45833 83.3542 6.5 80.8125C6.54167 78.2708 6.85417 76.1458 7.4375 74.4375C8.14583 72.3958 8.77083 70.1458 9.3125 67.6875C9.8125 65.2292 10.2292 62.5208 10.5625 59.5625C10.8958 56.5625 11.0833 53.5833 11.125 50.625C11.2083 47.625 11.2083 44.6042 11.125 41.5625C10.9167 35.4375 10.2292 29.625 9.0625 24.125C7.85417 18.625 6.14583 14.2292 3.9375 10.9375C1.3125 7.14583 1.0625 4.83333 3.1875 4C5.39583 3.08333 7.6875 4.4375 10.0625 8.0625ZM90.8125 38.25C89.5625 41.375 89 44.9167 89.125 48.875C89.25 52.7917 90 56.1875 91.375 59.0625C92.6667 61.9375 92.4583 63.8333 90.75 64.75C88.9167 65.7083 87.0417 64.7917 85.125 62C83.7917 60.125 82.7083 58.125 81.875 56C81.0833 53.875 80.4583 51.6667 80 49.375C79.125 44.875 79.5208 40.4583 81.1875 36.125C82.3542 33.1667 84.5208 32.0208 87.6875 32.6875C90.9792 33.3958 92.0208 35.25 90.8125 38.25ZM83.5 26.5625C82.5833 26.0625 81.4792 26.125 80.1875 26.75C78.8542 27.4167 78 27.9375 77.625 28.3125C76 29.7708 74.4792 31.1875 73.0625 32.5625C71.6458 33.9375 70.3333 35.3542 69.125 36.8125C67.9167 38.2292 66.8542 39.7083 65.9375 41.25C65.0208 42.75 64.25 44.3542 63.625 46.0625C64.375 44.6042 65.9375 43.75 68.3125 43.5C71.2292 43.25 73 45.2083 73.625 49.375C74.3333 53.4583 75.9792 56.5833 78.5625 58.75C81.0208 60.8333 81.625 62.8333 80.375 64.75C79.1667 66.6667 77.3333 66.5833 74.875 64.5C73.25 63.5 70.7708 61.0208 67.4375 57.0625C64.1042 53.1042 62.7292 49.75 63.3125 47C63.0208 47.9167 62.75 49.0833 62.5 50.5C62.2917 51.9167 62.1042 53.5833 61.9375 55.5C61.6042 59.3333 61.6042 62.4792 61.9375 64.9375C62.2708 67.6042 63.7083 70.7708 66.25 74.4375C68.7917 78.1042 71.6458 79.3125 74.8125 78.0625C79.3958 77.4375 84.3333 74.7083 89.625 69.875C94.8333 65.0833 98.5417 58.5833 100.75 50.375C102.458 46.9167 102.083 42.3125 99.625 36.5625C98.375 33.6875 97.1458 31.1875 95.9375 29.0625C94.7708 26.8958 93.5833 25.0833 92.375 23.625C92.375 23.625 92.2083 24.0625 91.875 24.9375C91.7917 25.1458 91.7292 25.3333 91.6875 25.5C91.6458 25.625 91.6042 25.7292 91.5625 25.8125C91.5208 25.9375 91.4792 26.0417 91.4375 26.125C89.3958 28.9167 86.75 29.0625 83.5 26.5625ZM52.125 68.9375C51.875 68.0208 51.6667 67.2292 51.5 66.5625C51.3333 65.8542 51.2083 65.2292 51.125 64.6875C50.9167 63.4792 50.7917 62.375 50.75 61.375C50.7083 60.3333 50.6875 59.375 50.6875 58.5C50.6042 58.5 50.5417 58.5208 50.5 58.5625C50.5833 57.6042 50.7083 56.4792 50.875 55.1875C51 53.8542 51.1667 52.3333 51.375 50.625C51.7917 47.2917 52.7083 43.8333 54.125 40.25C55.1667 37.625 56.3542 35.125 57.6875 32.75C59.0625 30.3333 60.6667 28 62.5 25.75C64.2083 23.5417 66.375 21.4167 69 19.375C71.5833 17.3333 74.5 16 77.75 15.375L72.8125 12.8125C69.2292 11.5208 66.6458 9.70833 65.0625 7.375C64.2708 6.20833 64.7083 5.45833 66.375 5.125C68.0833 4.75 71 4.95833 75.125 5.75C80.3333 6.75 85.0625 8.54167 89.3125 11.125C93.6042 13.6667 97.5 16.8542 101 20.6875C107.958 28.2708 111.062 37.8542 110.312 49.4375C110.021 53.6042 108.625 58.0208 106.125 62.6875C103.708 67.3125 100.604 71.5417 96.8125 75.375C93.1458 79.1667 89.0417 82.2292 84.5 84.5625C82.25 85.7292 80.0208 86.5208 77.8125 86.9375C75.6458 87.3542 73.4792 87.4583 71.3125 87.25C61.4375 86.2083 55.0417 80.1042 52.125 68.9375ZM116.812 22.8125C116.562 26.1875 116.146 29.6667 115.562 33.25C115.021 36.7917 114.625 40.25 114.375 43.625C122.25 40.625 127.458 36.1042 130 30.0625C132.542 24.0625 134.375 16.8958 135.5 8.5625C136 6.5625 137.708 5.22917 140.625 4.5625C143.458 3.89583 145.604 5.4375 147.062 9.1875C147.479 10.2708 147.604 11.8958 147.438 14.0625C147.312 16.2292 146.833 18.9583 146 22.25C144.375 28.7917 143.125 36.2083 142.25 44.5C141.167 54.7083 141.5 63.125 143.25 69.75C145.083 76.5 147.396 81.7708 150.188 85.5625C151.604 87.4792 152.792 89.1875 153.75 90.6875C154.75 92.1458 155.521 93.4167 156.062 94.5C157.188 96.7083 155.312 96.8958 150.438 95.0625C146.812 93.7708 143.646 91.0833 140.938 87C138.271 82.875 136.104 78.3125 134.438 73.3125C132.729 68.1458 131.5 63.0833 130.75 58.125C130 53.0417 129.688 48.875 129.812 45.625C128.688 46.375 127.542 47 126.375 47.5C125.25 48 124.042 48.4375 122.75 48.8125C121.5 49.1875 120.167 49.5208 118.75 49.8125C117.375 50.1042 115.917 50.4167 114.375 50.75C114.208 54.6667 114.396 57.9583 114.938 60.625C115.229 61.9583 115.521 63.4583 115.812 65.125C116.104 66.75 116.417 68.5833 116.75 70.625C116.75 71.6667 116.479 72.9167 115.938 74.375C115.438 75.9167 114.688 76.9583 113.688 77.5C112.312 78.3333 110.833 78.4583 109.25 77.875C107.75 77.3333 106.917 76.4792 106.75 75.3125C106.417 73.5625 106.146 71.7292 105.938 69.8125C105.688 67.8542 105.479 65.75 105.312 63.5C104.938 59.0833 104.688 55.1667 104.562 51.75C102.938 51.5833 101.833 50.8542 101.25 49.5625C100.708 48.2708 101.708 47.0417 104.25 45.875C104.25 44.5 104.292 43.0417 104.375 41.5C104.458 39.9167 104.562 38.3125 104.688 36.6875C104.812 35.0625 104.958 33.4375 105.125 31.8125C105.25 30.1875 105.396 28.625 105.562 27.125C107.062 13.4583 109.833 7.22917 113.875 8.4375C117.833 9.5625 118.812 14.3542 116.812 22.8125ZM190.25 44.5C191.542 47.2083 191.833 49.7083 191.125 52C190.458 54.125 188.958 53.8542 186.625 51.1875C185.917 50.3542 185.271 49.5417 184.688 48.75C184.146 47.9167 183.667 47.0417 183.25 46.125C181.5 42.2083 181.729 38.1875 183.938 34.0625C186.104 29.9375 188.833 26.2083 192.125 22.875C190.875 23.2083 189.5 23.5208 188 23.8125C186.542 24.0625 184.938 24.3333 183.188 24.625C179.771 25.125 177.062 25.4375 175.062 25.5625C174.229 30.7708 173.646 35.25 173.312 39C172.979 42.7083 172.896 45.75 173.062 48.125C173.229 50.5 173.646 53.5833 174.312 57.375C174.979 61.125 175.917 65.6667 177.125 71C178.167 75.5417 177.062 79.7083 173.812 83.5C170.604 87.2083 168.25 86.5 166.75 81.375C163.667 74.2083 162.458 64.9375 163.125 53.5625C163.792 42.0625 164.729 32.625 165.938 25.25C164.812 25.2917 163.396 25.2292 161.688 25.0625C159.979 24.8958 157.958 24.6042 155.625 24.1875C151.125 23.3958 148.917 22.9167 149 22.75C150.125 24.2917 151.229 25.7917 152.312 27.25C153.438 28.6667 154.521 30.0833 155.562 31.5C157.646 34.2917 157.479 37.1042 155.062 39.9375C154.104 41.1042 152.625 42.375 150.625 43.75C148.75 45 147.312 45.3542 146.312 44.8125C145.146 44.2292 144.729 43.375 145.062 42.25C145.312 41.2083 146.354 38.8333 148.188 35.125C148.479 34.125 147.604 32.3542 145.562 29.8125C144.521 28.5208 143.646 27.2917 142.938 26.125C142.188 24.9167 141.583 23.75 141.125 22.625C140.167 20.3333 140.729 18.6458 142.812 17.5625C143.854 17.0208 145.667 16.8542 148.25 17.0625C150.833 17.2292 154.271 17.7917 158.562 18.75C159.021 18.8333 159.604 18.9167 160.312 19C161.021 19.0417 161.854 19.0417 162.812 19C164.812 18.875 166.562 18.625 168.062 18.25C171.229 12.7083 174.604 8.27083 178.188 4.9375C181.729 1.64583 183.438 2.27083 183.312 6.8125C182.938 8.39583 182.146 10.2292 180.938 12.3125C180.354 13.3542 179.875 14.2708 179.5 15.0625C179.167 15.8125 178.917 16.4792 178.75 17.0625C186.542 15.7708 193.854 13.9583 200.688 11.625C204.938 9.45833 208.062 8.875 210.062 9.875C212.062 10.875 211.292 13.6458 207.75 18.1875C206.667 19.5625 204.812 21.375 202.188 23.625C200.896 24.7083 199.646 25.8542 198.438 27.0625C197.229 28.2292 196.042 29.4375 194.875 30.6875C192.5 33.1875 190.729 35.6458 189.562 38.0625C188.354 40.5208 188.583 42.6667 190.25 44.5ZM217.812 17.0625C221.104 11.5208 225 7.64583 229.5 5.4375C234 3.27083 236.062 3.75 235.688 6.875C235.479 8.5 235.25 10.7708 235 13.6875C234.792 16.5625 234.542 20.0833 234.25 24.25C233.958 28.4167 233.75 32.1042 233.625 35.3125C233.542 38.4792 233.542 41.2083 233.625 43.5C238.208 43.25 242.729 44.75 247.188 48C247.938 48.5417 248.208 49.3958 248 50.5625C247.792 51.6875 247.312 52.125 246.562 51.875C243.438 51.5417 241.521 51.4792 240.812 51.6875C240.104 51.8958 238.188 52.0833 235.062 52.25C235.438 53.8333 235.792 55.5208 236.125 57.3125C236.5 59.0625 236.854 60.9375 237.188 62.9375C237.521 64.8958 238.083 66.8333 238.875 68.75C239.708 70.625 240.688 72.5625 241.812 74.5625C245.062 80.1875 248.188 84.6458 251.188 87.9375C254.188 91.2292 257.208 93.3958 260.25 94.4375C263.292 95.4792 265.917 94.2083 268.125 90.625C270.375 87.0417 272.104 81.0833 273.312 72.75C273.771 69.625 274.271 67.3125 274.812 65.8125C275.396 64.3125 276.104 63.5833 276.938 63.625C278.646 63.7083 279.104 66.3333 278.312 71.5C276.479 83.125 273.542 91.3958 269.5 96.3125C266.208 100.438 262.292 102.562 257.75 102.688C252.5 102.854 247.875 100.354 243.875 95.1875C241.917 92.6458 240.188 90.25 238.688 88C237.229 85.75 235.958 83.625 234.875 81.625C233.375 78.8333 232.062 76.2708 230.938 73.9375C229.854 71.5625 228.958 69.375 228.25 67.375C226.833 63.4167 225.646 58.875 224.688 53.75C223.604 54.0833 222.562 54.3958 221.562 54.6875C220.562 54.9375 219.583 55.1667 218.625 55.375C216.75 55.8333 215.062 56.7708 213.562 58.1875C212.979 60.4792 212.521 64.7292 212.188 70.9375C211.896 76.9375 210.979 80.6042 209.438 81.9375C207.729 83.3542 205.646 83.6875 203.188 82.9375C200.604 82.1875 199.438 80.25 199.688 77.125C199.979 73.75 200.438 70.3958 201.062 67.0625C201.646 63.7292 202.354 60.375 203.188 57C204.896 50.1667 206.708 44 208.625 38.5C209.625 35.7083 210.583 33.1458 211.5 30.8125C212.458 28.4375 213.375 26.2917 214.25 24.375C216.042 20.5 217.229 18.0625 217.812 17.0625ZM224.438 44.6875C224.229 43.7292 224.229 41.8333 224.438 39C224.562 37.5833 224.688 36.125 224.812 34.625C224.979 33.0833 225.167 31.5208 225.375 29.9375C225.583 28.3542 225.792 26.8125 226 25.3125C226.208 23.7708 226.417 22.2917 226.625 20.875L227.562 14.9375C227.021 15.4792 226.417 16.2708 225.75 17.3125C225.125 18.3542 224.417 19.6458 223.625 21.1875C222.875 22.7292 222.146 24.3125 221.438 25.9375C220.729 27.5625 220.021 29.25 219.312 31C218.646 32.75 218.042 34.4583 217.5 36.125C216.958 37.7917 216.458 39.4167 216 41C215.125 44.0833 214.792 46.25 215 47.5C215.542 47.2917 216.188 47.0833 216.938 46.875C217.729 46.625 218.604 46.3542 219.562 46.0625C220.521 45.7292 221.396 45.4583 222.188 45.25C223.021 45.0417 223.771 44.8542 224.438 44.6875ZM248.062 8.0625C249.521 10.3125 250.812 12.8333 251.938 15.625C253.062 18.375 254.062 21.3958 254.938 24.6875C255.812 27.9792 256.583 31.1458 257.25 34.1875C257.917 37.2292 258.479 40.1875 258.938 43.0625C260.188 41.5208 261.125 39.8958 261.75 38.1875C262.083 37.3542 262.458 36.2917 262.875 35C263.333 33.6667 263.854 32.0833 264.438 30.25C265.146 28 265.771 25.9583 266.312 24.125C266.854 22.2917 267.354 20.625 267.812 19.125C268.729 16.125 270.25 14.0417 272.375 12.875C274.875 11.5 276.188 12.7083 276.312 16.5C276.438 20.2917 276.125 24.4375 275.375 28.9375C274.375 34.6042 273.208 38.4583 271.875 40.5C273.5 40.0417 275.354 39.2917 277.438 38.25C278.521 37.7083 279.583 37.25 280.625 36.875C281.708 36.5 282.792 36.1667 283.875 35.875C284.875 35.625 285.854 35.5 286.812 35.5C287.771 35.4583 288.708 35.5833 289.625 35.875C291.5 36.4167 292.521 37.5833 292.688 39.375C292.729 39.7917 292.646 40.6458 292.438 41.9375C292.271 43.1875 292.021 44.9167 291.688 47.125C291.354 49.3333 291.021 51.5625 290.688 53.8125C290.396 56.0625 290.083 58.375 289.75 60.75C289.417 63.125 289.146 65.3333 288.938 67.375C288.771 69.4167 288.646 71.3125 288.562 73.0625C288.354 76.5625 288.833 77.7708 290 76.6875C293.958 73.0625 296.812 71.3333 298.562 71.5C300.271 71.6667 300.104 73.3958 298.062 76.6875C297.146 78.1042 296.167 79.6458 295.125 81.3125C294.083 82.9375 292.938 84.25 291.688 85.25C289.646 87.375 287.208 88.0208 284.375 87.1875C281.625 86.3958 279.417 85.0625 277.75 83.1875C276.333 81.6458 275.896 78.5417 276.438 73.875C276.771 71.5 277.104 69.1667 277.438 66.875C277.812 64.5833 278.208 62.25 278.625 59.875C279.042 57.5 279.354 55.3542 279.562 53.4375C279.812 51.4792 279.979 49.7083 280.062 48.125C280.188 45 279.062 44.1458 276.688 45.5625C272.146 47.7292 268.854 49.6042 266.812 51.1875C265.771 51.9792 264.75 52.8333 263.75 53.75C262.75 54.625 261.75 55.5625 260.75 56.5625C260.875 63.1042 260.062 69.9583 258.312 77.125C256.562 84.2917 252.896 87.0625 247.312 85.4375C245.396 84.8958 244.458 83.3542 244.5 80.8125C244.542 78.2708 244.854 76.1458 245.438 74.4375C246.146 72.3958 246.771 70.1458 247.312 67.6875C247.812 65.2292 248.229 62.5208 248.562 59.5625C248.896 56.5625 249.083 53.5833 249.125 50.625C249.208 47.625 249.208 44.6042 249.125 41.5625C248.917 35.4375 248.229 29.625 247.062 24.125C245.854 18.625 244.146 14.2292 241.938 10.9375C239.312 7.14583 239.062 4.83333 241.188 4C243.396 3.08333 245.688 4.4375 248.062 8.0625ZM335.125 44.5C336.417 47.2083 336.708 49.7083 336 52C335.333 54.125 333.833 53.8542 331.5 51.1875C330.792 50.3542 330.146 49.5417 329.562 48.75C329.021 47.9167 328.542 47.0417 328.125 46.125C326.375 42.2083 326.604 38.1875 328.812 34.0625C330.979 29.9375 333.708 26.2083 337 22.875C335.75 23.2083 334.375 23.5208 332.875 23.8125C331.417 24.0625 329.812 24.3333 328.062 24.625C324.646 25.125 321.938 25.4375 319.938 25.5625C319.104 30.7708 318.521 35.25 318.188 39C317.854 42.7083 317.771 45.75 317.938 48.125C318.104 50.5 318.521 53.5833 319.188 57.375C319.854 61.125 320.792 65.6667 322 71C323.042 75.5417 321.938 79.7083 318.688 83.5C315.479 87.2083 313.125 86.5 311.625 81.375C308.542 74.2083 307.333 64.9375 308 53.5625C308.667 42.0625 309.604 32.625 310.812 25.25C309.688 25.2917 308.271 25.2292 306.562 25.0625C304.854 24.8958 302.833 24.6042 300.5 24.1875C296 23.3958 293.792 22.9167 293.875 22.75C295 24.2917 296.104 25.7917 297.188 27.25C298.312 28.6667 299.396 30.0833 300.438 31.5C302.521 34.2917 302.354 37.1042 299.938 39.9375C298.979 41.1042 297.5 42.375 295.5 43.75C293.625 45 292.188 45.3542 291.188 44.8125C290.021 44.2292 289.604 43.375 289.938 42.25C290.188 41.2083 291.229 38.8333 293.062 35.125C293.354 34.125 292.479 32.3542 290.438 29.8125C289.396 28.5208 288.521 27.2917 287.812 26.125C287.062 24.9167 286.458 23.75 286 22.625C285.042 20.3333 285.604 18.6458 287.688 17.5625C288.729 17.0208 290.542 16.8542 293.125 17.0625C295.708 17.2292 299.146 17.7917 303.438 18.75C303.896 18.8333 304.479 18.9167 305.188 19C305.896 19.0417 306.729 19.0417 307.688 19C309.688 18.875 311.438 18.625 312.938 18.25C316.104 12.7083 319.479 8.27083 323.062 4.9375C326.604 1.64583 328.312 2.27083 328.188 6.8125C327.812 8.39583 327.021 10.2292 325.812 12.3125C325.229 13.3542 324.75 14.2708 324.375 15.0625C324.042 15.8125 323.792 16.4792 323.625 17.0625C331.417 15.7708 338.729 13.9583 345.562 11.625C349.812 9.45833 352.938 8.875 354.938 9.875C356.938 10.875 356.167 13.6458 352.625 18.1875C351.542 19.5625 349.688 21.375 347.062 23.625C345.771 24.7083 344.521 25.8542 343.312 27.0625C342.104 28.2292 340.917 29.4375 339.75 30.6875C337.375 33.1875 335.604 35.6458 334.438 38.0625C333.229 40.5208 333.458 42.6667 335.125 44.5ZM375.938 39.375C374.729 38.125 373.083 37.3958 371 37.1875C368.875 37.0625 365.771 37.3958 361.688 38.1875C361.271 40.9375 360.896 43.6667 360.562 46.375C360.271 49.0417 359.979 51.7083 359.688 54.375C359.146 59.6667 358.333 63 357.25 64.375C356.708 65.0833 356.688 65.2083 357.188 64.75C357.688 64.25 358.708 63.1667 360.25 61.5C363.375 58.125 366.917 55.5417 370.875 53.75C374.958 51.875 377.604 49.8333 378.812 47.625C380.062 45.4167 379.104 42.6667 375.938 39.375ZM361.125 8.0625C362.292 11.9375 362.688 15.3958 362.312 18.4375C362.104 19.9792 361.938 21.6042 361.812 23.3125C361.729 24.9792 361.667 26.75 361.625 28.625C365.083 28.25 368.333 28.2083 371.375 28.5C374.5 28.7917 377.958 30.1458 381.75 32.5625C385.542 34.8958 387.896 38.5 388.812 43.375C389.812 48.2917 387.833 53 382.875 57.5C379.292 60.7083 375.417 63.1667 371.25 64.875C367.208 66.5417 362.833 70.4583 358.125 76.625C355.667 80.7083 353.375 83.7083 351.25 85.625C349.208 87.5 347.292 87.2292 345.5 84.8125C344.542 83.4792 344.229 81.625 344.562 79.25C344.854 76.8333 345.729 73.8333 347.188 70.25C348.146 67.9583 348.854 65.7292 349.312 63.5625C349.812 61.3542 350.188 59.1875 350.438 57.0625C350.938 52.8542 351.25 46.9583 351.375 39.375C347.958 39.6667 345.5 40.25 344 41.125C342.458 41.9583 341.542 41.2917 341.25 39.125C340.833 36.1667 342.042 33.8958 344.875 32.3125C347.75 30.7708 349.979 29.8542 351.562 29.5625C351.729 28.6875 351.812 27.5833 351.812 26.25C351.812 24.9167 351.729 23.4167 351.562 21.75C351.438 20.0833 351.25 18.2708 351 16.3125C350.792 14.3125 350.583 12.1875 350.375 9.9375C350 6.0625 351.104 3.60417 353.688 2.5625C356.479 1.47917 358.958 3.3125 361.125 8.0625ZM417.938 14.4375C419.521 11.7292 418.604 9.25 415.188 7C411.771 4.75 408.438 5.6875 405.188 9.8125C403.312 12.9375 401.688 16.7083 400.312 21.125C398.938 25.5417 397.583 30.6042 396.25 36.3125C395.083 41.3125 394.229 45.875 393.688 50C393.188 54.125 392.896 57.8542 392.812 61.1875C392.729 64.4792 392.771 67.3958 392.938 69.9375C393.146 72.4375 393.354 74.5625 393.562 76.3125C393.854 78.9792 395.562 80.75 398.688 81.625C400.271 82.0417 401.333 81.8542 401.875 81.0625C402.417 80.2708 402.521 78.875 402.188 76.875C401.938 75.4583 401.75 73.6042 401.625 71.3125C401.5 69.0208 401.542 66.4167 401.75 63.5C401.958 60.5417 402.375 57.2917 403 53.75C403.667 50.1667 404.646 46.375 405.938 42.375C407.688 37.0417 409.521 32.0625 411.438 27.4375C413.354 22.8125 415.521 18.4792 417.938 14.4375Z" fill="#F0F0F0"/>
</svg>
