<svg width="344" height="131" viewBox="0 0 344 131" fill="none" xmlns="http://www.w3.org/2000/svg">
<path d="M6.82375 33.6002C3.82375 34.2002 2.94375 34.0402 3.02375 32.8002C3.02375 32.4802 3.38375 32.0002 3.90375 31.6002C4.62375 31.1202 5.30375 30.9202 7.98375 30.6002C9.74375 30.3602 11.2638 30.0802 11.3838 30.0402C11.4638 30.0002 11.3438 28.5602 11.1038 26.9202C10.3838 22.2002 10.1438 18.0402 10.3838 13.8002C10.7038 7.00019 11.8638 4.00019 14.6238 2.76019C20.2238 0.240195 24.5438 7.20019 25.3438 20.0802C25.6238 24.9202 25.5438 26.4402 24.9838 27.0402C24.0238 28.0002 21.7438 28.1602 21.2238 27.2802C21.1438 27.1602 21.0238 25.3602 20.9438 23.3202C20.7438 18.2002 20.4238 15.6802 19.5038 11.9602C18.7438 8.80019 16.9838 5.24019 16.3838 5.64019C16.2238 5.68019 15.9038 6.32019 15.6638 6.92019C14.1038 10.8402 13.9438 18.4802 15.2238 27.1202L15.6238 29.8002L24.5038 29.3602C27.1838 29.2402 29.6638 29.2402 30.0238 29.3202C31.2238 29.6402 31.0638 30.9602 29.7438 31.6802C29.1038 32.0002 28.0638 32.0802 24.6638 32.2002C16.9438 32.5202 16.3838 32.5602 16.3838 32.9202C16.3038 33.7602 18.1038 40.2802 20.2238 47.2402C22.6638 55.0402 23.0238 56.6002 22.6238 57.6402C22.1438 58.8402 20.3438 59.7202 19.6238 59.1602C19.3838 59.0002 19.0238 58.0002 18.8238 56.9202C18.5838 55.8402 17.5438 52.1202 16.4638 48.7602C14.6638 42.8402 13.5438 38.8402 12.5438 34.7602L12.1038 32.9202L10.3438 33.0802C9.34375 33.2002 7.78375 33.4002 6.82375 33.6002ZM53.7878 37.4402L50.6278 37.2802L51.5078 38.2402C59.3478 46.1202 68.1078 51.7202 73.5078 52.2802C74.9078 52.4402 75.0278 52.4002 76.0278 51.6402C76.9078 50.9602 77.2678 50.8802 78.1078 50.9202C80.1878 51.0802 79.5078 52.7202 76.8278 53.9602C74.9878 54.8002 72.6678 55.0402 70.4278 54.4802C63.7078 52.8802 56.6278 48.2002 47.3478 39.2402L46.4678 38.4002L46.9078 39.2002C47.3078 39.9202 47.3078 40.0002 46.7878 40.6002C46.2678 41.2402 46.2678 41.4002 47.2678 46.2802C48.3878 51.7602 48.3478 52.2802 47.0278 53.0402C46.1478 53.5602 44.7078 53.5602 44.3478 53.1202C44.0678 52.7202 42.3478 44.2802 41.1478 37.4402C40.7478 34.9602 40.3078 33.4002 39.8678 32.7202C38.9878 31.3202 38.9078 30.6402 39.4678 29.8402C39.8678 29.2802 39.8678 28.8402 39.6278 25.6802C39.1078 19.7602 39.1078 12.4802 39.6278 11.3602C39.9478 10.6402 41.0678 10.0802 42.2278 10.0002C43.8278 10.0002 44.1878 10.5202 44.5078 13.3202C44.9078 16.6002 44.8678 17.5602 44.2678 17.9602C44.0278 18.1202 43.7478 18.5602 43.7078 18.8402C43.5078 19.7602 44.0678 28.0402 44.3078 27.8002C44.3478 27.8002 44.9078 25.9602 45.5478 23.8002C48.0278 15.6002 50.4678 9.76019 52.4278 7.40019C54.6678 4.72019 57.9078 3.92019 60.5478 5.40019C63.1878 6.84019 65.7878 12.3202 67.1478 19.0802C67.9078 23.0402 68.0678 25.9602 67.6278 28.8802C67.1878 32.2802 66.5478 33.5602 64.5478 35.1202C62.2278 36.9602 58.9078 37.6802 53.7878 37.4402ZM51.1478 20.0402C50.1078 23.2002 47.5478 32.0802 47.3078 33.2402C47.1878 33.9602 51.6278 34.7602 56.4278 34.8002C59.1878 34.8002 59.9478 34.7602 60.8678 34.3602C62.3478 33.7202 63.0278 32.6402 63.4678 30.3602C64.1478 26.8402 63.6678 21.6802 62.1878 16.5602C60.7478 11.4802 58.5078 7.40019 57.3078 7.64019C55.8278 7.92019 53.6278 12.3202 51.1478 20.0402ZM81.3328 14.1602C83.2528 8.28019 88.0128 5.88019 93.0928 8.32019C94.6928 9.08019 98.1328 12.6002 99.6128 15.0002C104.333 22.6002 106.333 35.5602 104.213 45.0402C103.213 49.4802 100.373 53.5202 97.3328 54.6402C95.3328 55.4002 92.8928 55.3202 91.1728 54.5602C86.4528 52.3602 82.6928 44.3602 80.4128 31.5602C80.0528 29.5202 79.6928 27.6802 79.6528 27.3602C79.5728 26.9602 79.2128 26.7202 78.4928 26.4802C77.0128 26.0402 76.8528 25.5602 76.8528 21.6002C76.8528 16.3202 77.4128 15.1202 79.9328 15.1202C80.9728 15.0402 81.0928 15.0002 81.3328 14.1602ZM96.8128 51.8402C97.7728 51.2402 98.8528 49.6002 99.5328 47.8002C101.773 41.8002 101.453 30.4002 98.8528 22.4802C96.8128 16.2002 92.5328 10.5602 89.5728 10.1602C88.7328 10.0402 88.4528 10.1602 87.6528 10.8402C85.6128 12.6002 84.2128 16.9602 84.4928 20.7202C84.8128 25.9202 87.7328 33.2002 91.6128 38.5602C93.2128 40.8402 93.3728 41.2002 93.1328 41.7202C92.8528 42.4402 91.9328 42.8802 90.8528 42.8802C90.0528 42.8802 88.6528 41.4802 87.2928 39.2802C86.7728 38.4002 86.2928 37.8402 86.2528 38.0002C86.0528 38.5202 87.9728 44.0802 89.1328 46.4002C90.3328 48.8002 92.1328 51.0802 93.4928 51.8802C94.4928 52.4802 95.8528 52.4802 96.8128 51.8402ZM138.144 0.760191C138.424 1.00019 138.944 1.80019 139.304 2.56019C139.704 3.36019 141.304 6.52019 142.944 9.56019C148.224 19.6402 150.784 26.6802 152.744 36.4402C153.824 42.0402 154.224 46.3202 153.984 49.6802C153.864 51.4402 153.624 52.8402 153.384 53.4002C152.864 54.5202 151.424 55.8802 150.304 56.2802C149.184 56.6802 147.184 56.6402 146.104 56.2402C141.224 54.3602 131.784 40.7202 124.544 25.0802C123.624 23.0802 122.824 21.5202 122.784 21.5602C122.464 21.9202 124.184 33.5602 126.864 45.8402C128.264 52.1602 128.264 52.3602 127.904 53.0002C127.264 54.2402 124.904 54.6802 124.184 53.7202C123.984 53.4002 123.424 51.2002 122.904 48.7602C122.104 44.8002 120.224 36.0402 118.584 28.3202C118.184 26.4002 118.064 26.1202 117.544 26.1202C116.304 26.1202 116.024 25.5202 115.464 21.4402C114.824 16.8402 114.784 14.4802 115.264 13.6802C115.704 13.0002 116.624 12.5602 117.624 12.5602C118.024 12.5602 118.384 12.4402 118.384 12.3202C118.424 11.7602 120.024 11.2402 121.184 11.3602C122.744 11.6002 123.144 12.1602 126.424 19.3602C133.024 33.9602 139.704 45.0802 145.304 50.9202C146.824 52.5202 148.624 53.8802 149.184 53.8802C149.224 53.8802 149.464 53.4802 149.664 52.9602C151.224 49.2402 148.944 34.4002 145.184 23.6402C143.584 19.0802 142.224 16.1602 138.024 8.32019C136.144 4.84019 134.664 1.84019 134.664 1.64019C134.784 0.560191 137.064 0.000193596 138.144 0.760191ZM167.103 11.4402C168.103 12.9602 168.103 12.9602 171.503 14.0802C172.623 14.4002 173.703 14.7602 174.783 15.0802C179.383 16.3602 186.383 17.5602 191.103 16.6802C193.703 16.1602 196.383 14.6402 196.943 11.8402C196.983 11.4002 197.023 10.9602 196.983 10.5202C196.863 8.08019 194.543 5.80019 192.183 5.44019C188.263 4.80019 184.743 5.88019 181.583 8.20019C180.743 8.84019 180.063 10.1602 179.943 10.2402C179.703 10.4402 179.023 9.96019 178.863 9.80019C177.143 8.20019 178.383 6.28019 179.943 5.20019C182.463 3.48019 184.743 2.4802 187.823 2.20019C194.143 1.64019 198.703 3.68019 200.103 10.2402C201.503 23.2002 181.463 20.0002 174.023 18.3602C171.503 17.6802 169.383 17.1602 169.303 17.1602C169.263 17.1602 169.343 17.4002 169.463 17.6802C169.583 18.0002 169.903 18.2402 170.103 18.2402C170.303 18.2402 170.663 18.5202 170.903 18.8402C171.503 19.6002 170.983 20.5602 169.543 21.4002L168.503 21.9602L169.183 24.2802C172.103 34.8402 173.743 42.0402 174.423 47.4002C174.703 49.4002 174.663 49.6402 174.183 50.4402C173.703 51.2002 172.303 52.1602 171.663 52.1602C171.543 52.1602 171.223 52.0402 170.983 51.7602C170.663 51.6002 170.423 50.4802 170.223 48.6802C170.063 47.2002 169.623 44.4402 169.263 42.5602C168.623 39.3602 167.943 36.8002 163.742 21.5202C162.782 18.1202 161.982 15.1602 161.942 14.9602C161.862 14.5602 156.222 12.6002 155.302 12.6002C153.542 12.6002 153.662 15.1602 155.503 16.5602C155.942 16.9602 157.622 17.8802 159.182 18.5602C160.742 19.2802 162.142 20.1202 162.262 20.3202C162.662 21.0802 162.022 22.2402 160.942 22.6802C159.302 23.3202 158.422 23.1202 155.182 21.5202C150.742 19.3602 148.862 17.2802 149.102 14.7202C149.502 10.4802 154.462 8.32019 159.822 10.0802L161.702 10.6402L163.022 10.0802C164.862 9.16019 165.782 9.48019 167.103 11.4402ZM189.61 46.9202C188.21 47.5602 186.37 47.6402 185.81 47.0402C184.97 46.1602 185.41 44.8802 187.53 42.0802L188.69 40.5602L188.21 38.1202C187.41 33.6802 187.29 32.5202 187.41 27.2002C187.49 21.1202 188.01 17.3602 189.29 13.0802C191.25 6.52019 194.09 3.56019 198.77 3.40019C201.33 3.28019 202.93 3.84019 204.97 5.48019C206.57 6.64019 208.49 9.24019 209.45 11.3202C210.65 14.0002 211.81 19.2802 211.85 22.6002C211.85 23.1602 211.89 23.7602 211.93 23.9202C212.09 24.7202 211.33 25.4802 206.01 29.6802C202.81 32.2402 198.61 35.7202 196.73 37.4402L193.25 40.6402L193.53 41.6802C194.01 43.4402 195.97 46.8002 197.65 48.6402C200.29 51.4802 203.17 52.5202 205.65 51.2802C207.97 50.1602 211.09 45.8002 212.73 41.3202C213.09 40.4002 213.89 37.5202 214.49 35.0002C215.21 32.0402 215.81 30.2402 216.13 29.8802C216.69 29.2802 217.89 28.7202 218.49 28.7202C219.05 28.7202 219.97 29.7202 219.81 30.1202C219.73 30.3202 219.21 32.3202 218.65 34.6002C216.73 42.1202 214.53 46.7202 210.97 50.6002C209.41 52.2002 206.69 54.1602 205.01 54.7202C203.37 55.2802 200.57 55.3602 199.09 54.8002C196.53 53.8402 193.73 51.1602 191.81 47.9202L190.85 46.2802L189.61 46.9202ZM198.53 6.24019C196.45 6.20019 193.85 10.8002 192.37 17.0802C191.57 20.5602 191.13 30.4802 191.65 33.8802C191.81 35.2002 192.05 36.4402 192.09 36.6002C192.17 36.8402 193.01 36.2802 194.49 34.9602C195.77 33.8402 198.73 31.4002 201.05 29.6002C206.93 25.0002 207.69 24.2802 207.41 23.7202C207.29 23.4802 207.05 22.0802 206.89 20.6802C206.49 17.3602 205.45 13.6002 204.37 11.5602C202.77 8.68019 200.17 6.36019 198.53 6.24019ZM247.223 0.760191C247.503 1.00019 248.023 1.80019 248.383 2.56019C248.783 3.36019 250.383 6.52019 252.023 9.56019C257.303 19.6402 259.863 26.6802 261.823 36.4402C262.903 42.0402 263.303 46.3202 263.063 49.6802C262.943 51.4402 262.703 52.8402 262.463 53.4002C261.943 54.5202 260.503 55.8802 259.383 56.2802C258.263 56.6802 256.263 56.6402 255.183 56.2402C250.303 54.3602 240.863 40.7202 233.623 25.0802C232.703 23.0802 231.903 21.5202 231.863 21.5602C231.543 21.9202 233.263 33.5602 235.943 45.8402C237.343 52.1602 237.343 52.3602 236.983 53.0002C236.343 54.2402 233.983 54.6802 233.263 53.7202C233.063 53.4002 232.503 51.2002 231.983 48.7602C231.183 44.8002 229.303 36.0402 227.663 28.3202C227.263 26.4002 227.143 26.1202 226.623 26.1202C225.383 26.1202 225.103 25.5202 224.543 21.4402C223.903 16.8402 223.863 14.4802 224.343 13.6802C224.783 13.0002 225.703 12.5602 226.703 12.5602C227.103 12.5602 227.463 12.4402 227.463 12.3202C227.503 11.7602 229.103 11.2402 230.263 11.3602C231.823 11.6002 232.223 12.1602 235.503 19.3602C242.103 33.9602 248.783 45.0802 254.383 50.9202C255.903 52.5202 257.703 53.8802 258.263 53.8802C258.303 53.8802 258.543 53.4802 258.743 52.9602C260.303 49.2402 258.023 34.4002 254.263 23.6402C252.663 19.0802 251.303 16.1602 247.103 8.32019C245.223 4.84019 243.743 1.84019 243.743 1.64019C243.863 0.560191 246.143 0.000193596 247.223 0.760191ZM267.142 61.4002C268.422 58.9602 272.942 54.6802 277.462 51.4802C278.542 50.7602 279.422 50.0002 279.462 49.8402C279.462 49.7202 278.502 45.7202 277.302 41.0002C273.622 26.5602 272.662 21.8802 271.942 14.0002L271.622 10.6802L268.422 9.20019C266.702 8.36019 265.142 7.52019 265.022 7.32019C264.662 6.68019 265.342 5.68019 266.462 5.20019C267.142 4.92019 267.782 4.88019 268.862 5.00019C271.422 5.28019 272.182 5.56019 272.462 6.40019C272.662 7.00019 273.342 7.40019 276.862 9.16019C287.982 14.6802 292.822 17.4402 296.742 20.6002C300.862 23.8802 303.502 27.6402 304.422 31.4802C304.782 32.8802 304.782 33.7202 304.582 36.3202C304.382 38.9602 304.222 39.6402 303.502 41.5202C300.982 47.6402 296.382 53.1602 289.462 58.3602C285.022 61.7202 279.422 64.6802 275.182 65.8402C272.622 66.6002 269.422 66.6802 268.182 66.1202C266.462 65.3602 266.062 63.4802 267.142 61.4002ZM294.142 44.2002C294.582 44.2002 295.102 44.4002 295.302 44.6002C296.182 45.5602 295.302 46.4002 291.982 47.7602C288.542 49.1202 287.182 49.8002 283.262 52.1202C279.982 53.9602 278.302 55.0402 276.302 56.6002C275.702 57.1202 274.902 57.6402 274.502 57.8002C273.582 58.2002 271.502 60.4402 270.782 61.8402L270.222 62.8802L270.782 63.3202C271.502 63.9202 273.542 63.8402 276.102 62.9202C283.342 60.4802 292.542 53.3602 297.022 46.6802C300.302 41.8002 301.462 36.5602 300.262 32.0802C299.062 27.7202 295.422 23.6802 288.902 19.6402C286.262 17.9602 277.102 13.1602 276.902 13.3202C276.822 13.4002 276.942 15.6802 277.142 18.4002C277.622 24.8402 278.022 26.9202 281.262 40.0002C282.422 44.7202 283.382 48.5602 283.382 48.6002C283.382 48.6002 284.422 48.1202 285.702 47.4802C288.942 45.9202 293.222 44.2002 294.142 44.2002ZM2.47969 121.4C3.75969 118.96 8.27969 114.68 12.7997 111.48C13.8797 110.76 14.7597 110 14.7997 109.84C14.7997 109.72 13.8397 105.72 12.6397 101C8.95969 86.5602 7.99969 81.8802 7.27969 74.0002L6.95969 70.6802L3.75969 69.2002C2.03969 68.3602 0.479691 67.5202 0.35969 67.3202C-0.000310421 66.6802 0.67969 65.6802 1.79969 65.2002C2.47969 64.9202 3.11969 64.8802 4.19969 65.0002C6.75969 65.2802 7.51969 65.5602 7.79969 66.4002C7.99969 67.0002 8.67969 67.4002 12.1997 69.1602C23.3197 74.6802 28.1597 77.4402 32.0797 80.6002C36.1997 83.8802 38.8397 87.6402 39.7597 91.4802C40.1197 92.8802 40.1197 93.7202 39.9197 96.3202C39.7197 98.9602 39.5597 99.6402 38.8397 101.52C36.3197 107.64 31.7197 113.16 24.7997 118.36C20.3597 121.72 14.7597 124.68 10.5197 125.84C7.95969 126.6 4.75969 126.68 3.51969 126.12C1.79969 125.36 1.39969 123.48 2.47969 121.4ZM29.4797 104.2C29.9197 104.2 30.4397 104.4 30.6397 104.6C31.5197 105.56 30.6397 106.4 27.3197 107.76C23.8797 109.12 22.5197 109.8 18.5997 112.12C15.3197 113.96 13.6397 115.04 11.6397 116.6C11.0397 117.12 10.2397 117.64 9.83969 117.8C8.91969 118.2 6.83969 120.44 6.11969 121.84L5.55969 122.88L6.11969 123.32C6.83969 123.92 8.87969 123.84 11.4397 122.92C18.6797 120.48 27.8797 113.36 32.3597 106.68C35.6397 101.8 36.7997 96.5602 35.5997 92.0802C34.3997 87.7202 30.7597 83.6802 24.2397 79.6402C21.5997 77.9602 12.4397 73.1602 12.2397 73.3202C12.1597 73.4002 12.2797 75.6802 12.4797 78.4002C12.9597 84.8402 13.3597 86.9202 16.5997 100C17.7597 104.72 18.7197 108.56 18.7197 108.6C18.7197 108.6 19.7597 108.12 21.0397 107.48C24.2797 105.92 28.5597 104.2 29.4797 104.2ZM55.2775 106.92C53.8775 107.56 52.0375 107.64 51.4775 107.04C50.6375 106.16 51.0775 104.88 53.1975 102.08L54.3575 100.56L53.8775 98.1202C53.0775 93.6802 52.9575 92.5202 53.0775 87.2002C53.1575 81.1202 53.6775 77.3602 54.9575 73.0802C56.9175 66.5202 59.7575 63.5602 64.4375 63.4002C66.9975 63.2802 68.5975 63.8402 70.6375 65.4802C72.2375 66.6402 74.1575 69.2402 75.1175 71.3202C76.3175 74.0002 77.4775 79.2802 77.5175 82.6002C77.5175 83.1602 77.5575 83.7602 77.5975 83.9202C77.7575 84.7202 76.9975 85.4802 71.6775 89.6802C68.4775 92.2402 64.2775 95.7202 62.3975 97.4402L58.9175 100.64L59.1975 101.68C59.6775 103.44 61.6375 106.8 63.3175 108.64C65.9575 111.48 68.8375 112.52 71.3175 111.28C73.6375 110.16 76.7575 105.8 78.3975 101.32C78.7575 100.4 79.5575 97.5202 80.1575 95.0002C80.8775 92.0402 81.4775 90.2402 81.7975 89.8802C82.3575 89.2802 83.5575 88.7202 84.1575 88.7202C84.7175 88.7202 85.6375 89.7202 85.4775 90.1202C85.3975 90.3202 84.8775 92.3202 84.3175 94.6002C82.3975 102.12 80.1975 106.72 76.6375 110.6C75.0775 112.2 72.3575 114.16 70.6775 114.72C69.0375 115.28 66.2375 115.36 64.7575 114.8C62.1975 113.84 59.3975 111.16 57.4775 107.92L56.5175 106.28L55.2775 106.92ZM64.1975 66.2402C62.1175 66.2002 59.5175 70.8002 58.0375 77.0802C57.2375 80.5602 56.7975 90.4802 57.3175 93.8802C57.4775 95.2002 57.7175 96.4402 57.7575 96.6002C57.8375 96.8402 58.6775 96.2802 60.1575 94.9602C61.4375 93.8402 64.3975 91.4002 66.7175 89.6002C72.5975 85.0002 73.3575 84.2802 73.0775 83.7202C72.9575 83.4802 72.7175 82.0802 72.5575 80.6802C72.1575 77.3602 71.1175 73.6002 70.0375 71.5602C68.4375 68.6802 65.8375 66.3602 64.1975 66.2402ZM94.5706 71.8402C94.8506 72.0802 95.3306 72.8402 95.6906 73.6002C96.3306 75.0802 96.2906 75.4802 95.3706 76.7202C94.9306 77.2402 95.7706 82.7602 97.3306 89.8402C98.4506 94.8402 100.451 102.16 100.811 102.6C100.931 102.72 101.091 102 101.171 100.88C101.291 98.8802 101.611 96.1602 104.731 73.3602C105.251 69.4402 105.931 64.4002 106.211 62.1602C106.531 59.8402 106.891 57.7202 107.011 57.4402C107.571 56.1602 110.251 55.6402 111.211 56.6002C111.651 57.0802 111.691 57.3202 111.451 58.3202C111.291 59.0402 111.011 61.9602 110.771 64.9202C110.411 69.9202 110.331 70.3202 109.811 70.8402C109.331 71.3202 109.131 72.0802 108.611 75.4402C106.011 93.2402 105.491 97.4802 104.891 103.64C104.251 110.24 104.131 110.64 102.371 111.84C100.931 112.76 100.131 112.92 99.4506 112.36C98.4506 111.52 94.2106 97.0002 92.2506 87.9602C90.9306 81.6002 90.0106 75.4402 90.2106 73.8402C90.3306 72.8402 90.4906 72.6002 91.2906 72.0802C92.3306 71.4402 93.8106 71.3202 94.5706 71.8402ZM127.073 106.92C125.673 107.56 123.833 107.64 123.273 107.04C122.433 106.16 122.873 104.88 124.993 102.08L126.153 100.56L125.673 98.1202C124.873 93.6802 124.753 92.5202 124.873 87.2002C124.953 81.1202 125.473 77.3602 126.753 73.0802C128.713 66.5202 131.553 63.5602 136.233 63.4002C138.793 63.2802 140.393 63.8402 142.433 65.4802C144.033 66.6402 145.953 69.2402 146.913 71.3202C148.113 74.0002 149.273 79.2802 149.313 82.6002C149.313 83.1602 149.353 83.7602 149.393 83.9202C149.553 84.7202 148.793 85.4802 143.473 89.6802C140.273 92.2402 136.073 95.7202 134.193 97.4402L130.713 100.64L130.993 101.68C131.473 103.44 133.433 106.8 135.113 108.64C137.753 111.48 140.633 112.52 143.113 111.28C145.433 110.16 148.553 105.8 150.193 101.32C150.553 100.4 151.353 97.5202 151.953 95.0002C152.673 92.0402 153.273 90.2402 153.593 89.8802C154.153 89.2802 155.353 88.7202 155.953 88.7202C156.513 88.7202 157.433 89.7202 157.273 90.1202C157.193 90.3202 156.673 92.3202 156.113 94.6002C154.193 102.12 151.993 106.72 148.433 110.6C146.873 112.2 144.153 114.16 142.473 114.72C140.833 115.28 138.033 115.36 136.553 114.8C133.993 113.84 131.193 111.16 129.273 107.92L128.313 106.28L127.073 106.92ZM135.993 66.2402C133.913 66.2002 131.313 70.8002 129.833 77.0802C129.033 80.5602 128.593 90.4802 129.113 93.8802C129.273 95.2002 129.513 96.4402 129.553 96.6002C129.633 96.8402 130.473 96.2802 131.953 94.9602C133.233 93.8402 136.193 91.4002 138.513 89.6002C144.393 85.0002 145.153 84.2802 144.873 83.7202C144.753 83.4802 144.513 82.0802 144.353 80.6802C143.953 77.3602 142.913 73.6002 141.833 71.5602C140.233 68.6802 137.633 66.3602 135.993 66.2402ZM159.926 112.44C162.206 112.32 163.486 112.56 168.526 113.8C169.006 113.92 169.046 113.84 168.926 113.36C168.886 113 168.246 109.8 167.566 106.2C166.846 102.56 165.966 97.8002 165.606 95.5202C165.206 93.2802 164.726 91.0802 164.486 90.6402C164.286 90.1202 164.126 89.2402 164.166 88.5602C164.246 87.4802 162.966 78.8002 161.366 69.0002C160.726 65.1602 160.806 64.0802 161.726 63.5202C162.526 63.0002 164.086 63.0002 164.886 63.5202C166.326 64.3202 168.406 70.2802 169.046 75.4002C169.526 79.2002 169.566 81.8802 169.086 85.1602C168.886 86.4802 168.766 88.1602 168.806 88.9202C168.886 90.8002 170.606 100.48 172.086 107.32C172.726 110.28 173.166 113 173.126 113.24C173.086 113.52 172.766 113.96 172.406 114.28C171.886 114.68 171.806 114.88 172.046 114.96C172.246 115.04 173.646 115.52 175.166 116.12C179.166 117.56 182.566 119.2 189.486 122.88C192.846 124.68 195.846 126.24 196.166 126.36C196.686 126.52 196.686 126.48 196.526 125.96C196.206 124.88 189.246 114.8 186.806 111.6C185.446 109.8 184.486 108.24 184.526 107.96C184.766 106.88 186.806 105.76 187.966 106.08C188.486 106.2 197.566 118.88 199.326 121.68C201.046 124.44 201.326 127.32 200.006 128.6C198.646 129.96 196.566 130.24 194.446 129.44C193.806 129.24 190.646 127.6 187.406 125.84C178.046 120.88 172.486 118.52 165.766 116.68C162.966 115.88 162.246 115.76 159.286 115.76C156.206 115.72 155.966 115.72 155.686 115.16C155.246 114.48 155.566 113.72 156.686 113.04C157.406 112.6 157.966 112.48 159.926 112.44ZM186.311 74.1602C188.231 68.2802 192.991 65.8802 198.071 68.3202C199.671 69.0802 203.111 72.6002 204.591 75.0002C209.311 82.6002 211.311 95.5602 209.191 105.04C208.191 109.48 205.351 113.52 202.311 114.64C200.311 115.4 197.871 115.32 196.151 114.56C191.431 112.36 187.671 104.36 185.391 91.5602C185.031 89.5202 184.671 87.6802 184.631 87.3602C184.551 86.9602 184.191 86.7202 183.471 86.4802C181.991 86.0402 181.831 85.5602 181.831 81.6002C181.831 76.3202 182.391 75.1202 184.911 75.1202C185.951 75.0402 186.071 75.0002 186.311 74.1602ZM201.791 111.84C202.751 111.24 203.831 109.6 204.511 107.8C206.751 101.8 206.431 90.4002 203.831 82.4802C201.791 76.2002 197.511 70.5602 194.551 70.1602C193.711 70.0402 193.431 70.1602 192.631 70.8402C190.591 72.6002 189.191 76.9602 189.471 80.7202C189.791 85.9202 192.711 93.2002 196.591 98.5602C198.191 100.84 198.351 101.2 198.111 101.72C197.831 102.44 196.911 102.88 195.831 102.88C195.031 102.88 193.631 101.48 192.271 99.2802C191.751 98.4002 191.271 97.8402 191.231 98.0002C191.031 98.5202 192.951 104.08 194.111 106.4C195.311 108.8 197.111 111.08 198.471 111.88C199.471 112.48 200.831 112.48 201.791 111.84ZM225.922 68.7202C226.202 68.8802 226.562 69.8402 226.802 70.9602C227.202 72.7602 227.202 72.8802 226.722 73.5602C226.282 74.2802 226.242 74.5202 226.482 78.4002C226.922 85.8402 228.522 98.0002 229.122 98.2002C229.322 98.2402 229.562 97.2402 229.882 95.0402C230.842 88.3602 233.722 74.7202 234.802 71.6802C235.442 69.7602 235.962 69.1202 237.042 68.7202C238.162 68.2402 239.002 68.2402 239.882 68.7202C241.442 69.5602 242.362 71.8002 246.082 83.9202C247.642 89.0402 249.442 94.8402 250.082 96.8402C251.522 101.4 251.722 102.68 251.082 103.88C250.522 104.84 249.842 105.28 248.362 105.72C246.802 106.2 244.402 105.8 238.402 104.08C235.722 103.36 233.402 102.76 233.242 102.76C233.002 102.76 232.882 103.64 232.722 106.52C232.402 112.68 232.642 115.24 234.042 121.16C235.602 127.88 235.642 128.28 235.282 129.08C234.842 130.04 233.642 130.92 232.842 130.92C232.242 130.92 232.042 130.76 231.642 129.76C230.882 127.92 229.922 123.76 229.282 119.92C229.002 118 228.202 114.12 227.562 111.24C226.882 108.4 226.082 104.84 225.802 103.32L225.242 100.6L224.122 100.2C222.802 99.7202 222.002 98.9202 222.042 98.2402C222.082 97.6802 223.562 96.3202 224.122 96.3202C224.362 96.3202 224.442 96.1602 224.402 95.8802C223.082 89.6802 221.362 71.0402 222.002 69.6802C222.522 68.5602 224.922 67.9202 225.922 68.7202ZM238.362 73.1202C238.202 73.2002 236.762 79.6402 235.642 85.1602C234.602 90.2002 233.202 98.9202 233.402 99.1602C233.642 99.4402 246.322 102.92 247.202 102.96C247.562 102.96 247.602 102.88 247.562 102.36C247.402 101.44 239.322 75.1202 238.842 73.9602C238.642 73.4402 238.402 73.0402 238.362 73.1202ZM265.312 106.92C263.912 107.56 262.072 107.64 261.512 107.04C260.672 106.16 261.112 104.88 263.232 102.08L264.392 100.56L263.912 98.1202C263.112 93.6802 262.992 92.5202 263.112 87.2002C263.192 81.1202 263.712 77.3602 264.992 73.0802C266.952 66.5202 269.792 63.5602 274.472 63.4002C277.032 63.2802 278.632 63.8402 280.672 65.4802C282.272 66.6402 284.192 69.2402 285.152 71.3202C286.352 74.0002 287.512 79.2802 287.552 82.6002C287.552 83.1602 287.592 83.7602 287.632 83.9202C287.792 84.7202 287.032 85.4802 281.712 89.6802C278.512 92.2402 274.312 95.7202 272.432 97.4402L268.952 100.64L269.232 101.68C269.712 103.44 271.672 106.8 273.352 108.64C275.992 111.48 278.872 112.52 281.352 111.28C283.672 110.16 286.792 105.8 288.432 101.32C288.792 100.4 289.592 97.5202 290.192 95.0002C290.912 92.0402 291.512 90.2402 291.832 89.8802C292.392 89.2802 293.592 88.7202 294.192 88.7202C294.752 88.7202 295.672 89.7202 295.512 90.1202C295.432 90.3202 294.912 92.3202 294.352 94.6002C292.432 102.12 290.232 106.72 286.672 110.6C285.112 112.2 282.392 114.16 280.712 114.72C279.072 115.28 276.272 115.36 274.792 114.8C272.232 113.84 269.432 111.16 267.512 107.92L266.552 106.28L265.312 106.92ZM274.232 66.2402C272.152 66.2002 269.552 70.8002 268.072 77.0802C267.272 80.5602 266.832 90.4802 267.352 93.8802C267.512 95.2002 267.752 96.4402 267.792 96.6002C267.872 96.8402 268.712 96.2802 270.192 94.9602C271.472 93.8402 274.432 91.4002 276.752 89.6002C282.632 85.0002 283.392 84.2802 283.112 83.7202C282.992 83.4802 282.752 82.0802 282.592 80.6802C282.192 77.3602 281.152 73.6002 280.072 71.5602C278.472 68.6802 275.872 66.3602 274.232 66.2402ZM317.005 97.4402L313.845 97.2802L314.725 98.2402C322.565 106.12 331.325 111.72 336.725 112.28C338.125 112.44 338.245 112.4 339.245 111.64C340.125 110.96 340.485 110.88 341.325 110.92C343.405 111.08 342.725 112.72 340.045 113.96C338.205 114.8 335.885 115.04 333.645 114.48C326.925 112.88 319.845 108.2 310.565 99.2402L309.685 98.4002L310.125 99.2002C310.525 99.9202 310.525 100 310.005 100.6C309.485 101.24 309.485 101.4 310.485 106.28C311.605 111.76 311.565 112.28 310.245 113.04C309.365 113.56 307.925 113.56 307.565 113.12C307.285 112.72 305.565 104.28 304.365 97.4402C303.965 94.9602 303.525 93.4002 303.085 92.7202C302.205 91.3202 302.125 90.6402 302.685 89.8402C303.085 89.2802 303.085 88.8402 302.845 85.6802C302.325 79.7602 302.325 72.4802 302.845 71.3602C303.165 70.6402 304.285 70.0802 305.445 70.0002C307.045 70.0002 307.405 70.5202 307.725 73.3202C308.125 76.6002 308.085 77.5602 307.485 77.9602C307.245 78.1202 306.965 78.5602 306.925 78.8402C306.725 79.7602 307.285 88.0402 307.525 87.8002C307.565 87.8002 308.125 85.9602 308.765 83.8002C311.245 75.6002 313.685 69.7602 315.645 67.4002C317.885 64.7202 321.125 63.9202 323.765 65.4002C326.405 66.8402 329.005 72.3202 330.365 79.0802C331.125 83.0402 331.285 85.9602 330.845 88.8802C330.405 92.2802 329.765 93.5602 327.765 95.1202C325.445 96.9602 322.125 97.6802 317.005 97.4402ZM314.365 80.0402C313.325 83.2002 310.765 92.0802 310.525 93.2402C310.405 93.9602 314.845 94.7602 319.645 94.8002C322.405 94.8002 323.165 94.7602 324.085 94.3602C325.565 93.7202 326.245 92.6402 326.685 90.3602C327.365 86.8402 326.885 81.6802 325.405 76.5602C323.965 71.4802 321.725 67.4002 320.525 67.6402C319.045 67.9202 316.845 72.3202 314.365 80.0402Z" fill="#F0F0F0"/>
</svg>
