<svg width="426" height="84" viewBox="0 0 426 84" fill="none" xmlns="http://www.w3.org/2000/svg">
<path d="M3.88 33.36C0.879996 33.96 -3.57628e-06 33.8 0.0799966 32.56C0.0799966 32.24 0.439997 31.76 0.959997 31.36C1.68 30.88 2.36 30.68 5.04 30.36C6.8 30.12 8.32 29.84 8.44 29.8C8.52 29.76 8.4 28.32 8.16 26.68C7.44 21.96 7.2 17.8 7.44 13.56C7.76 6.75996 8.92 3.75996 11.68 2.51996C17.28 -3.91006e-05 21.6 6.95996 22.4 19.84C22.68 24.68 22.6 26.2 22.04 26.8C21.08 27.76 18.8 27.92 18.28 27.04C18.2 26.92 18.08 25.12 18 23.08C17.8 17.96 17.48 15.44 16.56 11.72C15.8 8.55996 14.04 4.99996 13.44 5.39996C13.28 5.43996 12.96 6.07996 12.72 6.67996C11.16 10.6 11 18.24 12.28 26.88L12.68 29.56L21.56 29.12C24.24 29 26.72 29 27.08 29.08C28.28 29.4 28.12 30.72 26.8 31.44C26.16 31.76 25.12 31.84 21.72 31.96C14 32.28 13.44 32.32 13.44 32.68C13.36 33.52 15.16 40.04 17.28 47C19.72 54.8 20.08 56.36 19.68 57.4C19.2 58.6 17.4 59.48 16.68 58.92C16.44 58.76 16.08 57.76 15.88 56.68C15.64 55.6 14.6 51.88 13.52 48.52C11.72 42.6 10.6 38.6 9.6 34.52L9.16 32.68L7.4 32.84C6.4 32.96 4.84 33.16 3.88 33.36ZM37.6441 14.48C38.3641 18.48 38.8441 22.8 39.4041 26.88C39.4841 27.44 39.6041 28 39.6841 28.52C40.4841 33.28 42.0041 39.72 44.2041 43.88C45.3241 46.08 46.4041 48.4 48.0041 44.76C50.2441 39.72 50.6441 37.64 51.2841 32.32C51.8841 27.52 52.0041 25.72 51.9241 22.76V22.04C51.8441 18.68 51.8041 15.36 51.9641 12C52.0041 10.56 52.0841 6.39996 52.3241 5.15996C52.6041 3.95996 55.4841 2.95996 56.3641 4.11996C57.2041 5.19996 56.5641 20.28 56.4441 22.44C56.1641 26.96 56.2441 29.52 56.7241 34C57.2041 38.44 57.8041 42.08 58.6441 45.4C59.0441 47.04 59.3241 48.56 59.2841 48.8C59.2041 49.4 57.4441 50.76 56.7641 50.72C56.4441 50.72 56.0041 50.52 55.8041 50.28C55.4041 49.36 54.8041 46.44 54.5641 45.24C54.0441 42.76 53.5641 40.68 53.5241 40.64C53.4841 40.56 53.0841 41.32 52.5641 42.32C52.4441 42.6 52.2841 42.84 52.1641 43.12C50.7241 45.6 48.8041 50.12 45.5241 50.32C39.9641 50.64 36.4041 33.76 35.6041 29.44C35.3641 28.24 35.1641 27.04 34.9241 25.84C34.1641 21.88 33.5641 17.84 32.8841 13.84C32.6441 12.52 32.1641 11.72 33.7241 11.12C36.3241 10.12 37.2841 12.4 37.6441 14.48ZM72.5847 14.48C73.3047 18.48 73.7847 22.8 74.3447 26.88C74.4247 27.44 74.5447 28 74.6247 28.52C75.4247 33.28 76.9447 39.72 79.1447 43.88C80.2647 46.08 81.3447 48.4 82.9447 44.76C85.1847 39.72 85.5847 37.64 86.2247 32.32C86.8247 27.52 86.9447 25.72 86.8647 22.76V22.04C86.7847 18.68 86.7447 15.36 86.9047 12C86.9447 10.56 87.0247 6.39996 87.2647 5.15996C87.5447 3.95996 90.4247 2.95996 91.3047 4.11996C92.1447 5.19996 91.5047 20.28 91.3847 22.44C91.1047 26.96 91.1847 29.52 91.6647 34C92.1447 38.44 92.7447 42.08 93.5847 45.4C93.9847 47.04 94.2647 48.56 94.2247 48.8C94.1447 49.4 92.3847 50.76 91.7047 50.72C91.3847 50.72 90.9447 50.52 90.7447 50.28C90.3447 49.36 89.7447 46.44 89.5047 45.24C88.9847 42.76 88.5047 40.68 88.4647 40.64C88.4247 40.56 88.0247 41.32 87.5047 42.32C87.3847 42.6 87.2247 42.84 87.1047 43.12C85.6647 45.6 83.7447 50.12 80.4647 50.32C74.9047 50.64 71.3447 33.76 70.5447 29.44C70.3047 28.24 70.1047 27.04 69.8647 25.84C69.1047 21.88 68.5047 17.84 67.8247 13.84C67.5847 12.52 67.1047 11.72 68.6647 11.12C71.2647 10.12 72.2247 12.4 72.5847 14.48ZM101.885 52.2C104.165 52.08 105.445 52.32 110.485 53.56C110.965 53.68 111.005 53.6 110.885 53.12C110.845 52.76 110.205 49.56 109.525 45.96C108.805 42.32 107.925 37.56 107.565 35.28C107.165 33.04 106.685 30.84 106.445 30.4C106.245 29.88 106.085 29 106.125 28.32C106.205 27.24 104.925 18.56 103.325 8.75996C102.685 4.91996 102.765 3.83996 103.685 3.27996C104.485 2.75996 106.045 2.75996 106.845 3.27996C108.285 4.07996 110.365 10.04 111.005 15.16C111.485 18.96 111.525 21.64 111.045 24.92C110.845 26.24 110.725 27.92 110.765 28.68C110.845 30.56 112.565 40.24 114.045 47.08C114.685 50.04 115.125 52.76 115.085 53C115.045 53.28 114.725 53.72 114.365 54.04C113.845 54.44 113.765 54.64 114.005 54.72C114.205 54.8 115.605 55.28 117.125 55.88C121.125 57.32 124.525 58.96 131.445 62.64C134.805 64.44 137.805 66 138.125 66.12C138.645 66.28 138.645 66.24 138.485 65.72C138.165 64.64 131.205 54.56 128.765 51.36C127.405 49.56 126.445 48 126.485 47.72C126.725 46.64 128.765 45.52 129.925 45.84C130.445 45.96 139.525 58.64 141.285 61.44C143.005 64.2 143.285 67.08 141.965 68.36C140.605 69.72 138.525 70 136.405 69.2C135.765 69 132.605 67.36 129.365 65.6C120.005 60.64 114.445 58.28 107.725 56.44C104.925 55.64 104.205 55.52 101.245 55.52C98.1653 55.48 97.9253 55.48 97.6453 54.92C97.2053 54.24 97.5253 53.48 98.6453 52.8C99.3653 52.36 99.9253 52.24 101.885 52.2ZM157.256 8.47996C157.536 8.63996 157.896 9.59996 158.136 10.72C158.536 12.52 158.536 12.64 158.056 13.32C157.616 14.04 157.576 14.28 157.816 18.16C158.256 25.6 159.856 37.76 160.456 37.96C160.656 38 160.896 37 161.216 34.8C162.176 28.12 165.056 14.48 166.136 11.44C166.776 9.51996 167.296 8.87996 168.376 8.47996C169.496 7.99996 170.336 7.99996 171.216 8.47996C172.776 9.31996 173.696 11.56 177.416 23.68C178.976 28.8 180.776 34.6 181.416 36.6C182.856 41.16 183.056 42.44 182.416 43.64C181.856 44.6 181.176 45.04 179.696 45.48C178.136 45.96 175.736 45.56 169.736 43.84C167.056 43.12 164.736 42.52 164.576 42.52C164.336 42.52 164.216 43.4 164.056 46.28C163.736 52.44 163.976 55 165.376 60.92C166.936 67.64 166.976 68.04 166.616 68.84C166.176 69.8 164.976 70.68 164.176 70.68C163.576 70.68 163.376 70.52 162.976 69.52C162.216 67.68 161.256 63.52 160.616 59.68C160.336 57.76 159.536 53.88 158.896 51C158.216 48.16 157.416 44.6 157.136 43.08L156.576 40.36L155.456 39.96C154.136 39.48 153.336 38.68 153.376 38C153.416 37.44 154.896 36.08 155.456 36.08C155.696 36.08 155.776 35.92 155.736 35.64C154.416 29.44 152.696 10.8 153.336 9.43996C153.856 8.31996 156.256 7.67996 157.256 8.47996ZM169.696 12.88C169.536 12.96 168.096 19.4 166.976 24.92C165.936 29.96 164.536 38.68 164.736 38.92C164.976 39.2 177.656 42.68 178.536 42.72C178.896 42.72 178.936 42.64 178.896 42.12C178.736 41.2 170.656 14.88 170.176 13.72C169.976 13.2 169.736 12.8 169.696 12.88ZM208.086 37.2L204.926 37.04L205.806 38C213.646 45.88 222.406 51.48 227.806 52.04C229.206 52.2 229.326 52.16 230.326 51.4C231.206 50.72 231.566 50.64 232.406 50.68C234.486 50.84 233.806 52.48 231.126 53.72C229.286 54.56 226.966 54.8 224.726 54.24C218.006 52.64 210.926 47.96 201.646 39L200.766 38.16L201.206 38.96C201.606 39.68 201.606 39.76 201.086 40.36C200.566 41 200.566 41.16 201.566 46.04C202.686 51.52 202.646 52.04 201.326 52.8C200.446 53.32 199.006 53.32 198.646 52.88C198.366 52.48 196.646 44.04 195.446 37.2C195.046 34.72 194.606 33.16 194.166 32.48C193.286 31.08 193.206 30.4 193.766 29.6C194.166 29.04 194.166 28.6 193.926 25.44C193.406 19.52 193.406 12.24 193.926 11.12C194.246 10.4 195.366 9.83996 196.526 9.75996C198.126 9.75996 198.486 10.28 198.806 13.08C199.206 16.36 199.166 17.32 198.566 17.72C198.326 17.88 198.046 18.32 198.006 18.6C197.806 19.52 198.366 27.8 198.606 27.56C198.646 27.56 199.206 25.72 199.846 23.56C202.326 15.36 204.766 9.51996 206.726 7.15996C208.966 4.47996 212.206 3.67996 214.846 5.15996C217.486 6.59996 220.086 12.08 221.446 18.84C222.206 22.8 222.366 25.72 221.926 28.64C221.486 32.04 220.846 33.32 218.846 34.88C216.526 36.72 213.206 37.44 208.086 37.2ZM205.446 19.8C204.406 22.96 201.846 31.84 201.606 33C201.486 33.72 205.926 34.52 210.726 34.56C213.486 34.56 214.246 34.52 215.166 34.12C216.646 33.48 217.326 32.4 217.766 30.12C218.446 26.6 217.966 21.44 216.486 16.32C215.046 11.24 212.806 7.15996 211.606 7.39996C210.126 7.67996 207.926 12.08 205.446 19.8ZM235.631 13.92C237.551 8.03996 242.311 5.63996 247.391 8.07996C248.991 8.83996 252.431 12.36 253.911 14.76C258.631 22.36 260.631 35.32 258.511 44.8C257.511 49.24 254.671 53.28 251.631 54.4C249.631 55.16 247.191 55.08 245.471 54.32C240.751 52.12 236.991 44.12 234.711 31.32C234.351 29.28 233.991 27.44 233.951 27.12C233.871 26.72 233.511 26.48 232.791 26.24C231.311 25.8 231.151 25.32 231.151 21.36C231.151 16.08 231.711 14.88 234.231 14.88C235.271 14.8 235.391 14.76 235.631 13.92ZM251.111 51.6C252.071 51 253.151 49.36 253.831 47.56C256.071 41.56 255.751 30.16 253.151 22.24C251.111 15.96 246.831 10.32 243.871 9.91996C243.031 9.79996 242.751 9.91996 241.951 10.6C239.911 12.36 238.511 16.72 238.791 20.48C239.111 25.68 242.031 32.96 245.911 38.32C247.511 40.6 247.671 40.96 247.431 41.48C247.151 42.2 246.231 42.64 245.151 42.64C244.351 42.64 242.951 41.24 241.591 39.04C241.071 38.16 240.591 37.6 240.551 37.76C240.351 38.28 242.271 43.84 243.431 46.16C244.631 48.56 246.431 50.84 247.791 51.64C248.791 52.24 250.151 52.24 251.111 51.6ZM273.482 13.68C274.122 15.16 276.802 20.64 279.442 25.92C285.962 39.04 289.322 46.64 292.002 54.4C296.562 67.52 296.482 74.32 291.602 78.72C288.082 81.84 283.122 83.36 275.762 83.52C273.562 83.56 271.402 83.56 270.962 83.52C262.162 82.4 254.202 79.12 251.962 75.64C251.042 74.2 250.922 73.28 251.402 72C252.282 69.76 255.562 67.6 260.842 65.92C265.522 64.4 272.722 63.2 275.602 63.56C278.042 63.8 278.762 64.32 278.242 65.24C277.842 66 276.962 66.16 274.922 65.92C269.122 65.08 256.682 68.68 254.882 71.68C254.682 72.04 254.482 72.72 254.482 73.2C254.482 73.96 254.682 74.2 255.922 75.44C258.322 77.72 262.842 79.64 268.482 80.76C270.722 81.2 271.722 81.28 275.882 81.28C281.402 81.28 282.882 80.96 286.202 79.36C289.242 77.88 291.122 75.76 291.762 72.92C292.122 71.4 292.082 67.64 291.682 65.32C290.642 59.48 287.762 51.32 282.922 40.64C280.322 34.92 275.682 25.6 275.562 25.92C275.482 26.2 276.082 29.04 276.682 31.12C277.042 32.24 277.322 32.76 277.842 33.12C279.202 34.08 278.202 35.36 276.082 35.36C273.362 35.36 272.762 33.92 270.842 22.8C270.402 20.16 269.642 16.6 269.242 14.84C268.202 10.8 268.202 10.52 269.242 10.04C270.202 9.67996 271.242 9.83996 271.802 10.52C272.082 10.76 272.802 12.2 273.482 13.68ZM301.195 46.68C299.795 47.32 297.955 47.4 297.395 46.8C296.555 45.92 296.995 44.64 299.115 41.84L300.275 40.32L299.795 37.88C298.995 33.44 298.875 32.28 298.995 26.96C299.075 20.88 299.595 17.12 300.875 12.84C302.835 6.27996 305.675 3.31996 310.355 3.15996C312.915 3.03996 314.515 3.59996 316.555 5.23996C318.155 6.39996 320.075 8.99996 321.035 11.08C322.235 13.76 323.395 19.04 323.435 22.36C323.435 22.92 323.475 23.52 323.515 23.68C323.675 24.48 322.915 25.24 317.595 29.44C314.395 32 310.195 35.48 308.315 37.2L304.835 40.4L305.115 41.44C305.595 43.2 307.555 46.56 309.235 48.4C311.875 51.24 314.755 52.28 317.235 51.04C319.555 49.92 322.675 45.56 324.315 41.08C324.675 40.16 325.475 37.28 326.075 34.76C326.795 31.8 327.395 30 327.715 29.64C328.275 29.04 329.475 28.48 330.075 28.48C330.635 28.48 331.555 29.48 331.395 29.88C331.315 30.08 330.795 32.08 330.235 34.36C328.315 41.88 326.115 46.48 322.555 50.36C320.995 51.96 318.275 53.92 316.595 54.48C314.955 55.04 312.155 55.12 310.675 54.56C308.115 53.6 305.315 50.92 303.395 47.68L302.435 46.04L301.195 46.68ZM310.115 5.99996C308.035 5.95996 305.435 10.56 303.955 16.84C303.155 20.32 302.715 30.24 303.235 33.64C303.395 34.96 303.635 36.2 303.675 36.36C303.755 36.6 304.595 36.04 306.075 34.72C307.355 33.6 310.315 31.16 312.635 29.36C318.515 24.76 319.275 24.04 318.995 23.48C318.875 23.24 318.635 21.84 318.475 20.44C318.075 17.12 317.035 13.36 315.955 11.32C314.355 8.43996 311.755 6.11996 310.115 5.99996ZM350.408 7.23996C349.608 6.31996 349.288 6.35996 348.208 7.87996C346.928 9.63996 346.208 11.24 345.448 14.04C342.368 25.04 344.488 40.24 350.008 46.8C352.408 49.64 355.088 50.56 357.648 49.32C359.768 48.28 361.128 46.08 363.768 39.4C364.648 37.12 365.608 35.04 365.848 34.72C366.128 34.44 366.848 34.04 367.448 33.88C368.408 33.6 368.568 33.6 369.088 34.2L369.648 34.76L368.008 38.88C364.728 46.84 362.248 50.32 358.168 52.44C356.608 53.28 355.968 53.48 354.088 53.56C352.128 53.6 351.648 53.56 350.368 52.88C346.368 50.88 343.488 46.6 341.528 39.52C340.208 34.76 339.648 30.48 339.728 24.96C339.888 12.04 343.608 3.83996 349.648 3.19996C351.568 2.99996 352.928 3.43996 354.248 4.79996C356.648 7.07996 357.728 11 357.808 17.48C357.848 20.16 357.768 21.96 357.568 22.28C356.808 23.68 354.368 24.2 353.408 23.16C353.008 22.76 352.928 21.96 352.928 19C352.888 13.2 351.968 8.95996 350.408 7.23996ZM377.767 11.2C378.767 12.72 378.767 12.72 382.167 13.84C383.287 14.16 384.367 14.52 385.447 14.84C390.047 16.12 397.047 17.32 401.767 16.44C404.367 15.92 407.047 14.4 407.607 11.6C407.647 11.16 407.687 10.72 407.647 10.28C407.527 7.83996 405.207 5.55996 402.847 5.19996C398.927 4.55996 395.407 5.63996 392.247 7.95996C391.407 8.59996 390.727 9.91996 390.607 9.99996C390.367 10.2 389.687 9.71996 389.527 9.55996C387.807 7.95996 389.047 6.03996 390.607 4.95996C393.127 3.23996 395.407 2.23996 398.487 1.95996C404.807 1.39996 409.367 3.43996 410.767 9.99996C412.167 22.96 392.127 19.76 384.687 18.12C382.167 17.44 380.047 16.92 379.967 16.92C379.927 16.92 380.007 17.16 380.127 17.44C380.247 17.76 380.567 18 380.767 18C380.967 18 381.327 18.28 381.567 18.6C382.167 19.36 381.647 20.32 380.207 21.16L379.167 21.72L379.847 24.04C382.767 34.6 384.407 41.8 385.087 47.16C385.367 49.16 385.327 49.4 384.847 50.2C384.367 50.96 382.967 51.92 382.327 51.92C382.207 51.92 381.887 51.8 381.647 51.52C381.327 51.36 381.087 50.24 380.887 48.44C380.727 46.96 380.287 44.2 379.927 42.32C379.287 39.12 378.607 36.56 374.407 21.28C373.447 17.88 372.647 14.92 372.607 14.72C372.527 14.32 366.887 12.36 365.967 12.36C364.207 12.36 364.327 14.92 366.167 16.32C366.607 16.72 368.287 17.64 369.847 18.32C371.407 19.04 372.807 19.88 372.927 20.08C373.327 20.84 372.687 22 371.607 22.44C369.967 23.08 369.087 22.88 365.847 21.28C361.407 19.12 359.527 17.04 359.767 14.48C360.167 10.24 365.127 8.07996 370.487 9.83996L372.367 10.4L373.687 9.83996C375.527 8.91996 376.447 9.23996 377.767 11.2ZM396.074 16.64C397.594 12.36 400.234 10.08 404.114 9.75996C406.674 9.59996 409.114 10.44 411.914 12.44L413.234 13.4L413.314 11.48C413.354 9.63996 413.394 9.51996 414.034 8.95996C414.474 8.63996 415.154 8.35996 415.874 8.27996C417.474 8.11996 418.074 8.79996 418.074 10.92C418.074 11.84 418.194 13.6 418.314 14.88C418.434 16.16 418.514 17.4 418.514 17.64C418.274 19.16 418.274 20.08 418.634 22C418.874 23.16 419.194 25.12 419.394 26.28C419.794 28.8 420.474 31.16 422.034 35.68C423.114 38.76 423.154 39 422.754 39.64C422.514 39.96 421.914 40.48 421.354 40.68C420.514 41.08 420.314 41.08 419.754 40.8C419.194 40.56 418.874 39.8 417.794 36.48C416.714 33.08 416.434 32.48 415.994 32.48C415.194 32.48 414.674 31.6 414.954 30.76C415.514 29.08 414.394 23.52 412.954 20.44C411.714 17.92 408.754 14.72 406.594 13.6C404.554 12.52 403.034 12.36 402.154 13.12C399.114 15.88 398.234 23.8 400.314 29.6C402.274 34.96 405.314 37.72 414.194 42.2C416.914 43.64 420.154 45.24 421.354 45.92C423.994 47.4 425.714 49.08 425.594 50.12C425.474 51.36 424.634 52.24 422.834 53.08C421.274 53.76 420.954 53.84 418.154 53.88C416.274 53.92 414.634 53.84 413.714 53.64C405.114 50.64 400.794 49.04 400.434 48.64C399.994 48.16 400.474 47.08 401.354 46.64C402.474 46.12 403.354 46.16 405.314 47C414.954 50.88 418.314 51.52 420.714 51.16L421.914 50.96L421.234 50.28C420.074 49.16 417.594 47.72 411.834 44.88C405.794 41.88 403.594 40.48 401.314 38.32C397.834 35 395.674 30.32 395.154 24.92C394.954 22.88 395.434 18.32 396.074 16.64Z" fill="#F0F0F0"/>
</svg>
