<svg width="413" height="96" viewBox="0 0 413 96" fill="none" xmlns="http://www.w3.org/2000/svg">
<path d="M54.1643 55.9647H48.5138V69.6911H46.9504V55.9647H41.3V54.6514H54.1643V55.9647Z" fill="white"/>
<path d="M54.1643 55.9647H48.5138V69.6911H46.9504V55.9647H41.3V54.6514H54.1643V55.9647Z" fill="white"/>
<path d="M61.1551 69.6911V54.6514H67.8553C68.5402 54.6514 69.1655 54.7855 69.7313 55.0538C70.2971 55.3222 70.7884 55.6893 71.2053 56.1553C71.6371 56.6072 71.9647 57.1156 72.188 57.6805C72.4262 58.2312 72.5454 58.7961 72.5454 59.3751C72.5454 60.0953 72.3965 60.7732 72.0987 61.4087C71.8158 62.0441 71.4063 62.5808 70.8703 63.0185C70.3492 63.4563 69.7313 63.7458 69.0166 63.887L72.9027 69.6911H71.1383L67.4086 64.1412H62.7185V69.6911H61.1551ZM62.7185 62.8279H67.8999C68.5253 62.8279 69.0687 62.6655 69.5303 62.3407C69.9919 62.0159 70.3492 61.5922 70.6023 61.0697C70.8554 60.5331 70.982 59.9682 70.982 59.3751C70.982 58.7679 70.8331 58.2101 70.5353 57.7017C70.2524 57.1792 69.8653 56.7626 69.374 56.4519C68.8975 56.1271 68.3615 55.9647 67.7659 55.9647H62.7185V62.8279Z" fill="white"/>
<path d="M61.1551 69.6911V54.6514H67.8553C68.5402 54.6514 69.1655 54.7855 69.7313 55.0538C70.2971 55.3222 70.7884 55.6893 71.2053 56.1553C71.6371 56.6072 71.9647 57.1156 72.188 57.6805C72.4262 58.2312 72.5454 58.7961 72.5454 59.3751C72.5454 60.0953 72.3965 60.7732 72.0987 61.4087C71.8158 62.0441 71.4063 62.5808 70.8703 63.0185C70.3492 63.4563 69.7313 63.7458 69.0166 63.887L72.9027 69.6911H71.1383L67.4086 64.1412H62.7185V69.6911H61.1551ZM62.7185 62.8279H67.8999C68.5253 62.8279 69.0687 62.6655 69.5303 62.3407C69.9919 62.0159 70.3492 61.5922 70.6023 61.0697C70.8554 60.5331 70.982 59.9682 70.982 59.3751C70.982 58.7679 70.8331 58.2101 70.5353 57.7017C70.2524 57.1792 69.8653 56.7626 69.374 56.4519C68.8975 56.1271 68.3615 55.9647 67.7659 55.9647H62.7185V62.8279Z" fill="white"/>
<path d="M85.2099 54.6514H86.5276L93.1161 69.6911H91.4634L89.4087 64.9885H82.2842L80.2518 69.6911H78.5768L85.2099 54.6514ZM89.0513 63.8235L85.8576 56.3884L82.6192 63.8235H89.0513Z" fill="white"/>
<path d="M85.2099 54.6514H86.5276L93.1161 69.6911H91.4634L89.4087 64.9885H82.2842L80.2518 69.6911H78.5768L85.2099 54.6514ZM89.0513 63.8235L85.8576 56.3884L82.6192 63.8235H89.0513Z" fill="white"/>
<path d="M101.568 57.3839V69.6911H100.005V54.6514H101.3L111.708 67.1915V54.6726H113.271V69.6911H111.819L101.568 57.3839Z" fill="white"/>
<path d="M101.568 57.3839V69.6911H100.005V54.6514H101.3L111.708 67.1915V54.6726H113.271V69.6911H111.819L101.568 57.3839Z" fill="white"/>
<path d="M131.141 57.4687C130.918 57.2286 130.657 57.0168 130.359 56.8332C130.062 56.6355 129.727 56.466 129.354 56.3248C128.982 56.1836 128.58 56.0706 128.148 55.9859C127.731 55.9011 127.285 55.8588 126.808 55.8588C125.424 55.8588 124.404 56.113 123.749 56.6214C123.108 57.1156 122.788 57.7935 122.788 58.6549C122.788 59.248 122.937 59.714 123.235 60.053C123.548 60.3919 124.031 60.6673 124.687 60.8791C125.342 61.0909 126.175 61.3098 127.188 61.5357C128.32 61.7617 129.295 62.03 130.114 62.3407C130.933 62.6514 131.565 63.075 132.012 63.6117C132.459 64.1342 132.682 64.8473 132.682 65.7511C132.682 66.4431 132.541 67.0433 132.258 67.5516C131.975 68.06 131.58 68.4837 131.074 68.8226C130.568 69.1615 129.965 69.4157 129.265 69.5852C128.565 69.7405 127.798 69.8182 126.965 69.8182C126.146 69.8182 125.357 69.7405 124.597 69.5852C123.853 69.4157 123.146 69.1756 122.476 68.865C121.805 68.5402 121.18 68.1306 120.599 67.6364L121.381 66.429C121.664 66.7114 121.999 66.9797 122.386 67.2339C122.788 67.474 123.227 67.6929 123.704 67.8906C124.195 68.0883 124.716 68.2436 125.267 68.3566C125.833 68.4554 126.414 68.5049 127.009 68.5049C128.275 68.5049 129.258 68.286 129.957 67.8482C130.672 67.4104 131.029 66.7608 131.029 65.8994C131.029 65.278 130.851 64.7838 130.493 64.4166C130.136 64.0353 129.6 63.7246 128.885 63.4846C128.171 63.2445 127.292 63.0115 126.25 62.7855C125.148 62.5455 124.218 62.2771 123.458 61.9806C122.699 61.684 122.126 61.2957 121.738 60.8155C121.366 60.3213 121.18 59.6717 121.18 58.8667C121.18 57.9347 121.418 57.1509 121.895 56.5154C122.386 55.8658 123.056 55.3786 123.905 55.0538C124.754 54.7149 125.729 54.5455 126.831 54.5455C127.53 54.5455 128.178 54.6161 128.774 54.7573C129.384 54.8844 129.942 55.075 130.449 55.3292C130.97 55.5834 131.454 55.9011 131.9 56.2824L131.141 57.4687Z" fill="white"/>
<path d="M131.141 57.4687C130.918 57.2286 130.657 57.0168 130.359 56.8332C130.062 56.6355 129.727 56.466 129.354 56.3248C128.982 56.1836 128.58 56.0706 128.148 55.9859C127.731 55.9011 127.285 55.8588 126.808 55.8588C125.424 55.8588 124.404 56.113 123.749 56.6214C123.108 57.1156 122.788 57.7935 122.788 58.6549C122.788 59.248 122.937 59.714 123.235 60.053C123.548 60.3919 124.031 60.6673 124.687 60.8791C125.342 61.0909 126.175 61.3098 127.188 61.5357C128.32 61.7617 129.295 62.03 130.114 62.3407C130.933 62.6514 131.565 63.075 132.012 63.6117C132.459 64.1342 132.682 64.8473 132.682 65.7511C132.682 66.4431 132.541 67.0433 132.258 67.5516C131.975 68.06 131.58 68.4837 131.074 68.8226C130.568 69.1615 129.965 69.4157 129.265 69.5852C128.565 69.7405 127.798 69.8182 126.965 69.8182C126.146 69.8182 125.357 69.7405 124.597 69.5852C123.853 69.4157 123.146 69.1756 122.476 68.865C121.805 68.5402 121.18 68.1306 120.599 67.6364L121.381 66.429C121.664 66.7114 121.999 66.9797 122.386 67.2339C122.788 67.474 123.227 67.6929 123.704 67.8906C124.195 68.0883 124.716 68.2436 125.267 68.3566C125.833 68.4554 126.414 68.5049 127.009 68.5049C128.275 68.5049 129.258 68.286 129.957 67.8482C130.672 67.4104 131.029 66.7608 131.029 65.8994C131.029 65.278 130.851 64.7838 130.493 64.4166C130.136 64.0353 129.6 63.7246 128.885 63.4846C128.171 63.2445 127.292 63.0115 126.25 62.7855C125.148 62.5455 124.218 62.2771 123.458 61.9806C122.699 61.684 122.126 61.2957 121.738 60.8155C121.366 60.3213 121.18 59.6717 121.18 58.8667C121.18 57.9347 121.418 57.1509 121.895 56.5154C122.386 55.8658 123.056 55.3786 123.905 55.0538C124.754 54.7149 125.729 54.5455 126.831 54.5455C127.53 54.5455 128.178 54.6161 128.774 54.7573C129.384 54.8844 129.942 55.075 130.449 55.3292C130.97 55.5834 131.454 55.9011 131.9 56.2824L131.141 57.4687Z" fill="white"/>
<path d="M140.054 69.6911V54.6514H141.618V68.3778H150.774V69.6911H140.054Z" fill="white"/>
<path d="M140.054 69.6911V54.6514H141.618V68.3778H150.774V69.6911H140.054Z" fill="white"/>
<path d="M162.604 54.6514H163.922L170.51 69.6911H168.857L166.803 64.9885H159.678L157.646 69.6911H155.971L162.604 54.6514ZM166.445 63.8235L163.252 56.3884L160.013 63.8235H166.445Z" fill="white"/>
<path d="M162.604 54.6514H163.922L170.51 69.6911H168.857L166.803 64.9885H159.678L157.646 69.6911H155.971L162.604 54.6514ZM166.445 63.8235L163.252 56.3884L160.013 63.8235H166.445Z" fill="white"/>
<path d="M187.128 55.9647H181.478V69.6911H179.915V55.9647H174.264V54.6514H187.128V55.9647Z" fill="white"/>
<path d="M187.128 55.9647H181.478V69.6911H179.915V55.9647H174.264V54.6514H187.128V55.9647Z" fill="white"/>
<path d="M194.119 69.6911V54.6514H195.683V69.6911H194.119Z" fill="white"/>
<path d="M194.119 69.6911V54.6514H195.683V69.6911H194.119Z" fill="white"/>
<path d="M210.662 69.797C209.546 69.797 208.533 69.5852 207.625 69.1615C206.717 68.7379 205.935 68.1659 205.28 67.4457C204.625 66.7114 204.119 65.8923 203.761 64.9885C203.404 64.0706 203.225 63.1315 203.225 62.1712C203.225 61.1686 203.411 60.2154 203.784 59.3116C204.156 58.3936 204.677 57.5816 205.347 56.8756C206.032 56.1553 206.828 55.5905 207.737 55.1809C208.645 54.7573 209.628 54.5455 210.685 54.5455C211.801 54.5455 212.814 54.7643 213.722 55.2021C214.63 55.6399 215.405 56.2259 216.045 56.9603C216.7 57.6946 217.206 58.5137 217.563 59.4175C217.921 60.3213 218.099 61.2463 218.099 62.1924C218.099 63.1951 217.913 64.1553 217.541 65.0733C217.169 65.9771 216.648 66.7891 215.978 67.5093C215.308 68.2154 214.519 68.7732 213.61 69.1827C212.702 69.5922 211.719 69.797 210.662 69.797ZM204.789 62.1712C204.789 62.9903 204.93 63.7811 205.213 64.5437C205.496 65.2921 205.898 65.9629 206.419 66.556C206.94 67.135 207.558 67.6011 208.273 67.9541C209.002 68.293 209.799 68.4625 210.662 68.4625C211.571 68.4625 212.382 68.286 213.097 67.9329C213.826 67.5658 214.444 67.0856 214.95 66.4925C215.472 65.8853 215.866 65.2074 216.134 64.459C216.402 63.7105 216.536 62.9479 216.536 62.1712C216.536 61.3522 216.395 60.5684 216.112 59.82C215.829 59.0715 215.419 58.4007 214.883 57.8076C214.362 57.2145 213.744 56.7485 213.03 56.4095C212.315 56.0706 211.526 55.9011 210.662 55.9011C209.769 55.9011 208.957 56.0777 208.228 56.4307C207.513 56.7838 206.895 57.2639 206.374 57.8711C205.868 58.4643 205.473 59.135 205.191 59.8835C204.923 60.632 204.789 61.3945 204.789 62.1712Z" fill="white"/>
<path d="M210.662 69.797C209.546 69.797 208.533 69.5852 207.625 69.1615C206.717 68.7379 205.935 68.1659 205.28 67.4457C204.625 66.7114 204.119 65.8923 203.761 64.9885C203.404 64.0706 203.225 63.1315 203.225 62.1712C203.225 61.1686 203.411 60.2154 203.784 59.3116C204.156 58.3936 204.677 57.5816 205.347 56.8756C206.032 56.1553 206.828 55.5905 207.737 55.1809C208.645 54.7573 209.628 54.5455 210.685 54.5455C211.801 54.5455 212.814 54.7643 213.722 55.2021C214.63 55.6399 215.405 56.2259 216.045 56.9603C216.7 57.6946 217.206 58.5137 217.563 59.4175C217.921 60.3213 218.099 61.2463 218.099 62.1924C218.099 63.1951 217.913 64.1553 217.541 65.0733C217.169 65.9771 216.648 66.7891 215.978 67.5093C215.308 68.2154 214.519 68.7732 213.61 69.1827C212.702 69.5922 211.719 69.797 210.662 69.797ZM204.789 62.1712C204.789 62.9903 204.93 63.7811 205.213 64.5437C205.496 65.2921 205.898 65.9629 206.419 66.556C206.94 67.135 207.558 67.6011 208.273 67.9541C209.002 68.293 209.799 68.4625 210.662 68.4625C211.571 68.4625 212.382 68.286 213.097 67.9329C213.826 67.5658 214.444 67.0856 214.95 66.4925C215.472 65.8853 215.866 65.2074 216.134 64.459C216.402 63.7105 216.536 62.9479 216.536 62.1712C216.536 61.3522 216.395 60.5684 216.112 59.82C215.829 59.0715 215.419 58.4007 214.883 57.8076C214.362 57.2145 213.744 56.7485 213.03 56.4095C212.315 56.0706 211.526 55.9011 210.662 55.9011C209.769 55.9011 208.957 56.0777 208.228 56.4307C207.513 56.7838 206.895 57.2639 206.374 57.8711C205.868 58.4643 205.473 59.135 205.191 59.8835C204.923 60.632 204.789 61.3945 204.789 62.1712Z" fill="white"/>
<path d="M227.226 57.3839V69.6911H225.663V54.6514H226.958L237.366 67.1915V54.6726H238.929V69.6911H237.477L227.226 57.3839Z" fill="white"/>
<path d="M227.226 57.3839V69.6911H225.663V54.6514H226.958L237.366 67.1915V54.6726H238.929V69.6911H237.477L227.226 57.3839Z" fill="white"/>
<path d="M271.591 54.6514H272.909L279.497 69.6911H277.845L275.79 64.9885H268.666L266.633 69.6911H264.958L271.591 54.6514ZM275.433 63.8235L272.239 56.3884L269.001 63.8235H275.433Z" fill="white"/>
<path d="M271.591 54.6514H272.909L279.497 69.6911H277.845L275.79 64.9885H268.666L266.633 69.6911H264.958L271.591 54.6514ZM275.433 63.8235L272.239 56.3884L269.001 63.8235H275.433Z" fill="white"/>
<path d="M292.162 69.797C291.105 69.797 290.123 69.5852 289.214 69.1615C288.306 68.7237 287.517 68.1377 286.847 67.4034C286.177 66.669 285.656 65.85 285.284 64.9462C284.926 64.0424 284.748 63.1103 284.748 62.15C284.748 61.1333 284.926 60.173 285.284 59.2692C285.656 58.3513 286.17 57.5393 286.825 56.8332C287.48 56.1271 288.254 55.5693 289.147 55.1598C290.041 54.7502 291.016 54.5455 292.073 54.5455C293.636 54.5455 294.91 54.8491 295.892 55.4563C296.875 56.0636 297.619 56.8544 298.126 57.8288L296.92 58.5914C296.413 57.6593 295.736 56.9744 294.887 56.5366C294.038 56.0989 293.093 55.88 292.051 55.88C291.172 55.88 290.376 56.0565 289.661 56.4095C288.961 56.7626 288.358 57.2357 287.852 57.8288C287.346 58.4219 286.959 59.0927 286.691 59.8411C286.438 60.5896 286.311 61.3663 286.311 62.1712C286.311 63.0185 286.46 63.8235 286.758 64.5861C287.055 65.3345 287.48 66.0053 288.031 66.5984C288.582 67.1774 289.214 67.6364 289.929 67.9753C290.659 68.3001 291.44 68.4625 292.274 68.4625C293.242 68.4625 294.158 68.2365 295.021 67.7846C295.885 67.3186 296.711 66.6055 297.5 65.6452V67.2127C295.996 68.9356 294.217 69.797 292.162 69.797ZM297.255 63.4422H293.726V62.2983H298.572V69.6911H297.255V63.4422Z" fill="white"/>
<path d="M292.162 69.797C291.105 69.797 290.123 69.5852 289.214 69.1615C288.306 68.7237 287.517 68.1377 286.847 67.4034C286.177 66.669 285.656 65.85 285.284 64.9462C284.926 64.0424 284.748 63.1103 284.748 62.15C284.748 61.1333 284.926 60.173 285.284 59.2692C285.656 58.3513 286.17 57.5393 286.825 56.8332C287.48 56.1271 288.254 55.5693 289.147 55.1598C290.041 54.7502 291.016 54.5455 292.073 54.5455C293.636 54.5455 294.91 54.8491 295.892 55.4563C296.875 56.0636 297.619 56.8544 298.126 57.8288L296.92 58.5914C296.413 57.6593 295.736 56.9744 294.887 56.5366C294.038 56.0989 293.093 55.88 292.051 55.88C291.172 55.88 290.376 56.0565 289.661 56.4095C288.961 56.7626 288.358 57.2357 287.852 57.8288C287.346 58.4219 286.959 59.0927 286.691 59.8411C286.438 60.5896 286.311 61.3663 286.311 62.1712C286.311 63.0185 286.46 63.8235 286.758 64.5861C287.055 65.3345 287.48 66.0053 288.031 66.5984C288.582 67.1774 289.214 67.6364 289.929 67.9753C290.659 68.3001 291.44 68.4625 292.274 68.4625C293.242 68.4625 294.158 68.2365 295.021 67.7846C295.885 67.3186 296.711 66.6055 297.5 65.6452V67.2127C295.996 68.9356 294.217 69.797 292.162 69.797ZM297.255 63.4422H293.726V62.2983H298.572V69.6911H297.255V63.4422Z" fill="white"/>
<path d="M317.053 68.3778V69.6911H306.4V54.6514H316.852V55.9647H307.963V61.3875H315.713V62.6372H307.963V68.3778H317.053Z" fill="white"/>
<path d="M317.053 68.3778V69.6911H306.4V54.6514H316.852V55.9647H307.963V61.3875H315.713V62.6372H307.963V68.3778H317.053Z" fill="white"/>
<path d="M326.189 57.3839V69.6911H324.625V54.6514H325.921L336.328 67.1915V54.6726H337.892V69.6911H336.44L326.189 57.3839Z" fill="white"/>
<path d="M326.189 57.3839V69.6911H324.625V54.6514H325.921L336.328 67.1915V54.6726H337.892V69.6911H336.44L326.189 57.3839Z" fill="white"/>
<path d="M345.443 62.0653C345.443 61.1474 345.607 60.2507 345.935 59.3751C346.277 58.4854 346.768 57.6805 347.409 56.9603C348.049 56.2259 348.838 55.647 349.776 55.2233C350.714 54.7855 351.779 54.5666 352.97 54.5666C354.384 54.5666 355.59 54.8773 356.588 55.4987C357.6 56.1059 358.345 56.8897 358.821 57.85L357.593 58.5702C357.25 57.9064 356.819 57.3839 356.297 57.0027C355.776 56.6072 355.218 56.3248 354.622 56.1553C354.042 55.9859 353.461 55.9011 352.88 55.9011C351.927 55.9011 351.086 56.0847 350.357 56.4519C349.627 56.8049 349.009 57.2851 348.503 57.8923C348.012 58.4854 347.639 59.1562 347.386 59.9047C347.133 60.639 347.007 61.3875 347.007 62.15C347.007 62.9832 347.155 63.7811 347.453 64.5437C347.751 65.3063 348.168 65.9841 348.704 66.5772C349.24 67.1562 349.865 67.6222 350.58 67.9753C351.31 68.3142 352.099 68.4837 352.947 68.4837C353.543 68.4837 354.153 68.3848 354.779 68.1871C355.404 67.9894 355.985 67.6858 356.521 67.2763C357.072 66.8667 357.511 66.3372 357.838 65.6876L359.134 66.323C358.806 67.0715 358.3 67.707 357.615 68.2295C356.93 68.752 356.163 69.1474 355.315 69.4157C354.481 69.684 353.662 69.8182 352.858 69.8182C351.771 69.8182 350.774 69.5993 349.865 69.1615C348.957 68.7096 348.168 68.1165 347.498 67.3822C346.843 66.6337 346.337 65.8005 345.979 64.8826C345.622 63.9506 345.443 63.0115 345.443 62.0653Z" fill="white"/>
<path d="M345.443 62.0653C345.443 61.1474 345.607 60.2507 345.935 59.3751C346.277 58.4854 346.768 57.6805 347.409 56.9603C348.049 56.2259 348.838 55.647 349.776 55.2233C350.714 54.7855 351.779 54.5666 352.97 54.5666C354.384 54.5666 355.59 54.8773 356.588 55.4987C357.6 56.1059 358.345 56.8897 358.821 57.85L357.593 58.5702C357.25 57.9064 356.819 57.3839 356.297 57.0027C355.776 56.6072 355.218 56.3248 354.622 56.1553C354.042 55.9859 353.461 55.9011 352.88 55.9011C351.927 55.9011 351.086 56.0847 350.357 56.4519C349.627 56.8049 349.009 57.2851 348.503 57.8923C348.012 58.4854 347.639 59.1562 347.386 59.9047C347.133 60.639 347.007 61.3875 347.007 62.15C347.007 62.9832 347.155 63.7811 347.453 64.5437C347.751 65.3063 348.168 65.9841 348.704 66.5772C349.24 67.1562 349.865 67.6222 350.58 67.9753C351.31 68.3142 352.099 68.4837 352.947 68.4837C353.543 68.4837 354.153 68.3848 354.779 68.1871C355.404 67.9894 355.985 67.6858 356.521 67.2763C357.072 66.8667 357.511 66.3372 357.838 65.6876L359.134 66.323C358.806 67.0715 358.3 67.707 357.615 68.2295C356.93 68.752 356.163 69.1474 355.315 69.4157C354.481 69.684 353.662 69.8182 352.858 69.8182C351.771 69.8182 350.774 69.5993 349.865 69.1615C348.957 68.7096 348.168 68.1165 347.498 67.3822C346.843 66.6337 346.337 65.8005 345.979 64.8826C345.622 63.9506 345.443 63.0115 345.443 62.0653Z" fill="white"/>
<path d="M366.116 54.6514L371.298 62.7432L376.524 54.6514H378.221L372.079 64.0989V69.6911H370.516V64.0565L364.396 54.6514H366.116Z" fill="white"/>
<path d="M366.116 54.6514L371.298 62.7432L376.524 54.6514H378.221L372.079 64.0989V69.6911H370.516V64.0565L364.396 54.6514H366.116Z" fill="white"/>
<path d="M0 96V26.1818H6.65691V89.9032H45.6474V96H0Z" fill="#38B4D5"/>
<path d="M413 96V26.1818H406.343V89.9032H367.353V96H413Z" fill="#38B4D5"/>
<path d="M41.3 41.0526V0.287081H47.8366V35.3684H70.0726V41.0526H41.3Z" fill="#38B4D5"/>
<path d="M80.2073 41.0526V0.287081H86.7439V41.0526H80.2073Z" fill="#38B4D5"/>
<path d="M107.47 12.2297V41.0526H100.933V0.287081H106.303L129.764 29.7416V0.344497H136.359V41.0526H130.64L107.47 12.2297Z" fill="#38B4D5"/>
<path d="M167.424 41.3397C164.7 41.3397 162.152 40.7847 159.778 39.6746C157.405 38.5646 155.323 37.0335 153.534 35.0813C151.783 33.1292 150.401 30.9091 149.39 28.4211C148.417 25.933 147.931 23.2919 147.931 20.4976C147.931 17.7034 148.417 15.0813 149.39 12.6316C150.401 10.1818 151.783 8 153.534 6.08612C155.323 4.17225 157.405 2.67943 159.778 1.60766C162.191 0.535885 164.817 0 167.657 0C171.587 0 174.894 0.822966 177.579 2.4689C180.302 4.07655 182.345 6.2201 183.707 8.89952L178.688 12.4593C177.598 10.2392 176.042 8.57416 174.019 7.46411C172.034 6.35407 169.855 5.79904 167.482 5.79904C165.537 5.79904 163.766 6.20096 162.171 7.00478C160.576 7.80861 159.195 8.91866 158.027 10.3349C156.899 11.7129 156.043 13.3014 155.459 15.1005C154.876 16.8612 154.584 18.7177 154.584 20.6699C154.584 22.7368 154.915 24.6699 155.576 26.4689C156.238 28.2679 157.171 29.8565 158.378 31.2345C159.584 32.5742 161.004 33.6268 162.638 34.3923C164.272 35.1579 166.042 35.5407 167.949 35.5407C170.206 35.5407 172.346 34.9856 174.369 33.8756C176.431 32.7273 178.357 31.0239 180.147 28.7655V35.311C176.528 39.3301 172.287 41.3397 167.424 41.3397ZM179.505 25.2057H170.809V20.4402H184.991V41.0526H179.505V25.2057Z" fill="#38B4D5"/>
<path d="M198.473 0.287081L210.962 33.1866L223.393 0.287081H230.338L214.055 41.0526H207.869L191.528 0.287081H198.473Z" fill="#38B4D5"/>
<path d="M240.225 41.0526V0.287081H246.762V41.0526H240.225Z" fill="#38B4D5"/>
<path d="M285.463 9.8756C285.074 9.45455 284.51 9.01435 283.771 8.55502C283.032 8.05742 282.156 7.59808 281.145 7.17703C280.133 6.75598 279.044 6.41148 277.876 6.14354C276.709 5.8756 275.503 5.74163 274.258 5.74163C271.534 5.74163 269.511 6.23923 268.188 7.23445C266.865 8.22966 266.204 9.60766 266.204 11.3684C266.204 12.6699 266.573 13.7033 267.313 14.4689C268.052 15.1962 269.18 15.8086 270.698 16.3062C272.215 16.8038 274.122 17.3397 276.417 17.9139C279.219 18.5646 281.65 19.3493 283.713 20.2679C285.775 21.1483 287.35 22.3349 288.44 23.8278C289.529 25.3206 290.074 27.2919 290.074 29.7416C290.074 31.8086 289.685 33.5885 288.907 35.0813C288.129 36.5742 287.039 37.799 285.638 38.756C284.238 39.6746 282.623 40.3636 280.794 40.823C278.966 41.244 277.001 41.4545 274.9 41.4545C272.838 41.4545 270.776 41.244 268.713 40.823C266.69 40.4019 264.745 39.7895 262.877 38.9856C261.048 38.1435 259.356 37.1292 257.8 35.9426L260.776 30.4306C261.282 30.9282 262.002 31.4833 262.936 32.0957C263.908 32.6699 265.017 33.2249 266.262 33.7608C267.546 34.2967 268.927 34.756 270.406 35.1388C271.923 35.4833 273.46 35.6555 275.017 35.6555C277.623 35.6555 279.608 35.2153 280.969 34.3349C282.37 33.4163 283.071 32.1148 283.071 30.4306C283.071 29.0526 282.623 27.9617 281.728 27.1579C280.833 26.3158 279.53 25.6077 277.818 25.0335C276.106 24.4593 274.063 23.8852 271.69 23.311C268.966 22.5837 266.69 21.799 264.861 20.9569C263.033 20.0766 261.652 18.9665 260.718 17.6268C259.823 16.2488 259.375 14.5072 259.375 12.4019C259.375 9.72249 260.037 7.46412 261.36 5.62679C262.683 3.7512 264.472 2.35407 266.729 1.43541C269.025 0.478468 271.593 0 274.433 0C276.3 0 278.071 0.210526 279.744 0.631578C281.417 1.01435 282.973 1.55024 284.413 2.23923C285.891 2.92823 287.234 3.71292 288.44 4.5933L285.463 9.8756Z" fill="#38B4D5"/>
<path d="M331.861 5.97129H318.088V41.0526H311.493V5.97129H297.661V0.287081H331.861V5.97129Z" fill="#38B4D5"/>
<path d="M358.319 41.3397C355.324 41.3397 352.619 40.7655 350.207 39.6172C347.795 38.4689 345.713 36.9187 343.962 34.9665C342.211 32.9761 340.85 30.756 339.877 28.3062C338.943 25.8182 338.476 23.2727 338.476 20.6699C338.476 17.9522 338.982 15.3684 339.994 12.9187C341.005 10.4306 342.406 8.22967 344.196 6.31579C345.986 4.36364 348.087 2.83254 350.499 1.72249C352.95 0.574162 355.596 0 358.436 0C361.393 0 364.078 0.593302 366.49 1.77991C368.941 2.96651 371.023 4.55502 372.735 6.54546C374.486 8.53588 375.828 10.756 376.762 13.2057C377.735 15.6555 378.221 18.1627 378.221 20.7273C378.221 23.445 377.715 26.0478 376.704 28.5359C375.731 30.9856 374.35 33.1866 372.56 35.1388C370.77 37.0526 368.65 38.5646 366.198 39.6746C363.786 40.7847 361.16 41.3397 358.319 41.3397ZM345.13 20.6699C345.13 22.5837 345.441 24.4402 346.063 26.2392C346.686 28.0383 347.561 29.6459 348.69 31.0622C349.857 32.4402 351.258 33.5311 352.892 34.3349C354.526 35.1388 356.355 35.5407 358.378 35.5407C360.479 35.5407 362.346 35.1196 363.981 34.2775C365.615 33.4354 366.977 32.3062 368.066 30.89C369.194 29.4354 370.05 27.8278 370.634 26.067C371.218 24.2679 371.509 22.4689 371.509 20.6699C371.509 18.756 371.198 16.9187 370.576 15.1579C369.992 13.3589 369.117 11.7703 367.949 10.3923C366.782 8.97608 365.381 7.86603 363.747 7.0622C362.152 6.25837 360.362 5.85646 358.378 5.85646C356.277 5.85646 354.409 6.27751 352.775 7.11962C351.141 7.96172 349.76 9.09091 348.631 10.5072C347.503 11.9234 346.628 13.512 346.005 15.2727C345.421 17.0335 345.13 18.8325 345.13 20.6699Z" fill="#38B4D5"/>
</svg>
