<svg width="777" height="259" viewBox="0 0 777 259" fill="none" xmlns="http://www.w3.org/2000/svg">
<g filter="url(#filter0_d_211_2)">
<path d="M25.792 36.3359C26.688 36.8479 27.84 39.9199 28.608 43.5039C29.888 49.2639 29.888 49.6479 28.352 51.8239C26.944 54.1279 26.816 54.8959 27.584 67.3119C28.992 91.1199 34.112 130.032 36.032 130.672C36.672 130.8 37.44 127.6 38.464 120.56C41.536 99.1839 50.752 55.5359 54.208 45.8079C56.256 39.6639 57.92 37.6159 61.376 36.3359C64.96 34.7999 67.648 34.7999 70.464 36.3359C75.456 39.0239 78.4 46.1919 90.304 84.9759C95.296 101.36 101.056 119.92 103.104 126.32C107.712 140.912 108.352 145.008 106.304 148.848C104.512 151.92 102.336 153.328 97.6 154.736C92.608 156.272 84.928 154.992 65.728 149.488C57.152 147.184 49.728 145.264 49.216 145.264C48.448 145.264 48.064 148.08 47.552 157.296C46.528 177.008 47.296 185.2 51.776 204.144C56.768 225.648 56.896 226.928 55.744 229.488C54.336 232.56 50.496 235.376 47.936 235.376C46.016 235.376 45.376 234.864 44.096 231.664C41.664 225.776 38.592 212.464 36.544 200.176C35.648 194.032 33.088 181.616 31.04 172.4C28.864 163.312 26.304 151.92 25.408 147.056L23.616 138.352L20.032 137.072C15.808 135.536 13.248 132.976 13.376 130.8C13.504 129.008 18.24 124.656 20.032 124.656C20.8 124.656 21.056 124.144 20.928 123.248C16.704 103.408 11.2 43.7599 13.248 39.4079C14.912 35.8239 22.592 33.7759 25.792 36.3359ZM65.6 50.4159C65.088 50.6719 60.48 71.2799 56.896 88.9439C53.568 105.072 49.088 132.976 49.728 133.744C50.496 134.64 91.072 145.776 93.888 145.904C95.04 145.904 95.168 145.648 95.04 143.984C94.528 141.04 68.672 56.8159 67.136 53.1039C66.496 51.4399 65.728 50.1599 65.6 50.4159ZM126.112 53.7439C132.256 34.9279 147.488 27.2479 163.744 35.0559C168.864 37.4879 179.872 48.7519 184.608 56.4319C199.712 80.7519 206.112 122.224 199.328 152.56C196.128 166.768 187.04 179.696 177.312 183.28C170.912 185.712 163.104 185.456 157.6 183.024C142.496 175.984 130.464 150.384 123.168 109.424C122.016 102.896 120.864 97.0079 120.736 95.9839C120.48 94.7039 119.328 93.9359 117.024 93.1679C112.288 91.7599 111.776 90.2239 111.776 77.5519C111.776 60.6559 113.568 56.8159 121.632 56.8159C124.96 56.5599 125.344 56.4319 126.112 53.7439ZM175.648 174.32C178.72 172.4 182.176 167.152 184.352 161.392C191.52 142.192 190.496 105.712 182.176 80.3679C175.648 60.2719 161.952 42.2239 152.48 40.9439C149.792 40.5599 148.896 40.9439 146.336 43.1199C139.808 48.7519 135.328 62.7039 136.224 74.7359C137.248 91.3759 146.592 114.672 159.008 131.824C164.128 139.12 164.64 140.272 163.872 141.936C162.976 144.24 160.032 145.648 156.576 145.648C154.016 145.648 149.536 141.168 145.184 134.128C143.52 131.312 141.984 129.52 141.856 130.032C141.216 131.696 147.36 149.488 151.072 156.912C154.912 164.592 160.672 171.888 165.024 174.448C168.224 176.368 172.576 176.368 175.648 174.32ZM271.043 128.24L260.931 127.728L263.747 130.8C288.835 156.016 316.867 173.936 334.147 175.728C338.627 176.24 339.011 176.112 342.211 173.68C345.027 171.504 346.179 171.248 348.867 171.376C355.523 171.888 353.347 177.136 344.771 181.104C338.883 183.792 331.459 184.56 324.291 182.768C302.787 177.648 280.131 162.672 250.435 134L247.619 131.312L249.027 133.872C250.307 136.176 250.307 136.432 248.643 138.352C246.979 140.4 246.979 140.912 250.179 156.528C253.763 174.064 253.635 175.728 249.411 178.16C246.595 179.824 241.987 179.824 240.835 178.416C239.939 177.136 234.435 150.128 230.595 128.24C229.315 120.304 227.907 115.312 226.499 113.136C223.683 108.656 223.427 106.48 225.219 103.92C226.499 102.128 226.499 100.72 225.731 90.6079C224.067 71.6639 224.067 48.3679 225.731 44.7839C226.755 42.4799 230.339 40.6879 234.051 40.4319C239.171 40.4319 240.323 42.0959 241.347 51.0559C242.627 61.5519 242.499 64.6239 240.579 65.9039C239.811 66.4159 238.915 67.8239 238.787 68.7199C238.147 71.6639 239.939 98.1599 240.707 97.3919C240.835 97.3919 242.627 91.5039 244.675 84.5919C252.611 58.3519 260.419 39.6639 266.691 32.1119C273.859 23.5359 284.227 20.9759 292.675 25.7119C301.123 30.3199 309.443 47.8559 313.795 69.4879C316.227 82.1599 316.739 91.5039 315.331 100.848C313.923 111.728 311.875 115.824 305.475 120.816C298.051 126.704 287.427 129.008 271.043 128.24ZM262.595 72.5599C259.267 82.6719 251.075 111.088 250.307 114.8C249.923 117.104 264.131 119.664 279.491 119.792C288.323 119.792 290.755 119.664 293.699 118.384C298.435 116.336 300.611 112.88 302.019 105.584C304.195 94.3199 302.659 77.8079 297.923 61.4239C293.315 45.1679 286.147 32.1119 282.307 32.8799C277.571 33.7759 270.531 47.8559 262.595 72.5599ZM345.235 45.0399C348.435 49.9039 348.435 49.9039 359.315 53.4879C362.899 54.5119 366.355 55.6639 369.811 56.6879C384.531 60.7839 406.931 64.6239 422.035 61.8079C430.355 60.1439 438.931 55.2799 440.723 46.3199C440.851 44.9119 440.979 43.5039 440.851 42.0959C440.467 34.2879 433.043 26.9919 425.491 25.8399C412.947 23.7919 401.683 27.2479 391.571 34.6719C388.883 36.7199 386.707 40.9439 386.323 41.1999C385.555 41.8399 383.379 40.3039 382.867 39.7919C377.363 34.6719 381.331 28.5279 386.323 25.0719C394.387 19.5679 401.683 16.3679 411.539 15.4719C431.763 13.6799 446.355 20.2079 450.835 41.1999C455.315 82.6719 391.187 72.4319 367.379 67.1839C359.315 65.0079 352.531 63.3439 352.275 63.3439C352.147 63.3439 352.403 64.1119 352.787 65.0079C353.171 66.0319 354.195 66.7999 354.835 66.7999C355.475 66.7999 356.627 67.6959 357.395 68.7199C359.315 71.1519 357.651 74.2239 353.043 76.9119L349.715 78.7039L351.891 86.1279C361.235 119.92 366.483 142.96 368.659 160.112C369.555 166.512 369.427 167.28 367.891 169.84C366.355 172.272 361.875 175.344 359.827 175.344C359.443 175.344 358.419 174.96 357.651 174.064C356.627 173.552 355.859 169.968 355.219 164.208C354.707 159.472 353.299 150.64 352.147 144.624C350.099 134.384 347.923 126.192 334.483 77.2959C331.411 66.4159 328.851 56.9439 328.723 56.3039C328.467 55.0239 310.419 48.7519 307.475 48.7519C301.843 48.7519 302.227 56.9439 308.115 61.4239C309.523 62.7039 314.899 65.6479 319.891 67.8239C324.883 70.1279 329.363 72.8159 329.747 73.4559C331.027 75.8879 328.979 79.5999 325.523 81.0079C320.275 83.0559 317.459 82.4159 307.091 77.2959C292.883 70.3839 286.867 63.7279 287.635 55.5359C288.915 41.9679 304.787 35.0559 321.939 40.6879L327.955 42.4799L332.179 40.6879C338.067 37.7439 341.011 38.7679 345.235 45.0399ZM378.348 115.952C368.748 117.872 365.932 117.36 366.188 113.392C366.188 112.368 367.34 110.832 369.004 109.552C371.308 108.016 373.484 107.376 382.06 106.352C387.692 105.584 392.556 104.688 392.94 104.56C393.196 104.432 392.812 99.8239 392.044 94.5759C389.74 79.4719 388.972 66.1599 389.74 52.5919C390.764 30.8319 394.476 21.2319 403.308 17.2639C421.228 9.19987 435.052 31.4719 437.612 72.6879C438.508 88.1759 438.252 93.0399 436.46 94.9599C433.388 98.0319 426.092 98.5439 424.428 95.7279C424.172 95.3439 423.788 89.5839 423.532 83.0559C422.892 66.6719 421.868 58.6079 418.924 46.7039C416.492 36.5919 410.86 25.1999 408.94 26.4799C408.428 26.6079 407.404 28.6559 406.636 30.5759C401.644 43.1199 401.132 67.5679 405.228 95.2159L406.508 103.792L434.924 102.384C443.5 102 451.436 102 452.588 102.256C456.428 103.28 455.916 107.504 451.692 109.808C449.644 110.832 446.316 111.088 435.436 111.472C410.732 112.496 408.94 112.624 408.94 113.776C408.684 116.464 414.444 137.328 421.228 159.6C429.036 184.56 430.188 189.552 428.908 192.88C427.372 196.72 421.612 199.536 419.308 197.744C418.54 197.232 417.388 194.032 416.748 190.576C415.98 187.12 412.652 175.216 409.196 164.464C403.436 145.52 399.852 132.72 396.652 119.664L395.244 113.776L389.612 114.288C386.412 114.672 381.42 115.312 378.348 115.952ZM466.297 53.7439C472.441 34.9279 487.673 27.2479 503.929 35.0559C509.049 37.4879 520.057 48.7519 524.793 56.4319C539.897 80.7519 546.297 122.224 539.513 152.56C536.313 166.768 527.225 179.696 517.497 183.28C511.097 185.712 503.289 185.456 497.785 183.024C482.681 175.984 470.649 150.384 463.353 109.424C462.201 102.896 461.049 97.0079 460.921 95.9839C460.665 94.7039 459.513 93.9359 457.209 93.1679C452.473 91.7599 451.961 90.2239 451.961 77.5519C451.961 60.6559 453.753 56.8159 461.817 56.8159C465.145 56.5599 465.529 56.4319 466.297 53.7439ZM515.833 174.32C518.905 172.4 522.361 167.152 524.537 161.392C531.705 142.192 530.681 105.712 522.361 80.3679C515.833 60.2719 502.137 42.2239 492.665 40.9439C489.977 40.5599 489.081 40.9439 486.521 43.1199C479.993 48.7519 475.513 62.7039 476.409 74.7359C477.433 91.3759 486.777 114.672 499.193 131.824C504.313 139.12 504.825 140.272 504.057 141.936C503.161 144.24 500.217 145.648 496.761 145.648C494.201 145.648 489.721 141.168 485.369 134.128C483.705 131.312 482.169 129.52 482.041 130.032C481.401 131.696 487.545 149.488 491.257 156.912C495.097 164.592 500.857 171.888 505.209 174.448C508.409 176.368 512.761 176.368 515.833 174.32ZM550.94 176.24C558.236 175.856 562.332 176.624 578.46 180.592C579.996 180.976 580.124 180.72 579.74 179.184C579.612 178.032 577.564 167.792 575.388 156.272C573.084 144.624 570.268 129.392 569.116 122.096C567.836 114.928 566.3 107.888 565.532 106.48C564.892 104.816 564.38 102 564.508 99.8239C564.764 96.3679 560.668 68.5919 555.548 37.2319C553.5 24.9439 553.756 21.4879 556.7 19.6959C559.26 18.0319 564.252 18.0319 566.812 19.6959C571.42 22.2559 578.076 41.3279 580.124 57.7119C581.66 69.8719 581.788 78.4479 580.252 88.9439C579.612 93.1679 579.228 98.5439 579.356 100.976C579.612 106.992 585.116 137.968 589.852 159.856C591.9 169.328 593.308 178.032 593.18 178.8C593.052 179.696 592.028 181.104 590.876 182.128C589.212 183.408 588.956 184.048 589.724 184.304C590.364 184.56 594.844 186.096 599.708 188.016C612.508 192.624 623.388 197.872 645.532 209.648C656.284 215.408 665.884 220.4 666.908 220.784C668.572 221.296 668.572 221.168 668.06 219.504C667.036 216.048 644.764 183.792 636.956 173.552C632.604 167.792 629.532 162.8 629.66 161.904C630.428 158.448 636.956 154.864 640.668 155.888C642.332 156.272 671.388 196.848 677.02 205.808C682.524 214.64 683.42 223.856 679.196 227.952C674.844 232.304 668.188 233.2 661.404 230.64C659.356 230 649.244 224.752 638.876 219.12C608.924 203.248 591.132 195.696 569.628 189.808C560.668 187.248 558.364 186.864 548.892 186.864C539.036 186.736 538.268 186.736 537.372 184.944C535.964 182.768 536.988 180.336 540.572 178.16C542.876 176.752 544.668 176.368 550.94 176.24ZM666.22 30.0639C668.268 34.4159 659.052 41.0719 646.764 44.0159C643.052 44.7839 639.852 45.9359 639.852 46.3199C639.852 46.4479 640.108 48.6239 640.62 50.6719C641.388 54.6399 641.004 56.4319 638.444 60.0159C637.548 61.4239 637.42 64.3679 638.188 76.3999C639.596 102.512 643.18 130.16 649.324 163.824C651.244 173.936 652.78 183.152 652.652 183.92C652.652 184.816 653.036 185.84 653.804 186.096C654.444 186.224 661.484 186.608 669.42 186.608C681.58 186.608 684.012 186.864 684.78 187.888C686.188 190.192 684.268 193.904 680.812 196.208C678.124 197.872 676.716 198.128 656.492 198.128C637.676 198.128 634.86 198.128 632.556 199.536C629.228 201.584 625.26 201.584 622.572 199.792C618.86 197.232 620.908 191.088 626.284 187.888C627.692 187.12 631.148 186.224 633.964 186.096C637.292 185.584 639.084 184.944 638.956 184.432C638.828 183.792 636.908 173.168 634.732 160.752C628.076 123.12 624.492 93.1679 623.34 63.0879C623.084 56.0479 622.7 49.3919 622.572 48.3679C622.444 46.7039 621.548 46.3199 612.844 45.4239C597.868 43.7599 596.588 43.3759 595.052 41.4559C593.132 39.0239 593.516 37.3599 597.1 33.6479L600.172 30.4479L607.596 31.0879C611.692 31.3439 615.916 32.3679 617.068 33.0079C620.268 35.0559 622.444 34.6719 623.34 31.9839C623.852 30.3199 625.132 29.0399 627.82 27.7599C633.196 25.0719 636.012 26.0959 637.548 31.3439C638.7 34.9279 638.956 35.0559 641.644 34.6719C648.3 33.6479 652.524 32.3679 656.748 30.0639C661.74 27.6319 665.068 27.6319 666.22 30.0639ZM675.467 53.7439C681.611 34.9279 696.843 27.2479 713.099 35.0559C718.219 37.4879 729.227 48.7519 733.963 56.4319C749.067 80.7519 755.467 122.224 748.683 152.56C745.483 166.768 736.395 179.696 726.667 183.28C720.267 185.712 712.459 185.456 706.955 183.024C691.851 175.984 679.819 150.384 672.523 109.424C671.371 102.896 670.219 97.0079 670.091 95.9839C669.835 94.7039 668.683 93.9359 666.379 93.1679C661.643 91.7599 661.131 90.2239 661.131 77.5519C661.131 60.6559 662.923 56.8159 670.987 56.8159C674.315 56.5599 674.699 56.4319 675.467 53.7439ZM725.003 174.32C728.075 172.4 731.531 167.152 733.707 161.392C740.875 142.192 739.851 105.712 731.531 80.3679C725.003 60.2719 711.307 42.2239 701.835 40.9439C699.147 40.5599 698.251 40.9439 695.691 43.1199C689.163 48.7519 684.683 62.7039 685.579 74.7359C686.603 91.3759 695.947 114.672 708.363 131.824C713.483 139.12 713.995 140.272 713.227 141.936C712.331 144.24 709.387 145.648 705.931 145.648C703.371 145.648 698.891 141.168 694.539 134.128C692.875 131.312 691.339 129.52 691.211 130.032C690.571 131.696 696.715 149.488 700.427 156.912C704.267 164.592 710.027 171.888 714.379 174.448C717.579 176.368 721.931 176.368 725.003 174.32Z" fill="#3DCC0D"/>
</g>
<defs>
<filter id="filter0_d_211_2" x="1.14441e-05" y="-0.000293732" width="776.667" height="258.576" filterUnits="userSpaceOnUse" color-interpolation-filters="sRGB">
<feFlood flood-opacity="0" result="BackgroundImageFix"/>
<feColorMatrix in="SourceAlpha" type="matrix" values="0 0 0 0 0 0 0 0 0 0 0 0 0 0 0 0 0 0 127 0" result="hardAlpha"/>
<feOffset dx="5" dy="7"/>
<feGaussianBlur stdDeviation="8.1"/>
<feComposite in2="hardAlpha" operator="out"/>
<feColorMatrix type="matrix" values="0 0 0 0 1 0 0 0 0 1 0 0 0 0 1 0 0 0 0.4 0"/>
<feBlend mode="normal" in2="BackgroundImageFix" result="effect1_dropShadow_211_2"/>
<feBlend mode="normal" in="SourceGraphic" in2="effect1_dropShadow_211_2" result="shape"/>
</filter>
</defs>
</svg>
