<svg width="380" height="91" viewBox="0 0 380 91" fill="none" xmlns="http://www.w3.org/2000/svg">
<path d="M13.9379 27.25C15.8962 26.5 17.792 25.7083 19.6254 24.875C21.4587 24.0417 23.1045 23.2083 24.5629 22.375C26.0629 21.5417 27.3129 20.7292 28.3129 19.9375C29.3129 19.1458 29.9587 18.3958 30.2504 17.6875C30.5837 16.8958 30.8129 16.1042 30.9379 15.3125C31.1045 14.5208 31.2504 13.6667 31.3754 12.75C31.542 11.8333 31.7087 10.8333 31.8754 9.75C32.0837 8.625 32.3754 7.33333 32.7504 5.875C33.2504 3.875 34.9587 2.54167 37.8754 1.875C40.792 1.20833 42.9379 2.75 44.3129 6.5C44.3962 6.75 44.4379 7.1875 44.4379 7.8125C44.4379 8.39583 44.3962 9.04167 44.3129 9.75C44.2712 10.4167 44.2087 11.0625 44.1254 11.6875C44.042 12.3125 43.9587 12.7917 43.8754 13.125C43.5004 14.75 43.2087 16.0625 43.0004 17.0625C42.8337 18.0625 42.6879 19.0417 42.5629 20C42.4795 20.9167 42.3754 22 42.2504 23.25C42.167 24.4583 42.0212 26.0833 41.8129 28.125C40.7295 38.3333 41.0629 46.75 42.8129 53.375C44.6462 60.125 46.9587 65.3958 49.7504 69.1875C51.167 71.1042 52.3545 72.8125 53.3129 74.3125C54.3129 75.8125 55.0837 77.1042 55.6254 78.1875C56.7504 80.3958 54.8754 80.5833 50.0004 78.75C46.417 77.4583 43.2504 74.75 40.5004 70.625C37.8337 66.5 35.667 61.9375 34.0004 56.9375C32.292 51.7708 31.0629 46.7083 30.3129 41.75C29.5629 36.6667 29.2504 32.5 29.3754 29.25C28.2504 30 27.1045 30.625 25.9379 31.125C24.8129 31.625 23.6045 32.0625 22.3129 32.4375C21.0629 32.8125 19.7295 33.1458 18.3129 33.4375C16.9379 33.7292 15.4795 34.0417 13.9379 34.375C13.6879 37.0417 13.6462 39.7708 13.8129 42.5625C13.9795 45.3125 14.2712 48.0208 14.6879 50.6875C15.1045 53.3542 15.5837 55.9167 16.1254 58.375C16.667 60.7917 17.1879 62.9583 17.6879 64.875C18.2295 66.7917 18.6879 68.4167 19.0629 69.75C19.4795 71.0417 19.7295 71.9167 19.8129 72.375C20.4795 74.6667 20.9379 76.6667 21.1879 78.375C21.4795 80.0833 21.6254 81.4167 21.6254 82.375C21.6254 83.4167 21.3545 84.6667 20.8129 86.125C20.3129 87.6667 19.5629 88.7083 18.5629 89.25C17.8545 89.6667 17.1254 89.9375 16.3754 90.0625C15.6254 90.1458 14.8754 90 14.1254 89.625C13.542 89.3333 13.042 88.9583 12.6254 88.5C12.2504 88.0417 11.8962 87.5625 11.5629 87.0625C9.77118 84.1042 8.50035 80.5417 7.75035 76.375C7.37535 74.1667 6.79202 69.5833 6.00035 62.625C5.20868 55.6667 4.58368 46.5833 4.12535 35.375C2.50035 35.2083 1.39618 34.4792 0.812851 33.1875C0.271184 31.8958 1.27118 30.6667 3.81285 29.5C4.18785 26.0833 4.54202 23.3542 4.87535 21.3125C5.16702 19.2292 5.52118 17.6458 5.93785 16.5625C6.35452 15.4792 6.87535 14.7917 7.50035 14.5C8.12535 14.1667 8.93785 14.0625 9.93785 14.1875C12.1879 14.4792 13.667 15.6667 14.3754 17.75C15.0837 19.8333 14.9379 23 13.9379 27.25ZM67.0578 80.375C64.8912 85.125 62.412 86.9583 59.6203 85.875C57.037 84.8333 55.9328 82.375 56.3078 78.5C56.5162 76.25 56.7245 74.1458 56.9328 72.1875C57.1828 70.1875 57.3703 68.3542 57.4953 66.6875C57.662 65.0208 57.7453 63.5208 57.7453 62.1875C57.7453 60.8542 57.662 59.75 57.4953 58.875C55.912 58.5833 53.6828 57.6667 50.8078 56.125C47.9745 54.5417 46.7662 52.2708 47.1828 49.3125C47.4745 47.1458 48.3912 46.4792 49.9328 47.3125C51.4328 48.1875 53.8912 48.7708 57.3078 49.0625C57.1828 41.4792 56.8703 35.5833 56.3703 31.375C56.1203 29.25 55.7453 27.1042 55.2453 24.9375C54.787 22.7292 54.0787 20.4792 53.1203 18.1875C51.662 14.6042 50.787 11.625 50.4953 9.25C50.162 6.83333 50.4745 4.95833 51.4328 3.625C53.2245 1.20833 55.1412 0.9375 57.1828 2.8125C59.3078 4.72917 61.5995 7.72917 64.0578 11.8125C68.7662 17.9792 73.1412 21.8958 77.1828 23.5625C81.3495 25.2708 85.2245 27.7292 88.8078 30.9375C93.7662 35.4375 95.7453 40.1458 94.7453 45.0625C93.8287 49.9375 91.4745 53.5417 87.6828 55.875C83.8912 58.2917 80.4328 59.6458 77.3078 59.9375C74.2662 60.2292 71.0162 60.1875 67.5578 59.8125C67.5995 61.6875 67.662 63.4792 67.7453 65.1875C67.8703 66.8542 68.037 68.4583 68.2453 70C68.6203 73.0417 68.2245 76.5 67.0578 80.375ZM81.8703 49.0625C85.037 45.7708 85.9953 43.0208 84.7453 40.8125C83.537 38.6042 80.8912 36.5625 76.8078 34.6875C72.8495 32.8958 69.3078 30.3125 66.1828 26.9375C64.6412 25.2708 63.6203 24.2083 63.1203 23.75C62.6203 23.25 62.6412 23.3542 63.1828 24.0625C64.2662 25.4375 65.0787 28.7708 65.6203 34.0625C65.912 36.7292 66.2037 39.4167 66.4953 42.125C66.8287 44.7917 67.2037 47.5 67.6203 50.25C71.7037 51.0417 74.8078 51.375 76.9328 51.25C79.0162 51.0417 80.662 50.3125 81.8703 49.0625ZM132.865 38.5C131.615 41.625 131.053 45.1667 131.178 49.125C131.303 53.0417 132.053 56.4375 133.428 59.3125C134.72 62.1875 134.511 64.0833 132.803 65C130.97 65.9583 129.095 65.0417 127.178 62.25C125.845 60.375 124.761 58.375 123.928 56.25C123.136 54.125 122.511 51.9167 122.053 49.625C121.178 45.125 121.574 40.7083 123.24 36.375C124.407 33.4167 126.574 32.2708 129.74 32.9375C133.032 33.6458 134.074 35.5 132.865 38.5ZM125.553 26.8125C124.636 26.3125 123.532 26.375 122.24 27C120.907 27.6667 120.053 28.1875 119.678 28.5625C118.053 30.0208 116.532 31.4375 115.115 32.8125C113.699 34.1875 112.386 35.6042 111.178 37.0625C109.97 38.4792 108.907 39.9583 107.99 41.5C107.074 43 106.303 44.6042 105.678 46.3125C106.428 44.8542 107.99 44 110.365 43.75C113.282 43.5 115.053 45.4583 115.678 49.625C116.386 53.7083 118.032 56.8333 120.615 59C123.074 61.0833 123.678 63.0833 122.428 65C121.22 66.9167 119.386 66.8333 116.928 64.75C115.303 63.75 112.824 61.2708 109.49 57.3125C106.157 53.3542 104.782 50 105.365 47.25C105.074 48.1667 104.803 49.3333 104.553 50.75C104.345 52.1667 104.157 53.8333 103.99 55.75C103.657 59.5833 103.657 62.7292 103.99 65.1875C104.324 67.8542 105.761 71.0208 108.303 74.6875C110.845 78.3542 113.699 79.5625 116.865 78.3125C121.449 77.6875 126.386 74.9583 131.678 70.125C136.886 65.3333 140.595 58.8333 142.803 50.625C144.511 47.1667 144.136 42.5625 141.678 36.8125C140.428 33.9375 139.199 31.4375 137.99 29.3125C136.824 27.1458 135.636 25.3333 134.428 23.875C134.428 23.875 134.261 24.3125 133.928 25.1875C133.845 25.3958 133.782 25.5833 133.74 25.75C133.699 25.875 133.657 25.9792 133.615 26.0625C133.574 26.1875 133.532 26.2917 133.49 26.375C131.449 29.1667 128.803 29.3125 125.553 26.8125ZM94.1778 69.1875C93.9278 68.2708 93.7195 67.4792 93.5528 66.8125C93.3862 66.1042 93.2612 65.4792 93.1778 64.9375C92.9695 63.7292 92.8445 62.625 92.8028 61.625C92.7612 60.5833 92.7403 59.625 92.7403 58.75C92.657 58.75 92.5945 58.7708 92.5528 58.8125C92.6362 57.8542 92.7612 56.7292 92.9278 55.4375C93.0528 54.1042 93.2195 52.5833 93.4278 50.875C93.8445 47.5417 94.7612 44.0833 96.1778 40.5C97.2195 37.875 98.407 35.375 99.7403 33C101.115 30.5833 102.72 28.25 104.553 26C106.261 23.7917 108.428 21.6667 111.053 19.625C113.636 17.5833 116.553 16.25 119.803 15.625L114.865 13.0625C111.282 11.7708 108.699 9.95833 107.115 7.625C106.324 6.45833 106.761 5.70833 108.428 5.375C110.136 5 113.053 5.20833 117.178 6C122.386 7 127.115 8.79167 131.365 11.375C135.657 13.9167 139.553 17.1042 143.053 20.9375C150.011 28.5208 153.115 38.1042 152.365 49.6875C152.074 53.8542 150.678 58.2708 148.178 62.9375C145.761 67.5625 142.657 71.7917 138.865 75.625C135.199 79.4167 131.095 82.4792 126.553 84.8125C124.303 85.9792 122.074 86.7708 119.865 87.1875C117.699 87.6042 115.532 87.7083 113.365 87.5C103.49 86.4583 97.0945 80.3542 94.1778 69.1875ZM195.11 61.625C188.652 62.2083 182.215 64.7708 175.798 69.3125C169.465 73.8542 164.694 78.8958 161.485 84.4375C159.152 88.3958 156.652 89.75 153.985 88.5C151.277 87.25 150.36 84.9583 151.235 81.625C151.735 79.6667 152.298 77.5417 152.923 75.25C153.506 72.9583 154.194 70.4792 154.985 67.8125C156.61 62.5208 157.194 59.0417 156.735 57.375C156.069 57.75 155.256 58.2083 154.298 58.75C153.34 59.25 152.194 59.8333 150.86 60.5C148.235 61.8333 146.048 61.4375 144.298 59.3125C142.173 56.7708 142.798 54.5208 146.173 52.5625C147.84 51.6042 149.61 50.6458 151.485 49.6875C153.319 48.6875 155.256 47.7083 157.298 46.75C157.923 42.75 157.548 38 156.173 32.5C155.465 29.75 154.652 27.2708 153.735 25.0625C152.819 22.8542 151.798 20.875 150.673 19.125C150.048 18.1667 149.569 17.3333 149.235 16.625C148.86 15.875 148.59 15.2292 148.423 14.6875C146.923 12.8125 146.631 10.7917 147.548 8.625C148.423 6.45833 151.444 6.97917 156.61 10.1875C158.527 11.0208 160.527 11.8125 162.61 12.5625C164.694 13.2708 166.881 13.9167 169.173 14.5C173.84 15.75 178.485 15.3958 183.11 13.4375C186.569 11.9792 189.09 11.6458 190.673 12.4375C192.34 13.2292 191.215 15.0833 187.298 18C185.423 18.9167 183.465 19.6875 181.423 20.3125C179.423 20.8958 177.298 21.2917 175.048 21.5C172.798 21.6667 170.402 21.625 167.86 21.375C165.36 21.0833 162.673 20.5208 159.798 19.6875C161.965 23.8125 163.527 27.0625 164.485 29.4375C165.402 31.7292 166.152 36.3333 166.735 43.25C170.569 42.375 175.215 41.8125 180.673 41.5625C186.173 41.3125 188.36 42.4792 187.235 45.0625C186.985 46.1042 184.298 46.9375 179.173 47.5625C174.048 48.1458 170.11 49.5833 167.36 51.875C167.277 52.875 167.194 54 167.11 55.25C167.027 56.5 166.902 57.875 166.735 59.375C166.485 62.4167 165.902 64.8542 164.985 66.6875C167.235 64.4375 171.902 62.0833 178.985 59.625C186.11 57.1667 190.923 56.1458 193.423 56.5625C197.506 56.6042 199.59 57.6875 199.673 59.8125C199.756 61.8958 198.235 62.5 195.11 61.625ZM197.48 8.3125C198.939 10.5625 200.23 13.0833 201.355 15.875C202.48 18.625 203.48 21.6458 204.355 24.9375C205.23 28.2292 206.001 31.3958 206.668 34.4375C207.335 37.4792 207.897 40.4375 208.355 43.3125C209.605 41.7708 210.543 40.1458 211.168 38.4375C211.501 37.6042 211.876 36.5417 212.293 35.25C212.751 33.9167 213.272 32.3333 213.855 30.5C214.564 28.25 215.189 26.2083 215.73 24.375C216.272 22.5417 216.772 20.875 217.23 19.375C218.147 16.375 219.668 14.2917 221.793 13.125C224.293 11.75 225.605 12.9583 225.73 16.75C225.855 20.5417 225.543 24.6875 224.793 29.1875C223.793 34.8542 222.626 38.7083 221.293 40.75C222.918 40.2917 224.772 39.5417 226.855 38.5C227.939 37.9583 229.001 37.5 230.043 37.125C231.126 36.75 232.21 36.4167 233.293 36.125C234.293 35.875 235.272 35.75 236.23 35.75C237.189 35.7083 238.126 35.8333 239.043 36.125C240.918 36.6667 241.939 37.8333 242.105 39.625C242.147 40.0417 242.064 40.8958 241.855 42.1875C241.689 43.4375 241.439 45.1667 241.105 47.375C240.772 49.5833 240.439 51.8125 240.105 54.0625C239.814 56.3125 239.501 58.625 239.168 61C238.835 63.375 238.564 65.5833 238.355 67.625C238.189 69.6667 238.064 71.5625 237.98 73.3125C237.772 76.8125 238.251 78.0208 239.418 76.9375C243.376 73.3125 246.23 71.5833 247.98 71.75C249.689 71.9167 249.522 73.6458 247.48 76.9375C246.564 78.3542 245.585 79.8958 244.543 81.5625C243.501 83.1875 242.355 84.5 241.105 85.5C239.064 87.625 236.626 88.2708 233.793 87.4375C231.043 86.6458 228.835 85.3125 227.168 83.4375C225.751 81.8958 225.314 78.7917 225.855 74.125C226.189 71.75 226.522 69.4167 226.855 67.125C227.23 64.8333 227.626 62.5 228.043 60.125C228.46 57.75 228.772 55.6042 228.98 53.6875C229.23 51.7292 229.397 49.9583 229.48 48.375C229.605 45.25 228.48 44.3958 226.105 45.8125C221.564 47.9792 218.272 49.8542 216.23 51.4375C215.189 52.2292 214.168 53.0833 213.168 54C212.168 54.875 211.168 55.8125 210.168 56.8125C210.293 63.3542 209.48 70.2083 207.73 77.375C205.98 84.5417 202.314 87.3125 196.73 85.6875C194.814 85.1458 193.876 83.6042 193.918 81.0625C193.96 78.5208 194.272 76.3958 194.855 74.6875C195.564 72.6458 196.189 70.3958 196.73 67.9375C197.23 65.4792 197.647 62.7708 197.98 59.8125C198.314 56.8125 198.501 53.8333 198.543 50.875C198.626 47.875 198.626 44.8542 198.543 41.8125C198.335 35.6875 197.647 29.875 196.48 24.375C195.272 18.875 193.564 14.4792 191.355 11.1875C188.73 7.39583 188.48 5.08333 190.605 4.25C192.814 3.33333 195.105 4.6875 197.48 8.3125ZM289.663 44.75C290.955 47.4583 291.246 49.9583 290.538 52.25C289.871 54.375 288.371 54.1042 286.038 51.4375C285.33 50.6042 284.684 49.7917 284.1 49C283.559 48.1667 283.08 47.2917 282.663 46.375C280.913 42.4583 281.142 38.4375 283.35 34.3125C285.517 30.1875 288.246 26.4583 291.538 23.125C290.288 23.4583 288.913 23.7708 287.413 24.0625C285.955 24.3125 284.35 24.5833 282.6 24.875C279.184 25.375 276.475 25.6875 274.475 25.8125C273.642 31.0208 273.059 35.5 272.725 39.25C272.392 42.9583 272.309 46 272.475 48.375C272.642 50.75 273.059 53.8333 273.725 57.625C274.392 61.375 275.33 65.9167 276.538 71.25C277.58 75.7917 276.475 79.9583 273.225 83.75C270.017 87.4583 267.663 86.75 266.163 81.625C263.08 74.4583 261.871 65.1875 262.538 53.8125C263.205 42.3125 264.142 32.875 265.35 25.5C264.225 25.5417 262.809 25.4792 261.1 25.3125C259.392 25.1458 257.371 24.8542 255.038 24.4375C250.538 23.6458 248.33 23.1667 248.413 23C249.538 24.5417 250.642 26.0417 251.725 27.5C252.85 28.9167 253.934 30.3333 254.975 31.75C257.059 34.5417 256.892 37.3542 254.475 40.1875C253.517 41.3542 252.038 42.625 250.038 44C248.163 45.25 246.725 45.6042 245.725 45.0625C244.559 44.4792 244.142 43.625 244.475 42.5C244.725 41.4583 245.767 39.0833 247.6 35.375C247.892 34.375 247.017 32.6042 244.975 30.0625C243.934 28.7708 243.059 27.5417 242.35 26.375C241.6 25.1667 240.996 24 240.538 22.875C239.58 20.5833 240.142 18.8958 242.225 17.8125C243.267 17.2708 245.08 17.1042 247.663 17.3125C250.246 17.4792 253.684 18.0417 257.975 19C258.434 19.0833 259.017 19.1667 259.725 19.25C260.434 19.2917 261.267 19.2917 262.225 19.25C264.225 19.125 265.975 18.875 267.475 18.5C270.642 12.9583 274.017 8.52083 277.6 5.1875C281.142 1.89583 282.85 2.52083 282.725 7.0625C282.35 8.64583 281.559 10.4792 280.35 12.5625C279.767 13.6042 279.288 14.5208 278.913 15.3125C278.58 16.0625 278.33 16.7292 278.163 17.3125C285.955 16.0208 293.267 14.2083 300.1 11.875C304.35 9.70833 307.475 9.125 309.475 10.125C311.475 11.125 310.705 13.8958 307.163 18.4375C306.08 19.8125 304.225 21.625 301.6 23.875C300.309 24.9583 299.059 26.1042 297.85 27.3125C296.642 28.4792 295.455 29.6875 294.288 30.9375C291.913 33.4375 290.142 35.8958 288.975 38.3125C287.767 40.7708 287.996 42.9167 289.663 44.75ZM335.595 39.625C334.387 38.375 332.741 37.6458 330.658 37.4375C328.533 37.3125 325.429 37.6458 321.345 38.4375C320.929 41.1875 320.554 43.9167 320.22 46.625C319.929 49.2917 319.637 51.9583 319.345 54.625C318.804 59.9167 317.991 63.25 316.908 64.625C316.366 65.3333 316.345 65.4583 316.845 65C317.345 64.5 318.366 63.4167 319.908 61.75C323.033 58.375 326.575 55.7917 330.533 54C334.616 52.125 337.262 50.0833 338.47 47.875C339.72 45.6667 338.762 42.9167 335.595 39.625ZM320.783 8.3125C321.95 12.1875 322.345 15.6458 321.97 18.6875C321.762 20.2292 321.595 21.8542 321.47 23.5625C321.387 25.2292 321.325 27 321.283 28.875C324.741 28.5 327.991 28.4583 331.033 28.75C334.158 29.0417 337.616 30.3958 341.408 32.8125C345.2 35.1458 347.554 38.75 348.47 43.625C349.47 48.5417 347.491 53.25 342.533 57.75C338.95 60.9583 335.075 63.4167 330.908 65.125C326.866 66.7917 322.491 70.7083 317.783 76.875C315.325 80.9583 313.033 83.9583 310.908 85.875C308.866 87.75 306.95 87.4792 305.158 85.0625C304.2 83.7292 303.887 81.875 304.22 79.5C304.512 77.0833 305.387 74.0833 306.845 70.5C307.804 68.2083 308.512 65.9792 308.97 63.8125C309.47 61.6042 309.845 59.4375 310.095 57.3125C310.595 53.1042 310.908 47.2083 311.033 39.625C307.616 39.9167 305.158 40.5 303.658 41.375C302.116 42.2083 301.2 41.5417 300.908 39.375C300.491 36.4167 301.7 34.1458 304.533 32.5625C307.408 31.0208 309.637 30.1042 311.22 29.8125C311.387 28.9375 311.47 27.8333 311.47 26.5C311.47 25.1667 311.387 23.6667 311.22 22C311.095 20.3333 310.908 18.5208 310.658 16.5625C310.45 14.5625 310.241 12.4375 310.033 10.1875C309.658 6.3125 310.762 3.85417 313.345 2.8125C316.137 1.72917 318.616 3.5625 320.783 8.3125ZM377.595 14.6875C379.179 11.9792 378.262 9.5 374.845 7.25C371.429 5 368.095 5.9375 364.845 10.0625C362.97 13.1875 361.345 16.9583 359.97 21.375C358.595 25.7917 357.241 30.8542 355.908 36.5625C354.741 41.5625 353.887 46.125 353.345 50.25C352.845 54.375 352.554 58.1042 352.47 61.4375C352.387 64.7292 352.429 67.6458 352.595 70.1875C352.804 72.6875 353.012 74.8125 353.22 76.5625C353.512 79.2292 355.22 81 358.345 81.875C359.929 82.2917 360.991 82.1042 361.533 81.3125C362.075 80.5208 362.179 79.125 361.845 77.125C361.595 75.7083 361.408 73.8542 361.283 71.5625C361.158 69.2708 361.2 66.6667 361.408 63.75C361.616 60.7917 362.033 57.5417 362.658 54C363.325 50.4167 364.304 46.625 365.595 42.625C367.345 37.2917 369.179 32.3125 371.095 27.6875C373.012 23.0625 375.179 18.7292 377.595 14.6875Z" fill="#F0F0F0"/>
</svg>
