<svg width="910" height="320" viewBox="0 0 910 320" fill="none" xmlns="http://www.w3.org/2000/svg">
<mask id="mask0_303_303" style="mask-type:luminance" maskUnits="userSpaceOnUse" x="184" y="68" width="34" height="39">
<path d="M184.3 68.7002H217.694V106.566H184.3V68.7002Z" fill="white"/>
</mask>
<g mask="url(#mask0_303_303)">
<path d="M200.98 106.564L187.353 102.779L184.316 68.7017L217.684 68.7012L214.646 102.774L200.98 106.563L200.98 106.564Z" fill="#0277BD"/>
</g>
<path d="M212.043 100.605L214.641 71.4887L201.001 71.4883V103.667L212.043 100.605V100.605Z" fill="#039BE5"/>
<path d="M191.278 84.1272L191.652 88.3057H201.001V84.1272H191.278Z" fill="#F0F0F0"/>
<path d="M190.526 75.667L190.905 79.8469H201.001V75.667H190.526Z" fill="#F0F0F0"/>
<path d="M201.001 94.9813L200.982 94.9865L196.33 93.729L196.032 90.3958H191.839L192.424 96.9586L200.981 99.3352L201.001 99.33V94.9813Z" fill="#F0F0F0"/>
<mask id="mask1_303_303" style="mask-type:luminance" maskUnits="userSpaceOnUse" x="192" y="59" width="6" height="7">
<path d="M192.167 59.4409H197.233V65.8002H192.167V59.4409Z" fill="white"/>
</mask>
<g mask="url(#mask1_303_303)">
<path d="M192.169 59.4409H197.229V61.5578H194.285V63.6748H197.229V65.7916H192.169V59.4409Z" fill="#3DCC0D"/>
</g>
<mask id="mask2_303_303" style="mask-type:luminance" maskUnits="userSpaceOnUse" x="198" y="59" width="6" height="7">
<path d="M198.233 59.4409H203.333V65.9002H198.233V59.4409Z" fill="white"/>
</mask>
<g mask="url(#mask2_303_303)">
<path d="M198.241 59.4409H203.301V61.2818H200.358V61.6499H203.301V65.8836H198.241V63.9509H201.185V63.5826H198.241V59.4409Z" fill="#3DCC0D"/>
</g>
<mask id="mask3_303_303" style="mask-type:luminance" maskUnits="userSpaceOnUse" x="204" y="59" width="6" height="7">
<path d="M204.3 59.4409H209.4V65.9002H204.3V59.4409Z" fill="white"/>
</mask>
<g mask="url(#mask3_303_303)">
<path d="M204.313 59.4409H209.372V61.2818H206.428V61.6499H209.372V65.8836H204.313V63.9509H207.256V63.5826H204.313V59.4409Z" fill="#3DCC0D"/>
</g>
<path d="M210.697 84.1275L211.451 75.667H200.986V79.8469H206.873L206.493 84.1275H200.986V88.3061H206.131L205.646 93.7266L200.986 94.9855V99.3329L209.55 96.9589L209.613 96.2523L210.595 85.249L210.697 84.1275Z" fill="#F0F0F0"/>
<mask id="mask4_303_303" style="mask-type:luminance" maskUnits="userSpaceOnUse" x="247" y="237" width="17" height="19">
<path d="M247.8 238H263.27V255.466H247.8V238Z" fill="white"/>
</mask>
<g mask="url(#mask4_303_303)">
<path d="M255.544 238.001C255.309 238.001 255.08 238.05 254.878 238.164L248.477 241.863C248.063 242.101 247.811 242.553 247.811 243.032V250.416C247.811 250.895 248.063 251.346 248.477 251.585L250.149 252.549C250.961 252.95 251.26 252.943 251.63 252.943C252.832 252.943 253.519 252.213 253.519 250.944V243.659C253.519 243.556 253.43 243.483 253.329 243.483H252.527C252.424 243.483 252.337 243.558 252.337 243.659V250.948C252.337 251.51 251.751 252.076 250.801 251.6L249.063 250.581C249.002 250.547 248.954 250.486 248.954 250.418V243.034C248.954 242.964 249.001 242.892 249.063 242.857L255.451 239.172C255.511 239.137 255.582 239.137 255.641 239.172L262.029 242.857C262.09 242.893 262.138 242.962 262.138 243.034V250.418C262.138 250.488 262.103 250.56 262.043 250.594L255.642 254.28C255.585 254.312 255.509 254.312 255.451 254.28L253.807 253.301C253.757 253.272 253.691 253.274 253.644 253.301C253.19 253.558 253.104 253.588 252.679 253.736C252.574 253.772 252.414 253.829 252.733 254.008L254.881 255.274C255.085 255.392 255.313 255.451 255.546 255.451C255.784 255.451 256.008 255.394 256.213 255.274L262.614 251.589C263.028 251.348 263.28 250.899 263.28 250.419V243.036C263.28 242.556 263.028 242.106 262.614 241.866L256.213 238.168C256.012 238.053 255.782 238.005 255.546 238.005L255.544 238.001ZM257.257 243.277C255.434 243.277 254.348 244.054 254.348 245.344C254.348 246.743 255.426 247.129 257.175 247.302C259.268 247.507 259.431 247.815 259.431 248.227C259.431 248.942 258.862 249.247 257.515 249.247C255.823 249.247 255.451 248.824 255.327 247.98C255.312 247.89 255.243 247.817 255.15 247.817H254.319C254.294 247.818 254.27 247.823 254.247 247.833C254.224 247.843 254.203 247.856 254.186 247.874C254.168 247.892 254.154 247.912 254.145 247.935C254.135 247.959 254.13 247.982 254.129 248.008C254.129 249.085 254.715 250.36 257.513 250.36C259.539 250.36 260.707 249.566 260.707 248.171C260.707 246.791 259.763 246.418 257.799 246.158C255.815 245.893 255.624 245.767 255.624 245.301C255.624 244.917 255.784 244.404 257.255 244.404C258.568 244.404 259.054 244.687 259.253 245.573C259.27 245.656 259.344 245.724 259.43 245.724H260.261C260.312 245.724 260.361 245.693 260.397 245.656C260.431 245.617 260.456 245.573 260.451 245.52C260.323 243.994 259.306 243.276 257.257 243.276L257.257 243.277Z" fill="#83CD29"/>
</g>
<mask id="mask5_303_303" style="mask-type:luminance" maskUnits="userSpaceOnUse" x="166" y="228" width="77" height="28">
<path d="M166.719 228.267H242.799V255.6H166.719V228.267Z" fill="white"/>
</mask>
<g mask="url(#mask5_303_303)">
<path d="M217.909 228.322C217.837 228.322 217.769 228.34 217.705 228.376C217.675 228.394 217.646 228.416 217.621 228.441C217.596 228.467 217.575 228.495 217.557 228.526C217.539 228.557 217.525 228.59 217.516 228.624C217.507 228.659 217.502 228.694 217.502 228.73V239.132C217.502 239.234 217.454 239.326 217.365 239.377C217.321 239.403 217.274 239.415 217.223 239.415C217.172 239.415 217.124 239.403 217.08 239.377L215.381 238.398C215.319 238.362 215.254 238.335 215.184 238.316C215.115 238.298 215.045 238.288 214.974 238.288C214.902 238.288 214.832 238.298 214.762 238.316C214.693 238.335 214.628 238.362 214.566 238.398L207.784 242.314C207.531 242.46 207.376 242.742 207.376 243.035V250.867C207.376 250.939 207.385 251.009 207.404 251.078C207.422 251.147 207.45 251.213 207.485 251.275C207.521 251.337 207.564 251.394 207.615 251.444C207.666 251.495 207.722 251.538 207.784 251.574L214.566 255.49C214.628 255.526 214.694 255.553 214.763 255.572C214.832 255.591 214.902 255.6 214.974 255.6C215.045 255.6 215.116 255.591 215.185 255.572C215.254 255.553 215.32 255.526 215.382 255.49L222.164 251.574C222.226 251.538 222.282 251.495 222.333 251.444C222.383 251.394 222.427 251.337 222.462 251.275C222.498 251.213 222.525 251.147 222.544 251.078C222.562 251.009 222.571 250.939 222.571 250.867V231.34C222.571 231.043 222.409 230.765 222.15 230.62L218.113 228.361C218.05 228.326 217.98 228.32 217.909 228.321L217.909 228.322ZM174.282 238.098C174.152 238.104 174.031 238.126 173.915 238.194L167.133 242.11C167.071 242.146 167.014 242.189 166.964 242.239C166.913 242.29 166.87 242.346 166.834 242.408C166.798 242.471 166.771 242.536 166.753 242.605C166.734 242.675 166.725 242.745 166.725 242.817L166.739 253.328C166.739 253.475 166.815 253.61 166.943 253.682C167.069 253.757 167.225 253.757 167.351 253.682L171.374 251.37C171.629 251.219 171.795 250.955 171.795 250.663V245.754C171.795 245.461 171.949 245.192 172.203 245.047L173.915 244.054C174.041 243.981 174.177 243.945 174.323 243.946C174.469 243.945 174.605 243.981 174.731 244.054L176.443 245.046C176.696 245.192 176.85 245.461 176.85 245.753V250.662C176.85 250.954 177.02 251.22 177.271 251.369L181.294 253.681C181.421 253.756 181.577 253.756 181.702 253.681C181.827 253.609 181.906 253.473 181.906 253.327L181.92 242.816C181.92 242.744 181.911 242.674 181.893 242.604C181.874 242.535 181.847 242.47 181.812 242.407C181.776 242.345 181.732 242.289 181.682 242.238C181.631 242.188 181.574 242.145 181.512 242.109L174.73 238.194C174.616 238.127 174.494 238.104 174.363 238.099H174.282L174.282 238.098ZM235.224 238.194C235.078 238.194 234.942 238.23 234.816 238.303L228.034 242.219C227.781 242.365 227.626 242.633 227.626 242.926V250.758C227.626 251.053 227.791 251.319 228.047 251.465L234.775 255.301C235.023 255.443 235.326 255.454 235.576 255.315L239.654 253.044C239.783 252.972 239.87 252.838 239.871 252.69C239.871 252.543 239.795 252.41 239.667 252.337L232.844 248.421C232.716 248.348 232.627 248.2 232.627 248.053V245.604C232.627 245.458 232.717 245.324 232.844 245.251L234.964 244.027C235.09 243.954 235.245 243.954 235.372 244.027L237.497 245.251C237.528 245.269 237.556 245.29 237.582 245.315C237.607 245.341 237.629 245.369 237.647 245.4C237.665 245.431 237.678 245.464 237.687 245.498C237.696 245.533 237.701 245.568 237.701 245.604V247.535C237.701 247.571 237.706 247.606 237.715 247.641C237.724 247.675 237.738 247.708 237.755 247.739C237.773 247.77 237.795 247.798 237.82 247.824C237.846 247.849 237.874 247.871 237.905 247.889C238.032 247.962 238.186 247.962 238.313 247.889L242.376 245.522C242.628 245.376 242.784 245.107 242.784 244.815V242.926C242.784 242.854 242.775 242.784 242.756 242.714C242.738 242.645 242.711 242.579 242.675 242.517C242.639 242.455 242.596 242.399 242.545 242.348C242.495 242.298 242.438 242.254 242.376 242.219L235.635 238.302C235.509 238.229 235.373 238.193 235.227 238.194L235.224 238.194ZM214.945 244.041C214.984 244.041 215.02 244.05 215.054 244.068L217.378 245.414C217.441 245.451 217.487 245.518 217.487 245.591V248.283C217.487 248.357 217.442 248.424 217.378 248.46L215.054 249.806C214.991 249.842 214.914 249.842 214.85 249.806L212.526 248.46C212.463 248.424 212.417 248.356 212.417 248.283V245.592C212.417 245.519 212.463 245.452 212.526 245.415L214.85 244.069C214.882 244.051 214.91 244.042 214.945 244.042V244.041Z" fill="#3DCC0D"/>
</g>
<path d="M194.655 238.154C194.509 238.153 194.374 238.19 194.247 238.262L187.465 242.165C187.212 242.311 187.058 242.593 187.058 242.886V250.718C187.057 250.79 187.066 250.86 187.085 250.929C187.103 250.999 187.131 251.064 187.166 251.126C187.202 251.188 187.245 251.245 187.296 251.295C187.347 251.346 187.403 251.389 187.465 251.425L194.247 255.341C194.309 255.377 194.375 255.404 194.444 255.423C194.513 255.442 194.583 255.451 194.655 255.451C194.726 255.451 194.797 255.442 194.866 255.423C194.935 255.404 195.001 255.377 195.063 255.341L201.845 251.425C201.907 251.389 201.963 251.346 202.014 251.295C202.064 251.244 202.108 251.188 202.143 251.126C202.179 251.064 202.206 250.998 202.225 250.929C202.243 250.86 202.252 250.79 202.252 250.718V242.886C202.252 242.593 202.098 242.311 201.844 242.165L195.062 238.263C194.936 238.19 194.8 238.153 194.654 238.154L194.655 238.154ZM235.211 245.143C235.184 245.143 235.154 245.143 235.13 245.156L233.825 245.918C233.8 245.931 233.781 245.95 233.766 245.975C233.751 245.999 233.744 246.025 233.743 246.054V247.549C233.743 247.606 233.776 247.657 233.825 247.686L235.13 248.434C235.152 248.448 235.177 248.455 235.204 248.455C235.231 248.455 235.256 248.448 235.279 248.434L236.584 247.686C236.632 247.658 236.665 247.606 236.665 247.549V246.054C236.665 245.997 236.632 245.946 236.584 245.918L235.279 245.156C235.255 245.142 235.238 245.143 235.211 245.143L235.211 245.143Z" fill="#83CD29"/>
<mask id="mask6_303_303" style="mask-type:luminance" maskUnits="userSpaceOnUse" x="0" y="0" width="50" height="50">
<path d="M0 0H50V50H0V0Z" fill="white"/>
</mask>
<g mask="url(#mask6_303_303)">
<path d="M25 0.00878906C11.1938 0.00878906 0 11.3725 0 25.3883C0 37.2807 8.06673 47.2316 18.9417 49.9852C18.825 49.6426 18.75 49.245 18.75 48.7522V44.4143C17.7354 44.4143 16.0355 44.4143 15.6084 44.4143C13.8979 44.4143 12.3771 43.6678 11.6396 42.2804C10.8208 40.7386 10.6791 38.3804 8.64996 36.9381C8.04791 36.458 8.50621 35.9102 9.20006 35.9842C10.4813 36.3523 11.5438 37.2447 12.5437 38.5686C13.5396 39.8948 14.0084 40.195 15.8688 40.195C16.7708 40.195 18.1209 40.1422 19.3916 39.9392C20.075 38.1775 21.2563 36.5552 22.7 35.7896C14.375 34.9203 10.4021 30.7158 10.4021 25.0075C10.4021 22.5499 11.4333 20.1728 13.1855 18.1699C12.6105 16.1819 11.8875 12.1275 13.4063 10.5836C17.152 10.5836 19.4166 13.0497 19.9604 13.7158C21.827 13.0665 23.8771 12.6985 26.0312 12.6985C28.1896 12.6985 30.2479 13.0665 32.1188 13.72C32.6562 13.058 34.9229 10.5836 38.677 10.5836C40.2022 12.1296 39.4708 16.2009 38.8896 18.1847C40.6313 20.1833 41.6562 22.5543 41.6562 25.0075C41.6562 30.7116 37.6896 34.9141 29.3771 35.7875C31.6646 36.9993 33.3333 40.4044 33.3333 42.9699V48.7522C33.3333 48.9721 33.2854 49.1307 33.2604 49.3189C43.0021 45.8525 50 36.4622 50 25.3883C50 11.3725 38.8062 0.00878906 25 0.00878906Z" fill="#3DCC0D"/>
</g>
<path d="M111.044 256.317C112.205 255.659 113.686 255.656 114.818 256.317L132.156 266.091C133.24 266.701 133.966 267.91 133.956 269.16V288.758C133.963 290.06 133.166 291.296 132.022 291.894L114.778 301.623C114.704 301.664 114.63 301.702 114.554 301.737C114.478 301.773 114.401 301.806 114.323 301.836C114.245 301.867 114.166 301.894 114.086 301.92C114.006 301.945 113.926 301.967 113.844 301.987C113.763 302.007 113.681 302.024 113.598 302.038C113.516 302.053 113.433 302.064 113.349 302.073C113.266 302.082 113.183 302.088 113.099 302.091C113.015 302.094 112.932 302.095 112.848 302.093C112.764 302.09 112.681 302.085 112.597 302.077C112.514 302.069 112.431 302.059 112.348 302.045C112.265 302.032 112.183 302.016 112.101 301.997C112.02 301.978 111.939 301.956 111.859 301.932C111.779 301.908 111.699 301.881 111.621 301.851C111.543 301.822 111.465 301.79 111.389 301.755C111.313 301.72 111.238 301.683 111.164 301.643C111.09 301.604 111.018 301.562 110.947 301.517L105.772 298.527C105.419 298.316 105.023 298.149 104.773 297.808C104.994 297.512 105.386 297.474 105.705 297.343C106.425 297.114 107.084 296.763 107.746 296.391C107.913 296.275 108.118 296.319 108.277 296.423L112.69 298.975C113.005 299.157 113.325 298.917 113.595 298.765L130.527 289.208C130.736 289.106 130.852 288.886 130.835 288.656V269.247C130.858 268.986 130.709 268.748 130.472 268.642L113.271 258.954C113.246 258.937 113.22 258.922 113.194 258.909C113.167 258.896 113.139 258.885 113.11 258.876C113.082 258.867 113.053 258.86 113.023 258.856C112.993 258.851 112.964 258.849 112.934 258.849C112.904 258.849 112.874 258.851 112.844 258.855C112.815 258.86 112.785 258.866 112.757 258.875C112.728 258.884 112.7 258.895 112.673 258.908C112.646 258.921 112.621 258.936 112.596 258.953L95.4192 268.66C95.187 268.766 95.0273 269.002 95.0563 269.263V288.672C95.036 288.902 95.158 289.118 95.3684 289.217L99.9584 291.808C100.821 292.273 101.879 292.534 102.828 292.193C102.88 292.173 102.93 292.152 102.98 292.129C103.03 292.105 103.079 292.08 103.127 292.053C103.175 292.026 103.222 291.997 103.268 291.967C103.314 291.936 103.359 291.904 103.402 291.87C103.445 291.836 103.487 291.801 103.528 291.763C103.569 291.726 103.608 291.688 103.646 291.648C103.684 291.607 103.72 291.566 103.754 291.523C103.789 291.48 103.822 291.436 103.853 291.391C103.884 291.345 103.914 291.299 103.942 291.251C103.969 291.204 103.995 291.155 104.019 291.106C104.043 291.056 104.066 291.006 104.086 290.954C104.106 290.903 104.124 290.851 104.14 290.799C104.157 290.746 104.171 290.693 104.183 290.639C104.196 290.585 104.206 290.531 104.214 290.477C104.222 290.422 104.228 290.367 104.232 290.312C104.236 290.257 104.238 290.202 104.238 290.147L104.242 270.854C104.222 270.568 104.492 270.331 104.769 270.36H106.975C107.266 270.353 107.494 270.661 107.454 270.948L107.45 290.364C107.451 292.088 106.743 293.964 105.148 294.81C103.182 295.826 100.752 295.613 98.8101 294.636L93.8748 291.907C92.7135 291.326 91.934 290.072 91.9412 288.771V269.173C91.9419 269.094 91.9451 269.015 91.951 268.936C91.9568 268.857 91.9653 268.778 91.9764 268.7C91.9874 268.621 92.0011 268.543 92.0174 268.466C92.0337 268.388 92.0525 268.312 92.0739 268.235C92.0954 268.159 92.1192 268.084 92.1456 268.009C92.1721 267.934 92.2008 267.861 92.2322 267.788C92.2635 267.715 92.2972 267.644 92.3333 267.573C92.3693 267.503 92.4077 267.433 92.4484 267.365C92.489 267.297 92.532 267.231 92.577 267.166C92.6222 267.101 92.6693 267.037 92.7187 266.975C92.768 266.913 92.8193 266.853 92.8727 266.795C92.926 266.736 92.9812 266.679 93.0383 266.625C93.0954 266.57 93.1542 266.517 93.2149 266.466C93.2755 266.415 93.3377 266.366 93.4016 266.319C93.4654 266.272 93.5308 266.228 93.5977 266.185C93.6645 266.143 93.7326 266.103 93.8021 266.065L111.044 256.317ZM116.043 269.902C118.55 269.757 121.234 269.806 123.49 271.041C125.236 271.988 126.204 273.974 126.236 275.916C126.187 276.178 125.914 276.323 125.665 276.304C124.939 276.302 124.21 276.314 123.481 276.299C123.172 276.311 122.994 276.026 122.954 275.754C122.745 274.825 122.239 273.906 121.365 273.457C120.024 272.785 118.468 272.818 117.004 272.833C115.936 272.891 114.788 272.982 113.883 273.609C113.187 274.086 112.978 275.061 113.226 275.819C113.458 276.375 114.101 276.553 114.625 276.719C117.647 277.509 120.848 277.445 123.814 278.471C125.04 278.895 126.241 279.72 126.662 281.004C127.21 282.726 126.971 284.785 125.747 286.167C124.754 287.305 123.309 287.909 121.864 288.26C119.944 288.688 117.952 288.699 116.003 288.507C114.169 288.298 112.262 287.816 110.847 286.567C109.636 285.516 109.047 283.879 109.105 282.299C109.119 282.032 109.385 281.846 109.642 281.868H111.819C112.113 281.848 112.327 282.1 112.342 282.376C112.477 283.247 112.809 284.191 113.581 284.699C115.071 285.66 116.939 285.593 118.643 285.621C120.056 285.558 121.641 285.54 122.795 284.605C123.404 284.072 123.583 283.182 123.419 282.415C123.24 281.768 122.548 281.468 121.967 281.254C118.984 280.31 115.747 280.653 112.793 279.585C111.594 279.161 110.434 278.359 109.974 277.127C109.331 275.385 109.626 273.226 110.98 271.891C112.287 270.562 114.203 270.05 116.017 269.867L116.043 269.902Z" fill="#8CC84B"/>
<mask id="mask7_303_303" style="mask-type:luminance" maskUnits="userSpaceOnUse" x="1" y="271" width="48" height="48">
<path d="M1.53101 271.531H48.481V318.481H1.53101V271.531Z" fill="white"/>
</mask>
<g mask="url(#mask7_303_303)">
<path d="M1.53101 271.531H48.481V318.481H1.53101V271.531Z" fill="#FFD600"/>
</g>
<path d="M32.2287 306.674C33.1311 308.14 34.1119 309.545 36.1893 309.545C37.9344 309.545 38.8499 308.677 38.8499 307.478C38.8499 306.042 37.903 305.532 35.9833 304.696L34.9309 304.247C31.8934 302.959 29.8733 301.344 29.8733 297.934C29.8733 294.791 32.2794 292.399 36.0393 292.399C38.7168 292.399 40.6405 293.326 42.0281 295.754L38.7495 297.85C38.0283 296.562 37.2483 296.054 36.0393 296.054C34.8056 296.054 34.0245 296.833 34.0245 297.85C34.0245 299.107 34.8069 299.616 36.6132 300.395L37.6656 300.843C41.2456 302.368 43.2645 303.925 43.2645 307.425C43.2645 311.197 40.2857 313.264 36.2871 313.264C32.3759 313.264 30.155 311.301 28.9186 308.872L32.2287 306.674ZM17.1185 306.781C17.7784 307.963 18.7814 308.872 20.2237 308.872C21.6035 308.872 22.3978 308.326 22.3978 306.207V292.397H26.7445V306.875C26.7445 311.266 24.1975 313.264 20.478 313.264C17.1172 313.264 14.6914 310.987 13.7029 308.872L17.1185 306.781Z" fill="black"/>
<mask id="mask8_303_303" style="mask-type:luminance" maskUnits="userSpaceOnUse" x="96" y="35" width="34" height="39">
<path d="M96.0999 35.5H129.918V73.8325H96.0999V35.5Z" fill="white"/>
</mask>
<g mask="url(#mask8_303_303)">
<path d="M129.909 35.5259L126.83 69.996L112.992 73.8301L99.191 70.0013L96.1157 35.5259L129.908 35.5254H129.91L129.909 35.5259Z" fill="#E44D26"/>
</g>
<path d="M113.013 70.8999L124.196 67.8019L126.827 38.3456L113.013 38.3452V70.8999Z" fill="#F16529"/>
<path d="M107.028 46.8019H113.013V42.5732H102.404L102.505 43.7079L103.545 55.3598H113.013V51.1325H107.414L107.028 46.8019Z" fill="#F0F0F0"/>
<path d="M107.982 57.4741H103.735L104.327 64.1136L112.993 66.5179L113.013 66.5127V62.1132L112.995 62.1185L108.283 60.8461L107.982 57.4741Z" fill="#F0F0F0"/>
<mask id="mask9_303_303" style="mask-type:luminance" maskUnits="userSpaceOnUse" x="99" y="26" width="7" height="7">
<path d="M99.2339 26.1577H105.534V32.6002H99.2339V26.1577Z" fill="white"/>
</mask>
<g mask="url(#mask9_303_303)">
<path d="M99.2598 26.1577H101.41V28.2806H103.376V26.1577H105.526V32.5865H103.376V30.4338H101.41V32.5865H99.2598V26.1577Z" fill="#3DCC0D"/>
</g>
<mask id="mask10_303_303" style="mask-type:luminance" maskUnits="userSpaceOnUse" x="106" y="26" width="7" height="7">
<path d="M106.434 26.1577H112.401V32.6002H106.434V26.1577Z" fill="white"/>
</mask>
<g mask="url(#mask10_303_303)">
<path d="M108.354 28.2896H106.461V26.1577H112.398V28.2896H110.504V32.5865H108.354V28.2896H108.354Z" fill="#3DCC0D"/>
</g>
<mask id="mask11_303_303" style="mask-type:luminance" maskUnits="userSpaceOnUse" x="113" y="26" width="8" height="7">
<path d="M113.334 26.1577H120.601V32.6002H113.334V26.1577Z" fill="white"/>
</mask>
<g mask="url(#mask11_303_303)">
<path d="M113.341 26.1577H115.582L116.961 28.4166L118.339 26.1577H120.582V32.5865H118.441V29.4L116.961 31.6857H116.924L115.444 29.4V32.5865H113.341V26.1577Z" fill="#3DCC0D"/>
</g>
<mask id="mask12_303_303" style="mask-type:luminance" maskUnits="userSpaceOnUse" x="121" y="26" width="6" height="7">
<path d="M121.634 26.1577H126.834V32.6002H121.634V26.1577Z" fill="white"/>
</mask>
<g mask="url(#mask12_303_303)">
<path d="M121.651 26.1577H123.801V30.4615H126.825V32.5865H121.651V26.1577Z" fill="#3DCC0D"/>
</g>
<path d="M112.998 55.3597H118.208L117.717 60.8434L112.998 62.117V66.5151L121.671 64.1134L121.735 63.3986L122.729 52.267L122.833 51.1323H112.998V55.3597Z" fill="#F0F0F0"/>
<path d="M112.998 46.7912V46.8019H123.217L123.302 45.8512L123.495 43.7079L123.596 42.5732H112.998V46.7912Z" fill="#F0F0F0"/>
<mask id="mask13_303_303" style="mask-type:luminance" maskUnits="userSpaceOnUse" x="692" y="68" width="34" height="39">
<path d="M692.3 68.7002H725.694V106.566H692.3V68.7002Z" fill="white"/>
</mask>
<g mask="url(#mask13_303_303)">
<path d="M708.98 106.564L695.353 102.779L692.316 68.7017L725.684 68.7012L722.646 102.774L708.98 106.563L708.98 106.564Z" fill="#0277BD"/>
</g>
<path d="M720.043 100.605L722.641 71.4887L709.001 71.4883V103.667L720.043 100.605V100.605Z" fill="#039BE5"/>
<path d="M699.278 84.1272L699.652 88.3057H709.001V84.1272H699.278Z" fill="#F0F0F0"/>
<path d="M698.526 75.667L698.905 79.8469H709.001V75.667H698.526Z" fill="#F0F0F0"/>
<path d="M709.001 94.9813L708.982 94.9865L704.33 93.729L704.032 90.3958H699.839L700.424 96.9586L708.981 99.3352L709.001 99.33V94.9813Z" fill="#F0F0F0"/>
<mask id="mask14_303_303" style="mask-type:luminance" maskUnits="userSpaceOnUse" x="700" y="59" width="6" height="7">
<path d="M700.167 59.4409H705.233V65.8002H700.167V59.4409Z" fill="white"/>
</mask>
<g mask="url(#mask14_303_303)">
<path d="M700.169 59.4409H705.229V61.5578H702.285V63.6748H705.229V65.7916H700.169V59.4409Z" fill="#3DCC0D"/>
</g>
<mask id="mask15_303_303" style="mask-type:luminance" maskUnits="userSpaceOnUse" x="706" y="59" width="6" height="7">
<path d="M706.233 59.4409H711.333V65.9002H706.233V59.4409Z" fill="white"/>
</mask>
<g mask="url(#mask15_303_303)">
<path d="M706.241 59.4409H711.301V61.2818H708.358V61.6499H711.301V65.8836H706.241V63.9509H709.185V63.5826H706.241V59.4409Z" fill="#3DCC0D"/>
</g>
<mask id="mask16_303_303" style="mask-type:luminance" maskUnits="userSpaceOnUse" x="712" y="59" width="6" height="7">
<path d="M712.3 59.4409H717.4V65.9002H712.3V59.4409Z" fill="white"/>
</mask>
<g mask="url(#mask16_303_303)">
<path d="M712.313 59.4409H717.372V61.2818H714.428V61.6499H717.372V65.8836H712.313V63.9509H715.256V63.5826H712.313V59.4409Z" fill="#3DCC0D"/>
</g>
<path d="M718.697 84.1275L719.451 75.667H708.986V79.8469H714.873L714.493 84.1275H708.986V88.3061H714.131L713.646 93.7266L708.986 94.9855V99.3329L717.55 96.9589L717.613 96.2523L718.595 85.249L718.697 84.1275Z" fill="#F0F0F0"/>
<mask id="mask17_303_303" style="mask-type:luminance" maskUnits="userSpaceOnUse" x="762" y="215" width="17" height="19">
<path d="M762.8 216H778.27V233.466H762.8V216Z" fill="white"/>
</mask>
<g mask="url(#mask17_303_303)">
<path d="M770.544 216.001C770.309 216.001 770.08 216.05 769.878 216.164L763.477 219.863C763.063 220.101 762.811 220.553 762.811 221.032V228.416C762.811 228.895 763.063 229.346 763.477 229.585L765.149 230.549C765.961 230.95 766.26 230.943 766.63 230.943C767.832 230.943 768.519 230.213 768.519 228.944V221.659C768.519 221.556 768.43 221.483 768.329 221.483H767.527C767.424 221.483 767.337 221.558 767.337 221.659V228.948C767.337 229.51 766.751 230.076 765.801 229.6L764.063 228.581C764.002 228.547 763.954 228.486 763.954 228.418V221.034C763.954 220.964 764.001 220.892 764.063 220.857L770.451 217.172C770.511 217.137 770.582 217.137 770.641 217.172L777.029 220.857C777.09 220.893 777.138 220.962 777.138 221.034V228.418C777.138 228.488 777.103 228.56 777.043 228.594L770.642 232.28C770.585 232.312 770.509 232.312 770.451 232.28L768.807 231.301C768.757 231.272 768.691 231.274 768.644 231.301C768.19 231.558 768.104 231.588 767.679 231.736C767.574 231.772 767.414 231.829 767.733 232.008L769.881 233.274C770.085 233.392 770.313 233.451 770.546 233.451C770.784 233.451 771.008 233.394 771.213 233.274L777.614 229.589C778.028 229.348 778.28 228.899 778.28 228.419V221.036C778.28 220.556 778.028 220.106 777.614 219.866L771.213 216.168C771.012 216.053 770.782 216.005 770.546 216.005L770.544 216.001ZM772.257 221.277C770.434 221.277 769.348 222.054 769.348 223.344C769.348 224.743 770.426 225.129 772.175 225.302C774.268 225.507 774.431 225.815 774.431 226.227C774.431 226.942 773.862 227.247 772.515 227.247C770.823 227.247 770.451 226.824 770.327 225.98C770.312 225.89 770.243 225.817 770.15 225.817H769.319C769.294 225.818 769.27 225.823 769.247 225.833C769.224 225.843 769.203 225.856 769.186 225.874C769.168 225.892 769.154 225.912 769.145 225.935C769.135 225.959 769.13 225.982 769.129 226.008C769.129 227.085 769.715 228.36 772.513 228.36C774.539 228.36 775.707 227.566 775.707 226.171C775.707 224.791 774.763 224.418 772.799 224.158C770.815 223.893 770.624 223.767 770.624 223.301C770.624 222.917 770.784 222.404 772.255 222.404C773.568 222.404 774.054 222.687 774.253 223.573C774.27 223.656 774.344 223.724 774.43 223.724H775.261C775.312 223.724 775.361 223.693 775.397 223.656C775.431 223.617 775.456 223.573 775.451 223.52C775.323 221.994 774.306 221.276 772.257 221.276L772.257 221.277Z" fill="#83CD29"/>
</g>
<mask id="mask18_303_303" style="mask-type:luminance" maskUnits="userSpaceOnUse" x="681" y="206" width="77" height="28">
<path d="M681.719 206.267H757.799V233.6H681.719V206.267Z" fill="white"/>
</mask>
<g mask="url(#mask18_303_303)">
<path d="M732.909 206.322C732.837 206.322 732.769 206.34 732.705 206.376C732.675 206.394 732.646 206.416 732.621 206.441C732.596 206.467 732.575 206.495 732.557 206.526C732.539 206.557 732.525 206.59 732.516 206.624C732.507 206.659 732.502 206.694 732.502 206.73V217.132C732.502 217.234 732.454 217.326 732.365 217.377C732.321 217.403 732.274 217.415 732.223 217.415C732.172 217.415 732.124 217.403 732.08 217.377L730.381 216.398C730.319 216.362 730.254 216.335 730.184 216.316C730.115 216.298 730.045 216.288 729.974 216.288C729.902 216.288 729.832 216.298 729.762 216.316C729.693 216.335 729.628 216.362 729.566 216.398L722.784 220.314C722.531 220.46 722.376 220.742 722.376 221.035V228.867C722.376 228.939 722.385 229.009 722.404 229.078C722.422 229.147 722.45 229.213 722.485 229.275C722.521 229.337 722.564 229.394 722.615 229.444C722.666 229.495 722.722 229.538 722.784 229.574L729.566 233.49C729.628 233.526 729.694 233.553 729.763 233.572C729.832 233.591 729.902 233.6 729.974 233.6C730.045 233.6 730.116 233.591 730.185 233.572C730.254 233.553 730.32 233.526 730.382 233.49L737.164 229.574C737.226 229.538 737.282 229.495 737.333 229.444C737.383 229.394 737.427 229.337 737.462 229.275C737.498 229.213 737.525 229.147 737.544 229.078C737.562 229.009 737.571 228.939 737.571 228.867V209.34C737.571 209.043 737.409 208.765 737.15 208.62L733.113 206.361C733.05 206.326 732.98 206.32 732.909 206.321L732.909 206.322ZM689.282 216.098C689.152 216.104 689.031 216.126 688.915 216.194L682.133 220.11C682.071 220.146 682.014 220.189 681.964 220.239C681.913 220.29 681.87 220.346 681.834 220.408C681.798 220.471 681.771 220.536 681.753 220.605C681.734 220.675 681.725 220.745 681.725 220.817L681.739 231.328C681.739 231.475 681.815 231.61 681.943 231.682C682.069 231.757 682.225 231.757 682.351 231.682L686.374 229.37C686.629 229.219 686.795 228.955 686.795 228.663V223.754C686.795 223.461 686.949 223.192 687.203 223.047L688.915 222.054C689.041 221.981 689.177 221.945 689.323 221.946C689.469 221.945 689.605 221.981 689.731 222.054L691.443 223.046C691.696 223.192 691.85 223.461 691.85 223.753V228.662C691.85 228.954 692.02 229.22 692.271 229.369L696.294 231.681C696.421 231.756 696.577 231.756 696.702 231.681C696.827 231.609 696.906 231.473 696.906 231.327L696.92 220.816C696.92 220.744 696.911 220.674 696.893 220.604C696.874 220.535 696.847 220.47 696.812 220.407C696.776 220.345 696.732 220.289 696.682 220.238C696.631 220.188 696.574 220.145 696.512 220.109L689.73 216.194C689.616 216.127 689.494 216.104 689.363 216.099H689.282L689.282 216.098ZM750.224 216.194C750.078 216.194 749.942 216.23 749.816 216.303L743.034 220.219C742.781 220.365 742.626 220.633 742.626 220.926V228.758C742.626 229.053 742.791 229.319 743.047 229.465L749.775 233.301C750.023 233.443 750.326 233.454 750.576 233.315L754.654 231.044C754.783 230.972 754.87 230.838 754.871 230.69C754.871 230.543 754.795 230.41 754.667 230.337L747.844 226.421C747.716 226.348 747.627 226.2 747.627 226.053V223.604C747.627 223.458 747.717 223.324 747.844 223.251L749.964 222.027C750.09 221.954 750.245 221.954 750.372 222.027L752.497 223.251C752.528 223.269 752.556 223.29 752.582 223.315C752.607 223.341 752.629 223.369 752.647 223.4C752.665 223.431 752.678 223.464 752.687 223.498C752.696 223.533 752.701 223.568 752.701 223.604V225.535C752.701 225.571 752.706 225.606 752.715 225.641C752.724 225.675 752.738 225.708 752.755 225.739C752.773 225.77 752.795 225.798 752.82 225.824C752.846 225.849 752.874 225.871 752.905 225.889C753.032 225.962 753.186 225.962 753.313 225.889L757.376 223.522C757.628 223.376 757.784 223.107 757.784 222.815V220.926C757.784 220.854 757.775 220.784 757.756 220.714C757.738 220.645 757.711 220.579 757.675 220.517C757.639 220.455 757.596 220.399 757.545 220.348C757.495 220.298 757.438 220.254 757.376 220.219L750.635 216.302C750.509 216.229 750.373 216.193 750.227 216.194L750.224 216.194ZM729.945 222.041C729.984 222.041 730.02 222.05 730.054 222.068L732.378 223.414C732.441 223.451 732.487 223.518 732.487 223.591V226.283C732.487 226.357 732.442 226.424 732.378 226.46L730.054 227.806C729.991 227.842 729.914 227.842 729.85 227.806L727.526 226.46C727.463 226.424 727.417 226.356 727.417 226.283V223.592C727.417 223.519 727.463 223.452 727.526 223.415L729.85 222.069C729.882 222.051 729.91 222.042 729.945 222.042V222.041Z" fill="#3DCC0D"/>
</g>
<path d="M709.655 216.154C709.509 216.153 709.374 216.19 709.247 216.262L702.465 220.165C702.212 220.311 702.058 220.593 702.058 220.886V228.718C702.057 228.79 702.066 228.86 702.085 228.929C702.103 228.999 702.131 229.064 702.166 229.126C702.202 229.188 702.245 229.245 702.296 229.295C702.347 229.346 702.403 229.389 702.465 229.425L709.247 233.341C709.309 233.377 709.375 233.404 709.444 233.423C709.513 233.442 709.583 233.451 709.655 233.451C709.726 233.451 709.797 233.442 709.866 233.423C709.935 233.404 710.001 233.377 710.063 233.341L716.845 229.425C716.907 229.389 716.963 229.346 717.014 229.295C717.064 229.244 717.108 229.188 717.143 229.126C717.179 229.064 717.206 228.998 717.225 228.929C717.243 228.86 717.252 228.79 717.252 228.718V220.886C717.252 220.593 717.098 220.311 716.844 220.165L710.062 216.263C709.936 216.19 709.8 216.153 709.654 216.154L709.655 216.154ZM750.211 223.143C750.184 223.143 750.154 223.143 750.13 223.156L748.825 223.918C748.8 223.931 748.781 223.95 748.766 223.975C748.751 223.999 748.744 224.025 748.743 224.054V225.549C748.743 225.606 748.776 225.657 748.825 225.686L750.13 226.434C750.152 226.448 750.177 226.455 750.204 226.455C750.231 226.455 750.256 226.448 750.279 226.434L751.584 225.686C751.632 225.658 751.665 225.606 751.665 225.549V224.054C751.665 223.997 751.632 223.946 751.584 223.918L750.279 223.156C750.255 223.142 750.238 223.143 750.211 223.143L750.211 223.143Z" fill="#83CD29"/>
<mask id="mask19_303_303" style="mask-type:luminance" maskUnits="userSpaceOnUse" x="860" y="0" width="50" height="50">
<path d="M860 0H910V50H860V0Z" fill="white"/>
</mask>
<g mask="url(#mask19_303_303)">
<path d="M885 0.00878906C871.194 0.00878906 860 11.3725 860 25.3883C860 37.2807 868.067 47.2316 878.942 49.9852C878.825 49.6426 878.75 49.245 878.75 48.7522V44.4143C877.735 44.4143 876.035 44.4143 875.608 44.4143C873.898 44.4143 872.377 43.6678 871.64 42.2804C870.821 40.7386 870.679 38.3804 868.65 36.9381C868.048 36.458 868.506 35.9102 869.2 35.9842C870.481 36.3523 871.544 37.2447 872.544 38.5686C873.54 39.8948 874.008 40.195 875.869 40.195C876.771 40.195 878.121 40.1422 879.392 39.9392C880.075 38.1775 881.256 36.5552 882.7 35.7896C874.375 34.9203 870.402 30.7158 870.402 25.0075C870.402 22.5499 871.433 20.1728 873.185 18.1699C872.61 16.1819 871.888 12.1275 873.406 10.5836C877.152 10.5836 879.417 13.0497 879.96 13.7158C881.827 13.0665 883.877 12.6985 886.031 12.6985C888.19 12.6985 890.248 13.0665 892.119 13.72C892.656 13.058 894.923 10.5836 898.677 10.5836C900.202 12.1296 899.471 16.2009 898.89 18.1847C900.631 20.1833 901.656 22.5543 901.656 25.0075C901.656 30.7116 897.69 34.9141 889.377 35.7875C891.665 36.9993 893.333 40.4044 893.333 42.9699V48.7522C893.333 48.9721 893.285 49.1307 893.26 49.3189C903.002 45.8525 910 36.4622 910 25.3883C910 11.3725 898.806 0.00878906 885 0.00878906Z" fill="#3DCC0D"/>
</g>
<path d="M795.044 256.317C796.205 255.659 797.686 255.656 798.818 256.317L816.156 266.091C817.24 266.701 817.966 267.91 817.956 269.16V288.758C817.963 290.06 817.166 291.296 816.022 291.894L798.778 301.623C798.704 301.664 798.63 301.702 798.554 301.737C798.478 301.773 798.401 301.806 798.323 301.836C798.245 301.867 798.166 301.894 798.086 301.92C798.006 301.945 797.926 301.967 797.844 301.987C797.763 302.007 797.681 302.024 797.598 302.038C797.516 302.053 797.433 302.064 797.349 302.073C797.266 302.082 797.183 302.088 797.099 302.091C797.015 302.094 796.932 302.095 796.848 302.093C796.764 302.09 796.681 302.085 796.597 302.077C796.514 302.069 796.431 302.059 796.348 302.045C796.265 302.032 796.183 302.016 796.101 301.997C796.02 301.978 795.939 301.956 795.859 301.932C795.779 301.908 795.699 301.881 795.621 301.851C795.543 301.822 795.465 301.79 795.389 301.755C795.313 301.72 795.238 301.683 795.164 301.643C795.09 301.604 795.018 301.562 794.947 301.517L789.772 298.527C789.419 298.316 789.023 298.149 788.773 297.808C788.994 297.512 789.386 297.474 789.705 297.343C790.425 297.114 791.084 296.763 791.746 296.391C791.913 296.275 792.118 296.319 792.277 296.423L796.69 298.975C797.005 299.157 797.325 298.917 797.595 298.765L814.527 289.208C814.736 289.106 814.852 288.886 814.835 288.656V269.247C814.858 268.986 814.709 268.748 814.472 268.642L797.271 258.954C797.246 258.937 797.22 258.922 797.194 258.909C797.167 258.896 797.139 258.885 797.11 258.876C797.082 258.867 797.053 258.86 797.023 258.856C796.993 258.851 796.964 258.849 796.934 258.849C796.904 258.849 796.874 258.851 796.844 258.855C796.815 258.86 796.785 258.866 796.757 258.875C796.728 258.884 796.7 258.895 796.673 258.908C796.646 258.921 796.621 258.936 796.596 258.953L779.419 268.66C779.187 268.766 779.027 269.002 779.056 269.263V288.672C779.036 288.902 779.158 289.118 779.368 289.217L783.958 291.808C784.821 292.273 785.879 292.534 786.828 292.193C786.88 292.173 786.93 292.152 786.98 292.129C787.03 292.105 787.079 292.08 787.127 292.053C787.175 292.026 787.222 291.997 787.268 291.967C787.314 291.936 787.359 291.904 787.402 291.87C787.445 291.836 787.487 291.801 787.528 291.763C787.569 291.726 787.608 291.688 787.646 291.648C787.684 291.607 787.72 291.566 787.754 291.523C787.789 291.48 787.822 291.436 787.853 291.391C787.884 291.345 787.914 291.299 787.942 291.251C787.969 291.204 787.995 291.155 788.019 291.106C788.043 291.056 788.066 291.006 788.086 290.954C788.106 290.903 788.124 290.851 788.14 290.799C788.157 290.746 788.171 290.693 788.183 290.639C788.196 290.585 788.206 290.531 788.214 290.477C788.222 290.422 788.228 290.367 788.232 290.312C788.236 290.257 788.238 290.202 788.238 290.147L788.242 270.854C788.222 270.568 788.492 270.331 788.769 270.36H790.975C791.266 270.353 791.494 270.661 791.454 270.948L791.45 290.364C791.451 292.088 790.743 293.964 789.148 294.81C787.182 295.826 784.752 295.613 782.81 294.636L777.875 291.907C776.713 291.326 775.934 290.072 775.941 288.771V269.173C775.942 269.094 775.945 269.015 775.951 268.936C775.957 268.857 775.965 268.778 775.976 268.7C775.987 268.621 776.001 268.543 776.017 268.466C776.034 268.388 776.053 268.312 776.074 268.235C776.095 268.159 776.119 268.084 776.146 268.009C776.172 267.934 776.201 267.861 776.232 267.788C776.263 267.715 776.297 267.644 776.333 267.573C776.369 267.503 776.408 267.433 776.448 267.365C776.489 267.297 776.532 267.231 776.577 267.166C776.622 267.101 776.669 267.037 776.719 266.975C776.768 266.913 776.819 266.853 776.873 266.795C776.926 266.736 776.981 266.679 777.038 266.625C777.095 266.57 777.154 266.517 777.215 266.466C777.275 266.415 777.338 266.366 777.402 266.319C777.465 266.272 777.531 266.228 777.598 266.185C777.665 266.143 777.733 266.103 777.802 266.065L795.044 256.317ZM800.043 269.902C802.55 269.757 805.234 269.806 807.49 271.041C809.236 271.988 810.204 273.974 810.236 275.916C810.187 276.178 809.914 276.323 809.665 276.304C808.939 276.302 808.21 276.314 807.481 276.299C807.172 276.311 806.994 276.026 806.954 275.754C806.745 274.825 806.239 273.906 805.365 273.457C804.024 272.785 802.468 272.818 801.004 272.833C799.936 272.891 798.788 272.982 797.883 273.609C797.187 274.086 796.978 275.061 797.226 275.819C797.458 276.375 798.101 276.553 798.625 276.719C801.647 277.509 804.848 277.445 807.814 278.471C809.04 278.895 810.241 279.72 810.662 281.004C811.21 282.726 810.971 284.785 809.747 286.167C808.754 287.305 807.309 287.909 805.864 288.26C803.944 288.688 801.952 288.699 800.003 288.507C798.169 288.298 796.262 287.816 794.847 286.567C793.636 285.516 793.047 283.879 793.105 282.299C793.119 282.032 793.385 281.846 793.642 281.868H795.819C796.113 281.848 796.327 282.1 796.342 282.376C796.477 283.247 796.809 284.191 797.581 284.699C799.071 285.66 800.939 285.593 802.643 285.621C804.056 285.558 805.641 285.54 806.795 284.605C807.404 284.072 807.583 283.182 807.419 282.415C807.24 281.768 806.548 281.468 805.967 281.254C802.984 280.31 799.747 280.653 796.793 279.585C795.594 279.161 794.434 278.359 793.974 277.127C793.331 275.385 793.626 273.226 794.98 271.891C796.287 270.562 798.203 270.05 800.017 269.867L800.043 269.902Z" fill="#8CC84B"/>
<mask id="mask20_303_303" style="mask-type:luminance" maskUnits="userSpaceOnUse" x="861" y="271" width="48" height="48">
<path d="M861.531 271.531H908.481V318.481H861.531V271.531Z" fill="white"/>
</mask>
<g mask="url(#mask20_303_303)">
<path d="M861.531 271.531H908.481V318.481H861.531V271.531Z" fill="#FFD600"/>
</g>
<path d="M892.229 306.674C893.131 308.14 894.112 309.545 896.189 309.545C897.934 309.545 898.85 308.677 898.85 307.478C898.85 306.042 897.903 305.532 895.983 304.696L894.931 304.247C891.893 302.959 889.873 301.344 889.873 297.934C889.873 294.791 892.279 292.399 896.039 292.399C898.717 292.399 900.641 293.326 902.028 295.754L898.749 297.85C898.028 296.562 897.248 296.054 896.039 296.054C894.806 296.054 894.024 296.833 894.024 297.85C894.024 299.107 894.807 299.616 896.613 300.395L897.666 300.843C901.246 302.368 903.264 303.925 903.264 307.425C903.264 311.197 900.286 313.264 896.287 313.264C892.376 313.264 890.155 311.301 888.919 308.872L892.229 306.674ZM877.119 306.781C877.778 307.963 878.781 308.872 880.224 308.872C881.604 308.872 882.398 308.326 882.398 306.207V292.397H886.745V306.875C886.745 311.266 884.198 313.264 880.478 313.264C877.117 313.264 874.691 310.987 873.703 308.872L877.119 306.781Z" fill="black"/>
<mask id="mask21_303_303" style="mask-type:luminance" maskUnits="userSpaceOnUse" x="780" y="35" width="34" height="39">
<path d="M780.1 35.5H813.918V73.8325H780.1V35.5Z" fill="white"/>
</mask>
<g mask="url(#mask21_303_303)">
<path d="M813.909 35.5259L810.83 69.996L796.992 73.8301L783.191 70.0013L780.116 35.5259L813.908 35.5254H813.91L813.909 35.5259Z" fill="#E44D26"/>
</g>
<path d="M797.013 70.8999L808.196 67.8019L810.827 38.3456L797.013 38.3452V70.8999Z" fill="#F16529"/>
<path d="M791.028 46.8019H797.013V42.5732H786.404L786.505 43.7079L787.545 55.3598H797.013V51.1325H791.414L791.028 46.8019Z" fill="#F0F0F0"/>
<path d="M791.982 57.4741H787.735L788.327 64.1136L796.993 66.5179L797.013 66.5127V62.1132L796.995 62.1185L792.283 60.8461L791.982 57.4741Z" fill="#F0F0F0"/>
<mask id="mask22_303_303" style="mask-type:luminance" maskUnits="userSpaceOnUse" x="783" y="26" width="7" height="7">
<path d="M783.234 26.1577H789.534V32.6002H783.234V26.1577Z" fill="white"/>
</mask>
<g mask="url(#mask22_303_303)">
<path d="M783.26 26.1577H785.41V28.2806H787.376V26.1577H789.526V32.5865H787.376V30.4338H785.41V32.5865H783.26V26.1577Z" fill="#3DCC0D"/>
</g>
<mask id="mask23_303_303" style="mask-type:luminance" maskUnits="userSpaceOnUse" x="790" y="26" width="7" height="7">
<path d="M790.434 26.1577H796.401V32.6002H790.434V26.1577Z" fill="white"/>
</mask>
<g mask="url(#mask23_303_303)">
<path d="M792.354 28.2896H790.461V26.1577H796.398V28.2896H794.504V32.5865H792.354V28.2896H792.354Z" fill="#3DCC0D"/>
</g>
<mask id="mask24_303_303" style="mask-type:luminance" maskUnits="userSpaceOnUse" x="797" y="26" width="8" height="7">
<path d="M797.334 26.1577H804.601V32.6002H797.334V26.1577Z" fill="white"/>
</mask>
<g mask="url(#mask24_303_303)">
<path d="M797.341 26.1577H799.582L800.961 28.4166L802.339 26.1577H804.582V32.5865H802.441V29.4L800.961 31.6857H800.924L799.444 29.4V32.5865H797.341V26.1577Z" fill="#3DCC0D"/>
</g>
<mask id="mask25_303_303" style="mask-type:luminance" maskUnits="userSpaceOnUse" x="805" y="26" width="6" height="7">
<path d="M805.634 26.1577H810.834V32.6002H805.634V26.1577Z" fill="white"/>
</mask>
<g mask="url(#mask25_303_303)">
<path d="M805.651 26.1577H807.801V30.4615H810.825V32.5865H805.651V26.1577Z" fill="#3DCC0D"/>
</g>
<path d="M796.998 55.3597H802.208L801.717 60.8434L796.998 62.117V66.5151L805.671 64.1134L805.735 63.3986L806.729 52.267L806.833 51.1323H796.998V55.3597Z" fill="#F0F0F0"/>
<path d="M796.998 46.7912V46.8019H807.217L807.302 45.8512L807.495 43.7079L807.596 42.5732H796.998V46.7912Z" fill="#F0F0F0"/>
</svg>
