<svg width="278" height="92" viewBox="0 0 278 92" fill="none" xmlns="http://www.w3.org/2000/svg">
<path d="M50.1875 78.875C48.7708 79.9167 46.375 81.1667 43 82.625C39.625 84.0833 36.0625 85.5208 32.3125 86.9375C28.4792 88.3542 24.9583 89.5417 21.75 90.5C18.5833 91.4167 16.4167 91.875 15.25 91.875C11.2083 91.8333 8.125 91.2083 6 90C2 87.75 0.729167 84.2708 2.1875 79.5625C3.22917 76.2292 6.27083 72.1667 11.3125 67.375C15.5208 63.4167 18.3333 61.8958 19.75 62.8125C21.1667 63.7292 19.9792 66.5 16.1875 71.125C14.9792 72.5417 13.7292 74.3958 12.4375 76.6875C11.1875 78.8958 10.6875 80.9375 10.9375 82.8125C15.5208 83.6875 20.1667 82.8958 24.875 80.4375C27.25 79.1875 29.5 77.9583 31.625 76.75C33.75 75.5 35.8542 74.2917 37.9375 73.125C39.8542 72.0417 41.4167 70.9583 42.625 69.875C43.875 68.75 44.75 67.5833 45.25 66.375C46.2917 63.875 46.2917 60.1667 45.25 55.25C35.25 59.5833 28.3333 61.3333 24.5 60.5C22.5833 60.0833 20.8958 58.6042 19.4375 56.0625C18.0208 53.4792 16.7083 49.8333 15.5 45.125C15.0417 43.25 14.7083 41.0417 14.5 38.5C14.2917 35.9167 14.3333 32.9375 14.625 29.5625C15.1667 22.8542 16.2708 17.875 17.9375 14.625C23.1875 8 26.6458 4.83333 28.3125 5.125C29.9792 5.375 29.6042 8.125 27.1875 13.375C24.6875 18.625 23.625 24.7708 24 31.8125C24.375 38.8542 25 43.5833 25.875 46C26.25 49.2083 28.4792 50.1875 32.5625 48.9375C36.7292 47.6042 40.3542 45.375 43.4375 42.25C43.6875 38.8333 43.8333 35.9792 43.875 33.6875C43.9583 31.3542 43.9583 29.5833 43.875 28.375C43.7083 25.9583 44.4792 23.1042 46.1875 19.8125C47.2708 17.0208 48.75 14.375 50.625 11.875C52.5 9.45833 54.1042 7.83333 55.4375 7C56.7708 6.16667 57.5625 6.4375 57.8125 7.8125C57.9375 8.52083 57.75 9.64583 57.25 11.1875C56.7917 12.6875 56.0625 14.625 55.0625 17C54.2708 18.875 53.7292 21.0208 53.4375 23.4375C53.1875 25.8125 53.1458 28.5 53.3125 31.5C53.4792 34.5 53.6875 37.2708 53.9375 39.8125C54.1875 42.3125 54.4583 44.625 54.75 46.75C55.0417 48.75 55.2917 50.7083 55.5 52.625C55.75 54.5417 55.9375 56.4375 56.0625 58.3125C56.5208 60.0625 56.9167 61.875 57.25 63.75C57.5833 65.5833 57.8542 67.5 58.0625 69.5C58.5625 73.4583 55.9375 76.5833 50.1875 78.875ZM59.875 72.3125C63.2083 75.6875 68.6458 76.4792 76.1875 74.6875C80.0208 73.7708 83.3542 72.8333 86.1875 71.875C89.0208 70.875 91.4167 69.8542 93.375 68.8125C95.4167 67.7292 97.0833 66.9583 98.375 66.5C99.6667 66.0417 100.542 65.9583 101 66.25C101.5 66.5 101.542 67.1458 101.125 68.1875C100.75 69.1875 99.875 70.625 98.5 72.5C96.9167 74.75 94.25 76.7708 90.5 78.5625C86.6667 80.3958 82.6042 81.8125 78.3125 82.8125C74.0625 83.8125 69.7917 84.2708 65.5 84.1875C61.375 84.1458 58.0625 83.25 55.5625 81.5C50.1458 77.9167 47.4167 73.6875 47.375 68.8125C47.25 63.8958 48.2917 58.9167 50.5 53.875C52.6667 48.9167 55.2292 44.2083 58.1875 39.75C61.2292 35.25 63.1667 31.7708 64 29.3125C64.125 28.8958 64.3333 28.2708 64.625 27.4375C64.9583 26.5625 65.3542 25.4583 65.8125 24.125C66.8125 21.4583 68 18.8958 69.375 16.4375C70.8333 13.8958 72.4167 12.0417 74.125 10.875C75.9167 9.625 77.7083 10.0208 79.5 12.0625C80.5417 9.39583 82.6458 7.08333 85.8125 5.125C88.9792 3.125 90.125 4.125 89.25 8.125C88.3333 12.0417 87.5208 15.8333 86.8125 19.5C86.4792 21.2917 86.5625 23.3542 87.0625 25.6875C87.5625 28.0208 88.4583 30.625 89.75 33.5C90.4167 35 90.0625 36.0417 88.6875 36.625C87.3958 37.125 85.9792 36.9792 84.4375 36.1875C82.8125 35.3542 81.3125 33.5833 79.9375 30.875C78.5208 28.0833 77.6667 25.6458 77.375 23.5625C76.9583 26.1042 75.2917 29.625 72.375 34.125C70.9167 36.3333 69.4792 38.5833 68.0625 40.875C66.6875 43.125 65.3125 45.4583 63.9375 47.875C61.2292 52.5417 59.2083 57.1458 57.875 61.6875C56.5833 66.0625 57.25 69.6042 59.875 72.3125ZM87.875 78.1875C86.0833 71.1875 85.3125 65.8125 85.5625 62.0625C85.8125 58.4375 86.4167 56.0833 87.375 55C88.2917 53.9583 89.25 53.9167 90.25 54.875C91.25 55.9167 91.6042 57.5208 91.3125 59.6875C92.8125 58.1458 93.7708 55.5417 94.1875 51.875L95.625 39.125C95.9167 36.7083 96.25 34.25 96.625 31.75C96.9583 29.2083 97.4167 26.5833 98 23.875C98.5833 21.2083 99.3958 18.625 100.438 16.125C101.479 13.5833 102.729 11.125 104.188 8.75C104.188 8.70833 104.125 8.72917 104 8.8125C103.917 8.89583 103.896 8.9375 103.938 8.9375C105.062 5.4375 106.771 3.3125 109.062 2.5625C110.229 2.22917 111.25 1.97917 112.125 1.8125C113.042 1.64583 113.854 1.625 114.562 1.75C115.729 1.91667 117.083 3.35417 118.625 6.0625C120.167 8.72917 120.958 12.375 121 17C121.167 28.9583 124.375 40.5 130.625 51.625C136.792 62.625 143.208 73.1667 149.875 83.25C150.792 85.4167 149.417 85.625 145.75 83.875C142.125 82.2083 139.438 80.5208 137.688 78.8125C132.896 74.2708 127.146 66.3542 120.438 55.0625C113.771 43.8958 110.021 33.4167 109.188 23.625C106.812 27.2083 105.5 31.0625 105.25 35.1875C105.083 37.3125 104.979 39.5 104.938 41.75C104.938 43.9583 104.979 46.25 105.062 48.625C105.188 53.3333 105.125 58.1875 104.875 63.1875C104.625 68.2708 103.375 73.3333 101.125 78.375C100.125 80.5417 98.0208 82.3125 94.8125 83.6875C91.5208 85.1042 89.2083 83.2708 87.875 78.1875ZM176.688 78.875C175.271 79.9167 172.875 81.1667 169.5 82.625C166.125 84.0833 162.562 85.5208 158.812 86.9375C154.979 88.3542 151.458 89.5417 148.25 90.5C145.083 91.4167 142.917 91.875 141.75 91.875C137.708 91.8333 134.625 91.2083 132.5 90C128.5 87.75 127.229 84.2708 128.688 79.5625C129.729 76.2292 132.771 72.1667 137.812 67.375C142.021 63.4167 144.833 61.8958 146.25 62.8125C147.667 63.7292 146.479 66.5 142.688 71.125C141.479 72.5417 140.229 74.3958 138.938 76.6875C137.688 78.8958 137.188 80.9375 137.438 82.8125C142.021 83.6875 146.667 82.8958 151.375 80.4375C153.75 79.1875 156 77.9583 158.125 76.75C160.25 75.5 162.354 74.2917 164.438 73.125C166.354 72.0417 167.917 70.9583 169.125 69.875C170.375 68.75 171.25 67.5833 171.75 66.375C172.792 63.875 172.792 60.1667 171.75 55.25C161.75 59.5833 154.833 61.3333 151 60.5C149.083 60.0833 147.396 58.6042 145.938 56.0625C144.521 53.4792 143.208 49.8333 142 45.125C141.542 43.25 141.208 41.0417 141 38.5C140.792 35.9167 140.833 32.9375 141.125 29.5625C141.667 22.8542 142.771 17.875 144.438 14.625C149.688 8 153.146 4.83333 154.812 5.125C156.479 5.375 156.104 8.125 153.688 13.375C151.188 18.625 150.125 24.7708 150.5 31.8125C150.875 38.8542 151.5 43.5833 152.375 46C152.75 49.2083 154.979 50.1875 159.062 48.9375C163.229 47.6042 166.854 45.375 169.938 42.25C170.188 38.8333 170.333 35.9792 170.375 33.6875C170.458 31.3542 170.458 29.5833 170.375 28.375C170.208 25.9583 170.979 23.1042 172.688 19.8125C173.771 17.0208 175.25 14.375 177.125 11.875C179 9.45833 180.604 7.83333 181.938 7C183.271 6.16667 184.062 6.4375 184.312 7.8125C184.438 8.52083 184.25 9.64583 183.75 11.1875C183.292 12.6875 182.562 14.625 181.562 17C180.771 18.875 180.229 21.0208 179.938 23.4375C179.688 25.8125 179.646 28.5 179.812 31.5C179.979 34.5 180.188 37.2708 180.438 39.8125C180.688 42.3125 180.958 44.625 181.25 46.75C181.542 48.75 181.792 50.7083 182 52.625C182.25 54.5417 182.438 56.4375 182.562 58.3125C183.021 60.0625 183.417 61.875 183.75 63.75C184.083 65.5833 184.354 67.5 184.562 69.5C185.062 73.4583 182.438 76.5833 176.688 78.875ZM180 24.6875C179.208 22.3542 178.625 19.7292 178.25 16.8125C177.833 14.0208 177.896 11.9167 178.438 10.5C179.021 9.125 180.167 8.89583 181.875 9.8125C183.625 10.7708 186.271 13.7708 189.812 18.8125C192.646 21.6458 196.25 24.5417 200.625 27.5C205.083 30.5 210.292 32.1875 216.25 32.5625C223.167 30.9375 227.188 31.3125 228.312 33.6875C229.438 36.0625 228.167 38.4375 224.5 40.8125C224.375 40.8125 224.292 40.6667 224.25 40.375C224.208 40.0833 224.146 39.9375 224.062 39.9375C221.479 41.2292 216.771 41.5 209.938 40.75C203.062 40 197.688 38.4792 193.812 36.1875C194.771 40.1042 195.604 44.0417 196.312 48C197.062 51.9583 197.708 56 198.25 60.125C199.292 68.2917 197.667 76.1875 193.375 83.8125C191.083 87.0625 188.333 88.7917 185.125 89C183.542 89.0833 182.729 88.6458 182.688 87.6875C182.604 86.6875 183.208 85.1042 184.5 82.9375C185.833 80.7708 186.729 78.25 187.188 75.375C187.646 72.4583 187.729 69.1875 187.438 65.5625C187.188 61.9375 186.792 58.3125 186.25 54.6875C185.708 51.0208 185.062 47.2917 184.312 43.5C183.854 41.2917 183.417 39.1875 183 37.1875C182.625 35.1458 182.208 33.1667 181.75 31.25C181.292 29.3333 180.917 27.8333 180.625 26.75C180.292 25.6667 180.083 24.9792 180 24.6875ZM218.125 17.0625C217.292 14.1458 216.771 11.25 216.562 8.375C216.396 5.625 216.833 3.47917 217.875 1.9375C218.417 1.14583 219.25 0.770833 220.375 0.8125C221.5 0.8125 222.917 1.3125 224.625 2.3125C228.083 4.3125 230.812 6.125 232.812 7.75C234.854 9.33333 236.229 10.625 236.938 11.625C238.438 13.6667 235.75 13.875 228.875 12.25C229.292 14.7917 229.688 17.4167 230.062 20.125C230.479 22.7917 230.896 25.5833 231.312 28.5C232.104 34.2083 232.312 39.8958 231.938 45.5625C233.854 44.7708 235.75 42.7708 237.625 39.5625C238.583 37.9792 239.583 36.2708 240.625 34.4375C241.667 32.5625 242.792 30.5625 244 28.4375C246.417 24.2708 249.229 19.9583 252.438 15.5C255.604 11.0833 259.521 7.27083 264.188 4.0625C264.021 4.0625 263.917 4.08333 263.875 4.125C266.333 1.375 268.729 0.125 271.062 0.375C273.396 0.625 275.208 1.10417 276.5 1.8125C277.5 2.52083 278 4.3125 278 7.1875C278 10.1042 277.104 13.6875 275.312 17.9375C270.729 29.0208 268.083 39.7917 267.375 50.25C266.75 60.7917 267.458 71.8958 269.5 83.5625C269.5 85.9792 268.833 86.4583 267.5 85C266.167 83.625 265.042 81.8125 264.125 79.5625C261.458 73.3958 259.792 64.1875 259.125 51.9375C258.458 39.7292 259.688 28.9792 262.812 19.6875C259.229 22.0208 256.479 25.0417 254.562 28.75C253.604 30.6667 252.646 32.6458 251.688 34.6875C250.771 36.6875 249.875 38.7708 249 40.9375C248.125 43.1458 247.167 45.3542 246.125 47.5625C245.125 49.7708 244.083 52 243 54.25C240.75 58.7917 237.604 62.9375 233.562 66.6875C231.729 68.3125 229.146 69.1042 225.812 69.0625C222.521 69.0208 221.021 66.375 221.312 61.125C221.521 58.5 221.75 55.8125 222 53.0625C222.25 50.2708 222.542 47.4167 222.875 44.5C223.208 41.5833 223.104 38.3958 222.562 34.9375C222.062 31.4375 221.208 27.6042 220 23.4375L218.125 17.0625Z" fill="#F0F0F0"/>
</svg>
