<svg width="478" height="51" viewBox="0 0 478 51" fill="none" xmlns="http://www.w3.org/2000/svg">
<path d="M63.5765 30.8297C63.5361 30.7423 63.49 30.6606 63.4496 30.5673C63.0111 29.5701 62.7284 28.468 62.6188 27.2842C62.5957 27.0685 62.5899 26.8585 62.5842 26.637L62.5726 26.3687C62.5726 26.2754 62.5784 26.1588 62.5784 26.0363C62.5784 25.8439 62.5784 25.6514 62.6015 25.4648C62.613 25.3715 62.6188 25.2549 62.6303 25.1499C62.6419 25.0391 62.6476 24.94 62.6534 24.87C62.6823 24.8584 62.7573 24.8234 62.8323 24.8001C63.0169 24.7359 63.2188 24.6893 63.4611 24.6426C63.8535 24.561 64.3439 24.4618 64.8804 24.2227C65.3362 24.0245 65.9189 23.5813 66.1959 22.9282C66.4786 22.2926 66.4613 21.6978 66.4151 21.2546C66.3689 20.7764 66.2362 20.3682 66.0978 19.96C65.9997 19.6159 65.8382 19.2952 65.6824 18.9803L65.5843 18.7821C65.3766 18.4147 65.1516 18.0823 64.8631 17.6974C64.7708 17.5925 64.69 17.505 64.615 17.4117C64.4131 17.1784 64.2112 16.9393 63.9631 16.7294C62.8438 15.6856 61.4245 14.7934 59.6245 14.012C56.8551 12.8399 53.7108 12.0351 49.4298 11.3995C45.4547 10.828 41.6641 10.6181 39.1544 10.5073C37.5794 10.4373 36.0389 10.4023 34.5504 10.3674C32.8946 10.3265 31.3368 10.2916 29.7906 10.2157C23.3519 9.91835 17.5824 8.67626 13.7977 7.77239C11.3687 7.18925 9.28018 6.5653 7.40511 5.8597L6.96663 5.68475C6.13583 5.35236 5.27041 5.01414 4.57808 4.67009C3.98382 4.41351 3.31457 4.0403 2.72608 3.70791C2.478 3.57379 2.24722 3.4455 2.04529 3.3347C1.7395 3.18309 0.510611 2.00515 0.279833 1.87103C-0.602894 1.70775 0.689463 3.3347 2.93955 5.18325C3.38957 5.4515 3.86266 5.71974 4.37615 5.97632C5.16656 6.41368 6.03198 6.81605 6.94355 7.23591L7.11087 7.31171C9.32057 8.27972 11.536 9.09612 13.7111 9.73174C18.5459 11.1546 24.05 12.1109 30.0675 12.5775C31.8907 12.7291 33.7138 12.8107 35.6466 12.8924C36.8755 12.9448 38.1159 13.0031 39.3737 13.079C42.0622 13.2364 45.6162 13.4755 49.2567 13.9945C53.2261 14.5718 57.4551 15.464 59.6014 16.6769C66.2939 20.4557 62.8438 22.7824 62.5265 22.864C62.2207 22.0826 59.6418 20.03 57.4321 19.1494C55.2974 18.2806 52.6665 17.5925 49.8221 17.1493C47.347 16.7586 44.4854 16.5136 41.0756 16.3854C39.0852 16.3154 37.1178 16.2921 35.2139 16.2687C34.3139 16.2571 33.4311 16.2454 32.5715 16.2337C29.6464 16.1871 27.2578 16.0821 25.2616 15.913C23.0403 15.6973 21.2806 15.4523 20.0402 15.1899C19.5267 15.1025 19.1171 15.0091 18.7882 14.9275L18.0094 14.7467C17.8305 14.7059 17.6574 14.7992 17.5997 14.9625C17.542 15.1258 17.6228 15.3007 17.7844 15.3707L18.4767 15.6623C18.8229 15.8081 19.296 16.0063 19.8729 16.1929C21.3153 16.7236 23.248 17.2367 25.3077 17.6391C27.4367 18.0648 29.9694 18.368 32.8253 18.5488C34.5792 18.6596 36.4197 18.7296 38.2486 18.7879C37.2563 18.8345 36.4601 18.8754 36.4601 18.8754C36.4601 18.8754 35.0293 18.9395 33.5984 19.0095C32.1676 19.0736 30.7137 19.0969 30.7137 19.0969C30.7137 19.0969 29.9868 19.0969 29.254 19.0969C28.8906 19.0969 28.5213 19.097 28.2444 19.0853C27.9674 19.0795 27.7828 19.0736 27.7828 19.0736C26.8193 19.0503 25.7635 18.9687 24.8462 18.8637C24.8462 18.8637 24.4596 18.8112 24.0731 18.7646C23.8827 18.7412 23.6865 18.7121 23.5423 18.6946C23.398 18.6713 23.3 18.6538 23.3 18.6538C22.7865 18.5605 22.3192 18.4555 21.823 18.3564C21.3326 18.2514 20.8249 18.0881 20.3229 17.9482C19.821 17.8199 19.3017 17.61 18.8056 17.4292C18.2978 17.2601 17.7959 17.0327 17.294 16.7994C16.792 16.572 16.2958 16.3445 15.7997 16.0646C15.3035 15.7847 14.8131 15.5456 14.34 15.2307C13.8611 14.9217 13.388 14.6068 12.9322 14.2977C12.0149 13.6038 11.1495 12.9448 10.3706 12.1809C10.1225 11.9477 9.87444 11.7144 9.63789 11.4812C9.40134 11.2479 9.1821 10.9913 8.96863 10.7522C9.21672 10.8455 9.47057 10.9447 9.7302 11.0438C9.98406 11.1313 10.2495 11.2129 10.5091 11.3004C11.3399 11.6153 12.1995 11.8485 13.0534 12.1226C14.7669 12.5949 16.5035 12.9857 18.2805 13.3006C20.0518 13.6271 21.8807 13.8545 23.7384 14.1053C23.7384 14.1053 24.4538 14.2161 25.175 14.286C25.8962 14.3735 26.6174 14.426 26.6174 14.426C26.6174 14.426 27.3443 14.496 28.0713 14.531C28.7982 14.5718 29.5252 14.6068 29.5252 14.6068C33.4196 14.7642 37.3659 14.6943 41.4334 14.8809C45.4951 15.0966 49.701 15.4873 53.7858 16.9044C49.7587 15.3882 45.5354 14.8867 41.4564 14.6009C37.3659 14.3327 33.3907 14.3152 29.4906 14.0703C29.4906 14.0703 28.7636 14.0178 28.0309 13.9712C27.6674 13.9478 27.304 13.9128 27.0328 13.8837C26.7616 13.8545 26.5828 13.837 26.5828 13.837C26.5828 13.837 25.8558 13.7787 25.1346 13.6738C24.7712 13.6271 24.4135 13.5805 24.1423 13.5455C23.8711 13.4988 23.6923 13.4697 23.6923 13.4697C21.7134 13.1723 19.7633 12.8807 17.8767 12.5017C15.9785 12.1168 14.1438 11.6386 12.3322 11.0321C12.1014 10.9563 11.8707 10.8864 11.6457 10.8105C11.4207 10.7231 11.1956 10.6356 10.9706 10.5481C10.5206 10.3674 10.0533 10.2332 9.61481 10.0291C9.16479 9.8367 8.71478 9.6501 8.26476 9.46933C7.80897 9.26523 7.35895 9.06113 6.90894 8.85703L6.12429 8.51881L6.66085 9.27689C6.98971 9.73174 7.32434 10.1924 7.68781 10.6298C8.05706 11.0555 8.44938 11.487 8.87632 11.936C9.29172 12.3967 9.75328 12.7816 10.2148 13.2131C10.4514 13.423 10.6879 13.6329 10.9245 13.8487C11.1668 14.047 11.4207 14.2394 11.6745 14.4377C12.6726 15.2424 13.7515 15.948 14.8592 16.6069C15.4073 16.9102 15.9728 17.2309 16.5439 17.5108C17.1093 17.7732 17.6805 18.0298 18.2575 18.2689C18.8229 18.4847 19.394 18.6888 19.971 18.887C20.5364 19.062 21.096 19.2194 21.6845 19.371C22.2557 19.5051 22.8442 19.6276 23.3865 19.7326C23.3865 19.7326 23.4846 19.7501 23.6346 19.7792C23.7788 19.7967 23.975 19.8259 24.1711 19.855C24.5635 19.9075 24.9558 19.96 24.9558 19.96C26.0981 20.0883 27.0732 20.1408 28.0944 20.1583C28.0944 20.1583 28.8559 20.1816 29.5887 20.1699C29.9579 20.1699 30.3329 20.1699 30.6099 20.1641C30.8868 20.1583 31.0656 20.1524 31.0656 20.1524C33.0273 20.1 34.9254 19.9483 36.8063 19.8084C38.6986 19.6684 40.5564 19.4935 42.4199 19.3827C44.2373 19.2602 46.0547 19.2136 47.8605 19.2311C48.4721 19.2777 49.0779 19.336 49.6779 19.4002C52.3607 19.6859 54.8646 20.1524 56.9186 20.7472C59.059 21.377 60.6283 23.5172 60.4206 23.4297C59.0071 22.8524 57.634 22.4792 56.2089 22.2867C54.4204 22.0243 52.3203 22.036 50.1452 22.3217C48.2355 22.5725 46.1182 23.039 43.6661 23.7621C42.1776 24.2111 40.741 24.6951 39.3506 25.1674C38.7852 25.3599 38.2313 25.5465 37.689 25.7273C35.7389 26.392 34.0427 26.9052 32.6465 27.2551C31.4637 27.5408 30.2752 27.7507 29.0117 27.8965L27.5809 28.0015C27.4309 28.0132 27.3097 28.1298 27.2982 28.2756C27.2867 28.4214 27.3905 28.5496 27.5405 28.5788C27.5636 28.5788 28.1175 28.6896 29.0867 28.8062C29.7098 28.8587 30.3156 28.8879 30.9099 28.8879C31.6426 28.8879 32.3522 28.847 33.0676 28.7654C33.7484 28.6954 34.4812 28.5788 35.2485 28.433C34.6946 28.5963 34.1523 28.7421 34.1523 28.7421C33.7773 28.8529 33.3677 28.9345 32.9753 29.022C32.583 29.1153 32.1907 29.1853 31.8157 29.2319C31.8157 29.2319 31.5099 29.2786 31.1983 29.3194C30.8926 29.366 30.5695 29.3835 30.5695 29.3835C30.1541 29.4069 29.7848 29.436 29.3752 29.4244C28.9771 29.4244 28.5617 29.3952 28.1521 29.366C27.7309 29.3194 27.3097 29.2611 26.9001 29.1853C26.052 29.0103 25.2212 28.7946 24.3904 28.4622L23.7731 28.2231C23.5654 28.1298 23.3577 28.0307 23.1557 27.9315C22.7461 27.7216 22.348 27.5525 21.9557 27.2959C21.5576 27.0568 21.1768 26.8119 20.8076 26.567C20.4383 26.3104 20.0748 26.013 19.7287 25.7389C19.5094 25.5581 19.2902 25.3949 19.0825 25.2024C18.8748 25.0042 18.6729 24.8117 18.4767 24.6193C18.8863 24.6834 19.3017 24.7592 19.7171 24.7942C20.0575 24.835 20.3922 24.8759 20.7326 24.9283C21.073 24.9458 21.4133 24.9692 21.7537 25.0042C23.1153 25.0858 24.4827 25.0975 25.8616 25.0042C27.2463 24.9109 28.654 24.7476 30.1137 24.5785C30.1137 24.5785 30.2522 24.561 30.4656 24.5376C30.6791 24.5202 30.9618 24.4852 31.2387 24.4327C31.5214 24.386 31.8041 24.3452 32.0176 24.3102C32.2311 24.2811 32.3695 24.2461 32.3695 24.2461C32.3695 24.2461 32.9407 24.1353 33.5061 24.0186C34.0773 23.8904 34.6485 23.7562 34.6485 23.7562C37.7294 23.0215 40.8622 22.0243 44.2085 21.2779C47.5951 20.5665 51.2299 20.0416 54.9743 20.5606C51.2645 19.9308 47.5894 20.3507 44.1681 20.9863C40.7872 21.6511 37.6082 22.5608 34.51 23.2139C34.51 23.2139 33.9331 23.3306 33.3619 23.4472C32.7907 23.5463 32.2195 23.6454 32.2195 23.6454C32.2195 23.6454 32.0753 23.6688 31.8618 23.7038C31.6484 23.7329 31.3657 23.7737 31.0772 23.8087C30.7945 23.8495 30.5118 23.8845 30.2983 23.8962C30.0848 23.9137 29.9464 23.9254 29.9464 23.9254C28.4002 24.0711 26.8943 24.2053 25.4231 24.2402C23.9519 24.2752 22.5095 24.2461 21.0499 24.0478C20.6864 24.0303 20.3229 23.9312 19.9537 23.8845C19.5844 23.8321 19.221 23.7796 18.8575 23.6863C18.4882 23.6105 18.1248 23.5346 17.7555 23.4705C17.392 23.3772 17.0228 23.2839 16.642 23.2081L16.0016 23.074L16.5151 23.7096C16.8266 24.0945 17.1439 24.4618 17.4786 24.8292C17.819 25.1674 18.1709 25.5057 18.5517 25.8555C18.9267 26.2113 19.3248 26.532 19.7344 26.8411C20.1441 27.1443 20.5652 27.4942 21.0037 27.7507C21.4364 28.0248 21.8864 28.3106 22.3422 28.5613C22.798 28.7946 23.2596 29.0162 23.7327 29.2377C24.2 29.436 24.6731 29.5993 25.152 29.7684C25.6308 29.9375 26.1039 30.0308 26.5828 30.1474C27.0674 30.2816 27.529 30.3166 28.0078 30.3807C28.4867 30.4565 28.9367 30.4682 29.4214 30.474C29.8944 30.4915 30.3675 30.474 30.806 30.439C30.806 30.439 31.1291 30.4157 31.4464 30.3807C31.758 30.3399 32.0753 30.2932 32.0753 30.2932C32.5369 30.2291 32.9638 30.1474 33.3677 30.0425C33.7773 29.9492 34.1812 29.8559 34.5792 29.7392C34.5792 29.7392 35.1793 29.576 35.762 29.3894C36.3447 29.1969 36.9274 29.0103 36.9274 29.0103C38.4794 28.4855 39.9564 27.8674 41.4391 27.2726C42.9334 26.6778 44.4046 26.0655 45.8989 25.5232C46.5047 25.2957 47.122 25.0975 47.7336 24.8992C48.6509 24.6601 49.5914 24.4385 50.5202 24.2577C52.5165 23.8729 54.4723 23.4413 56.1051 23.7329C59.6244 24.3685 60.3687 26.5086 60.2245 26.462C59.4283 26.2696 58.1244 25.9605 56.5493 26.0072C54.9512 26.0305 53.2146 26.3687 51.5357 26.981C50.0068 27.5408 48.374 28.363 46.5393 29.4943C45.4489 30.1883 44.4104 30.9114 43.4065 31.6053C42.9796 31.9027 42.5642 32.1943 42.1545 32.4742C40.7179 33.4888 39.5237 34.2528 38.4852 34.8184C38.0755 35.0517 37.689 35.2324 37.314 35.4074L36.9736 35.5706C36.8178 35.6231 36.6505 35.6989 36.4889 35.7631C36.2293 35.868 36.0043 35.9613 35.8081 36.0138C35.1331 36.2471 34.7293 36.3287 34.7235 36.3346C34.5792 36.3637 34.4754 36.492 34.4812 36.632C34.4812 36.7719 34.5965 36.8885 34.7466 36.9119C34.7581 36.9119 34.9831 36.941 35.3639 36.941C35.5485 36.941 35.7678 36.9352 36.0158 36.9177C36.2985 36.9177 36.6274 36.8652 36.9736 36.8069C37.1063 36.7836 37.239 36.7661 37.3832 36.7427L37.5217 36.7136C38.0063 36.597 38.5602 36.4687 39.1371 36.2471C39.1717 36.2354 39.2121 36.2179 39.2467 36.2063C39.1602 36.2646 39.0621 36.3229 38.9698 36.3812C38.5313 36.6494 38.0986 36.9119 38.0986 36.9119C37.8044 37.0693 37.4986 37.2326 37.2043 37.3959C36.8986 37.5416 36.5928 37.6758 36.3101 37.7982C36.3101 37.7982 36.0735 37.9032 35.8254 37.979C35.5831 38.0665 35.3408 38.1481 35.3408 38.1481C35.0235 38.2647 34.7119 38.2997 34.3946 38.3755C34.0888 38.4572 33.7542 38.4863 33.4196 38.5038C33.085 38.533 32.7561 38.5563 32.4157 38.5213C32.0753 38.498 31.7464 38.4922 31.4003 38.4222C31.0599 38.3464 30.7252 38.2764 30.3848 38.2064C29.7041 37.9907 29.0463 37.7749 28.4059 37.4192C27.7597 37.1218 27.1482 36.6903 26.5712 36.2821C26.2078 36.0255 25.8501 35.6931 25.5212 35.4074C25.8328 35.3665 26.1558 35.3549 26.4732 35.3082C26.9924 35.2208 27.5174 35.2091 28.0425 35.0925C29.0925 34.9525 30.1252 34.7018 31.1464 34.3985C32.1791 34.1011 33.2119 33.7454 34.285 33.3664C34.285 33.3664 34.7004 33.2089 35.1158 33.0515C35.5312 32.8707 35.9466 32.6841 35.9466 32.6841C35.9466 32.6841 36.0505 32.6433 36.2062 32.5616C36.362 32.4858 36.5697 32.3809 36.7774 32.2759C36.9851 32.1768 37.1986 32.0601 37.3544 31.9727C37.5101 31.8852 37.614 31.8327 37.614 31.8327C39.8814 30.614 42.1661 29.0745 44.7219 27.7566C47.3297 26.4737 50.2664 25.3774 53.4569 25.3249C50.2837 25.2607 47.2836 26.2521 44.6296 27.4708C42.0276 28.7129 39.691 30.1766 37.4063 31.3079C37.4063 31.3079 36.9851 31.5295 36.5639 31.7219C36.3562 31.8152 36.1428 31.9144 35.987 31.9843C35.8312 32.0601 35.7274 32.101 35.7274 32.101C35.7274 32.101 35.3062 32.2701 34.8908 32.445C34.4754 32.585 34.0542 32.7307 34.0542 32.7307C32.9176 33.0981 31.8214 33.4422 30.7252 33.6988C29.6348 33.9553 28.5444 34.1419 27.4136 34.2586C26.8482 34.2761 26.2828 34.3577 25.7116 34.3519C25.4231 34.3519 25.1404 34.3869 24.8577 34.3869C24.575 34.3869 24.2923 34.3869 23.9981 34.4044L23.5077 34.4335L23.9577 34.9525C24.2288 35.2674 24.5058 35.5648 24.7885 35.8564C25.0712 36.148 25.3712 36.3929 25.6943 36.6611C26.3232 37.2093 26.9982 37.6466 27.7136 38.0898C28.4175 38.4747 29.1733 38.8595 29.9348 39.0928C30.1252 39.1569 30.3214 39.2211 30.5118 39.2852C30.7022 39.3261 30.8983 39.3669 31.0887 39.4077C31.4753 39.4835 31.8734 39.5593 32.2542 39.571C32.6349 39.5943 33.033 39.6351 33.408 39.5885C33.7831 39.5535 34.1754 39.5593 34.5446 39.4602C34.9081 39.3727 35.3177 39.3202 35.6524 39.1978C35.6524 39.1978 35.9062 39.1103 36.1543 39.0228C36.2812 38.9762 36.4082 38.9354 36.5005 38.9004C36.5928 38.8596 36.6505 38.8362 36.6505 38.8362C37.0024 38.6788 37.337 38.5272 37.6544 38.3639C37.9659 38.1889 38.2659 38.0198 38.5832 37.8449C38.5832 37.8449 39.0275 37.5592 39.4775 37.2792C39.916 36.9818 40.3545 36.6903 40.3545 36.6903C41.5084 35.8855 42.593 35.0108 43.6719 34.1594C44.1796 33.7629 44.6816 33.3664 45.1835 32.9815C45.547 32.7483 45.9047 32.515 46.2797 32.2701C46.7182 31.9843 47.1624 31.6928 47.6067 31.407C48.8817 30.6081 51.4376 29.127 53.1684 28.4797C56.2839 27.3076 60.5879 28.7362 61.0668 29.2552C60.986 29.2494 60.9168 29.2377 60.8245 29.2319C60.1437 29.2144 59.1398 29.2319 57.9455 29.5526C56.757 29.8675 55.4878 30.4565 54.2762 31.2554C53.18 31.9902 52.0434 32.9348 50.8087 34.1536C49.9029 35.0691 49.0663 36.0022 48.2586 36.906L47.8548 37.3609C46.874 38.4863 46.0778 39.361 45.4143 40.0375C44.7623 40.7139 44.1738 41.2154 43.7354 41.5828L43.6142 41.6819L43.0892 42.0843C42.9969 42.1659 42.945 42.1951 42.9334 42.2009C42.8123 42.2709 42.7603 42.4109 42.8007 42.5392C42.8411 42.6616 42.9623 42.7433 43.0892 42.7433C43.095 42.7433 43.1065 42.7433 43.1123 42.7433C43.1353 42.7433 43.245 42.7316 43.4181 42.6733L44.0411 42.475C44.4796 42.2942 45.3451 41.9327 46.2624 41.2621C46.5336 41.0755 46.822 40.8597 47.1163 40.6265C46.9201 40.848 46.7874 40.9938 46.7874 40.9938C46.7874 40.9938 46.4989 41.3087 46.2047 41.6178C45.9047 41.921 45.6104 42.2301 45.6104 42.2301C45.2123 42.6208 44.7854 43.029 44.3815 43.3381C44.3815 43.3381 44.2142 43.4664 44.0527 43.6005C43.8796 43.7229 43.7123 43.8454 43.7123 43.8454C43.4873 44.0028 43.2796 44.1253 43.0488 44.2477C42.8238 44.3702 42.5988 44.4927 42.3565 44.5743C42.1142 44.6676 41.8776 44.7609 41.6353 44.8192C41.3872 44.8775 41.1391 44.9242 40.891 44.9592C40.6429 44.9883 40.3891 44.9883 40.141 44.9942C39.8987 45.0058 39.6391 44.965 39.391 44.93C39.1429 44.895 38.9006 44.8542 38.6582 44.7609C38.4159 44.6851 38.1794 44.6035 37.9486 44.5043C37.7121 44.3877 37.487 44.2652 37.2678 44.1428C36.9909 43.997 36.7197 43.7812 36.4659 43.5771C36.6736 43.4372 36.887 43.3264 37.0947 43.169C37.262 43.0582 37.4294 42.9474 37.6082 42.8366C37.7813 42.7316 37.9428 42.5916 38.1101 42.4808C38.7794 42.0027 39.4314 41.5245 40.0775 40.988C40.7353 40.4632 41.4045 39.9209 42.1315 39.396C42.1315 39.396 42.4142 39.1978 42.6969 38.9762C42.9796 38.7488 43.2623 38.5213 43.2623 38.5213C43.2623 38.5213 43.545 38.2764 43.8277 38.0315C44.1104 37.7749 44.3989 37.5183 44.3989 37.5183C45.9451 36.1188 47.5028 34.5035 49.274 33.0048C51.0972 31.5411 53.1684 30.1475 55.5743 29.5002C53.1569 30.0367 51.0164 31.3429 49.1471 32.7541C47.324 34.1886 45.7143 35.7398 44.1392 37.0576C44.1392 37.0576 43.8508 37.3026 43.5623 37.5475C43.2738 37.7749 42.9911 38.0023 42.9911 38.0023C42.9911 38.0023 42.7026 38.2181 42.4199 38.4338C42.2815 38.5446 42.1372 38.6321 42.0276 38.7079C41.9238 38.7779 41.8488 38.8304 41.8488 38.8304C41.116 39.3494 40.3833 39.8742 39.6737 40.3874C38.9871 40.883 38.3121 41.3845 37.5909 41.8161C37.412 41.9327 37.2274 42.0202 37.0486 42.1309C36.8697 42.2476 36.6851 42.3526 36.4947 42.44C36.3043 42.545 36.1139 42.65 35.9351 42.7491C35.7447 42.8366 35.5543 42.9357 35.3581 43.0523L35.0293 43.2389L35.3754 43.6296C35.5889 43.8629 35.8024 44.0786 36.0216 44.2886C36.2408 44.481 36.4716 44.6501 36.7197 44.8251C36.962 45 37.2159 45.1633 37.4755 45.2857C37.7351 45.414 38.0005 45.5598 38.2775 45.6531C38.5486 45.7464 38.8256 45.8339 39.114 45.9097C39.3967 45.9738 39.6794 46.003 39.9679 46.038C40.5391 46.0788 41.1276 46.038 41.693 45.898C41.9815 45.8514 42.2584 45.7523 42.5353 45.6415C42.818 45.5423 43.0892 45.4315 43.3546 45.2741C43.6257 45.1341 43.9027 44.9767 44.1392 44.8076C44.1392 44.8076 44.3181 44.6793 44.4969 44.5568C44.6758 44.4285 44.8431 44.2886 44.8431 44.2886C45.3508 43.8862 45.7489 43.4838 46.1758 43.0523C46.1758 43.0523 46.4816 42.7257 46.7874 42.405C47.0816 42.0785 47.3817 41.7461 47.3817 41.7461C48.1663 40.8597 48.8875 39.9383 49.6087 39.052C50.3183 38.1714 51.0337 37.3026 51.7664 36.4337C52.4934 35.5881 53.2377 34.8067 54.005 34.072C54.005 34.072 54.2935 33.7862 54.5935 33.5413C59.861 30.1766 62.238 32.0018 62.4399 32.3226C62.3822 32.3284 62.3303 32.34 62.2611 32.3517C61.5514 32.5092 60.9284 32.7482 60.3456 33.0865C59.5898 33.518 58.811 34.1711 58.1013 34.9642C57.4551 35.6873 56.8205 36.5678 56.157 37.6524C55.5166 38.7487 54.9281 39.8567 54.4146 40.8306C54.0223 41.577 53.6531 42.2767 53.3127 42.8599C52.9838 43.4547 52.6838 43.9212 52.4415 44.3002L51.9453 45.035C51.8761 45.14 51.8818 45.2799 51.9626 45.3732C52.0203 45.4432 52.1126 45.484 52.2049 45.484C52.2395 45.484 52.2742 45.484 52.3088 45.4665C52.3319 45.4607 52.4069 45.4315 52.5223 45.3557L52.9261 45.0991C53.3184 44.8076 53.8146 44.411 54.3281 43.8221C54.5127 43.6296 54.6973 43.408 54.882 43.1806C54.7031 43.513 54.5589 43.7637 54.5589 43.7637C54.5589 43.7637 54.3973 44.0495 54.23 44.3294C54.0569 44.6093 53.8896 44.895 53.8896 44.895C53.6588 45.2566 53.405 45.6473 53.1627 45.9622C53.1627 45.9622 53.0588 46.0905 52.9607 46.2246C52.8569 46.3529 52.7473 46.4753 52.7473 46.4753C52.6088 46.6386 52.4703 46.7727 52.3261 46.9069C52.1819 47.0468 52.0376 47.1751 51.8703 47.2917C51.7088 47.4084 51.553 47.525 51.3857 47.6183C51.051 47.8107 50.7106 47.9449 50.3645 48.0323C50.1972 48.0848 50.0183 48.1023 49.8452 48.114C49.6721 48.1256 49.5048 48.1373 49.3317 48.1081C49.1587 48.0906 48.9971 48.0615 48.8356 48.0207C48.6683 47.9682 48.5125 47.904 48.3567 47.8399C48.1605 47.7641 47.9701 47.63 47.7913 47.5017C47.9009 47.3034 48.0221 47.1226 48.1259 46.9185C48.3048 46.6095 48.4779 46.3121 48.6452 46.0088C49.4587 45.0058 50.3645 43.4489 50.9126 42.6208C51.0683 42.4167 51.2703 42.0027 51.2703 42.0027C51.2703 42.0027 51.4261 41.7869 51.5876 41.5711C51.7434 41.3437 51.9049 41.1163 51.9049 41.1163C52.7588 39.8742 53.6127 38.4688 54.6281 37.0868C55.6724 35.7281 56.8955 34.3519 58.4475 33.4364C56.8551 34.2469 55.557 35.5648 54.4666 36.8885C53.3992 38.2239 52.4934 39.5885 51.6049 40.7606C51.6049 40.7606 51.4434 40.9763 51.2818 41.1921C51.1203 41.3962 50.9587 41.6003 50.9587 41.6003C50.9587 41.6003 50.7972 41.7927 50.6414 41.9852C50.4856 42.1776 48.6913 44.7959 48.3336 45.379C48.1548 45.6531 47.8894 46.0788 47.6874 46.3645C47.5836 46.5278 47.4855 46.6794 47.3874 46.8369C47.2836 46.9885 47.1797 47.146 47.0701 47.3267L46.8855 47.6241L47.1336 47.904C47.2836 48.0673 47.4394 48.2189 47.5951 48.3531C47.7509 48.4813 47.9182 48.5805 48.0913 48.6854C48.4375 48.8954 48.8067 49.012 49.199 49.0878C49.3894 49.117 49.5914 49.1345 49.7933 49.1403C49.9952 49.1403 50.1914 49.1111 50.3991 49.0761C50.803 49.0003 51.2183 48.8546 51.6049 48.6271C51.8068 48.528 51.9972 48.3997 52.1819 48.2598C52.3722 48.1256 52.5569 47.9857 52.73 47.8107C52.9088 47.6475 53.0934 47.4725 53.2434 47.2917C53.2434 47.2917 53.3588 47.1576 53.4684 47.0235C53.5781 46.8894 53.6877 46.7494 53.6877 46.7494C54.005 46.3412 54.2415 45.9564 54.4896 45.554C54.4896 45.554 54.6627 45.2508 54.8416 44.9534C55.0089 44.656 55.182 44.3527 55.182 44.3527C55.6204 43.5538 55.9955 42.7491 56.3647 41.9793C56.7397 41.2096 57.0801 40.4457 57.4321 39.7226C57.7782 38.9937 58.1417 38.3056 58.5052 37.635C58.5052 37.635 58.5513 37.5475 58.6206 37.4308C59.5725 35.9963 60.3745 34.9817 61.1014 34.3052C61.6611 33.7921 62.1745 33.4305 62.5611 33.1798L62.8784 32.9932C63.1842 33.4072 63.5188 33.7979 63.8765 34.1594C64.6958 34.9642 65.4862 35.524 66.2997 35.8622C67.0497 36.1713 67.869 36.3346 68.8152 36.3521C68.8556 36.3521 68.896 36.3521 68.9306 36.3521C69.2075 36.3521 69.4845 36.3404 69.7614 36.3112C66.9055 35.5182 64.2631 33.4305 63.4669 30.7656L63.5765 30.8297Z" fill="white"/>
<path d="M386.403 44.0025C386.403 47.0915 388.03 46.5871 391.033 46.7132V47.4697H378.394V46.7132C381.398 46.5871 382.899 47.0915 382.899 44.0025C382.899 30.8269 383.024 30.1965 383.024 17.1471H371.888L371.512 42.6786C371.512 44.0655 371.512 48.2262 368.071 48.2892C366.695 48.2892 365.506 47.7849 365.256 46.5241H365.193L366.194 51H365.756L362.002 39.4005L362.503 39.1483C365.256 46.398 366.444 46.8393 368.071 46.8393C370.699 46.8393 370.198 41.1026 370.198 22.5056V20.8035C370.198 16.3276 368.884 16.5167 365.819 16.4536V15.8232H391.033V16.4536C388.03 16.5797 386.403 16.2015 386.403 19.3535V44.0025ZM343.495 29.0618H356.384C356.259 24.6489 355.758 15.6341 350.377 15.8232C345.622 15.9493 343.933 22.0012 343.495 29.0618ZM350.753 46.5871C355.758 46.7763 358.949 38.7701 359.575 34.4833H360.138C359.387 38.7701 357.823 47.911 350.753 47.911C344.871 47.911 339.491 40.6613 339.491 31.0791C339.491 21.4969 344.684 14.9407 350.377 14.5624C359.887 14.5624 359.512 27.0445 359.762 30.3857H343.432V31.0791C343.432 40.0309 345.935 46.5871 350.753 46.5871ZM329.712 47.4067H314.758V46.7763C317.699 46.6502 320.577 47.0284 320.577 43.9394V20.2361C320.514 16.5797 318.137 16.5797 314.821 16.5167V15.8863H335.155L336.969 26.4141H336.344C335.655 23.0729 334.404 17.2101 331.964 17.2101H324.519C324.268 17.2101 324.143 17.2732 324.018 17.3993C323.893 17.5884 323.893 17.7775 323.893 18.0297V43.9394C323.893 47.0284 326.771 46.6502 329.712 46.7763V47.4067ZM289.338 44.0655V19.2274C289.338 16.1384 287.085 16.6428 284.145 16.5167V15.8863H297.847V16.5167C294.906 16.6428 292.654 16.1384 292.654 19.2274V28.8727H304.354V19.2274C304.354 16.1384 302.101 16.6428 299.161 16.5167V15.8863H312.863V16.5167C309.922 16.6428 307.67 16.1384 307.67 19.2274V44.0655C307.67 47.1545 309.922 46.6502 312.863 46.7763V47.4067H299.161V46.7763C302.101 46.7763 304.354 47.1545 304.354 44.0655V30.1335H292.654V44.0655C292.654 47.1545 294.906 46.7763 297.847 46.7763V47.4067H284.145V46.7763C287.085 46.6502 289.338 47.1545 289.338 44.0655ZM263.639 8.00618L259.447 29.7553H269.082L263.764 8.00618H263.639ZM256.068 3.27812H266.392L267.518 7.43881L276.652 44.5068C277.215 46.8393 279.405 46.5871 282.283 46.7132V47.4067H267.142V46.7763C270.02 46.7132 273.274 46.9023 272.648 44.3177L269.395 31.0161H259.196L256.631 44.5068C256.256 46.5871 259.447 46.5871 262.2 46.7763V47.4067H249.624V46.7763C252.439 46.6502 254.817 46.7763 255.38 44.3177L262.575 7.43881C263.075 4.85414 261.198 4.03461 256.068 3.90853V3.27812ZM211.183 40.157L224.134 15.9493L232.143 15.8863V16.5167C227.888 16.6428 227.2 16.3906 227.2 20.4252V44.822C227.2 47.0284 229.202 46.7132 231.329 46.8393V47.4697H219.755V46.8393C221.882 46.7132 223.884 47.0284 223.884 44.822V19.1644L208.305 48.7936H207.804L207.867 18.534C207.867 16.2645 205.865 16.6428 203.738 16.5167V15.8863H215.375V16.5167C213.248 16.6428 211.183 16.2645 211.183 18.534V40.157ZM209.306 7.24969L217.878 10.2756H218.128L226.574 7.24969V7.69098L218.065 12.4821H217.878L209.306 7.69098V7.24969ZM187.02 38.2027C187.02 34.2942 185.894 28.9357 178.699 28.9357H176.384L176.509 46.335H178.699C185.268 46.335 187.02 42.3634 187.02 38.2027ZM173.193 43.6242L173.005 19.3535C173.005 16.2645 170.753 16.6428 167.812 16.5167V15.8863H181.514V16.5167C178.573 16.6428 176.321 16.2645 176.321 19.3535V27.864H179.137C186.519 27.864 190.211 32.466 190.211 38.0136C190.211 43.8764 185.894 47.4067 179.137 47.4067H168.625V46.7763C171.566 46.6502 173.193 46.7132 173.193 43.6242ZM193.965 19.3535C193.965 16.2645 191.712 16.6428 188.772 16.5167V15.8863H202.474V16.5167C199.533 16.6428 197.281 16.2645 197.281 19.3535V43.9394C197.281 47.0284 199.533 46.6502 202.474 46.7763V47.4067H188.772V46.7763C191.712 46.6502 193.965 47.0284 193.965 43.9394V19.3535ZM161.921 44.0025C161.921 47.0915 163.548 46.5871 166.551 46.7132V47.4697H153.913V46.7132C156.916 46.5871 158.418 47.0915 158.418 44.0025C158.418 30.8269 158.543 30.1965 158.543 17.1471H147.406L147.031 42.6786C147.031 44.0655 147.031 48.2262 143.59 48.2892C142.213 48.2892 141.024 47.7849 140.774 46.5241H140.712L141.713 51H141.275L137.521 39.4005L138.021 39.1483C140.774 46.398 141.963 46.8393 143.59 46.8393C146.217 46.8393 145.717 41.1026 145.717 22.5056V20.8035C145.717 16.3276 144.403 16.5167 141.337 16.4536V15.8232H166.551V16.4536C163.548 16.5797 161.921 16.2015 161.921 19.3535V44.0025ZM119.014 29.0618H131.902C131.777 24.6489 131.277 15.6341 125.896 15.8232C121.141 15.9493 119.452 22.0012 119.014 29.0618ZM126.271 46.5871C131.277 46.7763 134.467 38.7701 135.093 34.4833H135.656C134.905 38.7701 133.341 47.911 126.271 47.911C120.39 47.911 115.009 40.6613 115.009 31.0791C115.009 21.4969 120.202 14.9407 125.896 14.5624C135.406 14.5624 135.031 27.0445 135.281 30.3857H118.951V31.0791C118.951 40.0309 121.454 46.5871 126.271 46.5871ZM108.552 34.6724C108.552 29.1879 107.239 21.1817 97.2905 21.1817H94.3499V46.398H97.2905C106.425 46.398 108.552 40.4722 108.552 34.6724ZM84.7773 47.4067V46.7763C87.7179 46.6502 90.5959 47.0284 90.5959 43.9394V7.69098C90.5334 4.03461 88.1559 4.03461 84.8399 3.97157V3.34116L105.612 3.4042C106.613 3.27812 107.426 2.33251 107.614 0H107.927L110.555 13.932H110.054C109.554 10.5909 107.364 4.66502 105.549 4.66502C97.7285 4.53894 102.796 4.66502 94.9756 4.66502C94.7253 4.66502 94.6002 4.72806 94.4751 4.85414C94.3499 5.04326 94.3499 5.23239 94.3499 5.48455V20.11H97.9162C108.115 20.11 112.494 26.6663 112.494 34.2942C112.494 42.4895 107.239 47.4067 97.9162 47.4067H84.7773Z" fill="white"/>
<path d="M477.829 1.8597C477.603 1.99368 476.367 3.17031 476.053 3.32176C475.85 3.43243 475.618 3.55475 475.369 3.69455C474.777 4.02074 474.098 4.39353 473.506 4.65565C472.81 4.99349 471.94 5.33716 471.105 5.66918L470.664 5.84392C468.778 6.54873 466.678 7.172 464.235 7.75449C460.435 8.65735 454.633 9.89804 448.153 10.1951C446.603 10.2767 445.031 10.3116 443.366 10.3466C441.869 10.3815 440.314 10.4165 438.736 10.4864C436.218 10.597 432.401 10.8009 428.403 11.3776C424.098 12.0125 420.936 12.8163 418.151 13.9871C416.341 14.7677 414.908 15.6589 413.788 16.7015C413.545 16.9054 413.336 17.15 413.133 17.383C413.057 17.4704 412.982 17.5578 412.883 17.6684C412.599 18.0529 412.367 18.3791 412.158 18.7519L412.059 18.9499C411.903 19.2586 411.735 19.5848 411.642 19.9285C411.502 20.3362 411.369 20.744 411.323 21.2216C411.276 21.6643 411.259 22.2585 411.543 22.8934C411.822 23.5399 412.408 23.9884 412.866 24.1865C413.405 24.4253 413.899 24.5243 414.293 24.6059C414.531 24.6525 414.74 24.6991 414.926 24.7632C415.001 24.7865 415.076 24.8214 415.105 24.833C415.111 24.8971 415.123 25.002 415.129 25.1126C415.14 25.2233 415.146 25.3398 415.158 25.4272C415.175 25.6136 415.181 25.8058 415.181 25.998C415.181 26.1145 415.181 26.2368 415.187 26.33L415.175 26.598C415.169 26.8135 415.158 27.029 415.14 27.2446C415.03 28.427 414.746 29.5279 414.305 30.524C413.893 31.4559 413.353 32.2947 412.698 33.0287C412.466 33.285 412.228 33.5121 411.99 33.7276C410.563 35.312 408.381 35.976 406.049 36.0052C406.948 36.2382 407.818 36.3663 408.683 36.3663C408.723 36.3663 408.764 36.3663 408.799 36.3663C409.745 36.343 410.574 36.1857 411.328 35.877C412.146 35.5334 412.941 34.98 413.765 34.1762C414.125 33.815 414.456 33.4248 414.769 33.0112L415.088 33.1976C415.477 33.4539 415.993 33.815 416.556 34.3218C417.287 35.0033 418.093 36.011 419.051 37.4439C419.12 37.5604 419.167 37.6478 419.167 37.6478C419.532 38.3177 419.898 38.9992 420.246 39.7331C420.606 40.4554 420.948 41.2185 421.319 41.9873C421.69 42.7562 422.073 43.56 422.509 44.3581C422.509 44.3581 422.677 44.6551 422.851 44.958C423.031 45.2609 423.205 45.558 423.205 45.558C423.454 45.9599 423.698 46.3443 424.011 46.7521C424.011 46.7521 424.121 46.8861 424.232 47.0259C424.348 47.1598 424.458 47.2938 424.458 47.2938C424.609 47.4744 424.794 47.6433 424.974 47.8122C425.148 47.987 425.334 48.1268 425.525 48.2607C425.711 48.4005 425.903 48.5345 426.106 48.6277C426.494 48.849 426.912 49.0005 427.318 49.0762C427.527 49.1053 427.724 49.1345 427.927 49.1403C428.13 49.1403 428.334 49.117 428.525 49.0879C428.92 49.0121 429.291 48.8956 429.639 48.686C429.819 48.5869 429.981 48.4821 430.138 48.3539C430.3 48.22 430.451 48.0685 430.602 47.9054L430.852 47.6258L430.666 47.3287C430.556 47.1482 430.451 46.9909 430.347 46.8395C430.248 46.6822 430.15 46.5307 430.045 46.3676C429.842 46.0822 429.575 45.657 429.395 45.3832C429.041 44.8066 427.237 42.1854 427.075 41.9932C426.918 41.8009 426.755 41.6087 426.755 41.6087C426.755 41.6087 426.593 41.4048 426.431 41.201C426.268 40.9855 426.106 40.7699 426.106 40.7699C425.212 39.5991 424.301 38.2419 423.228 36.9022C422.131 35.5858 420.826 34.2635 419.225 33.4539C420.785 34.3684 422.015 35.7431 423.066 37.1003C424.087 38.4808 424.945 39.8845 425.804 41.1252C425.804 41.1252 425.961 41.3524 426.123 41.5796C426.28 41.7951 426.442 42.0106 426.442 42.0106C426.442 42.0106 426.645 42.4242 426.802 42.6281C427.353 43.461 428.264 45.0163 429.082 46.0123C429.244 46.3152 429.424 46.6065 429.604 46.921C429.714 47.1249 429.83 47.2996 429.941 47.5035C429.761 47.6316 429.569 47.7656 429.372 47.8413C429.215 47.9054 429.059 47.9695 428.891 48.0219C428.728 48.0627 428.56 48.0918 428.392 48.1093C428.217 48.1384 428.049 48.1268 427.875 48.1151C427.701 48.0976 427.521 48.086 427.353 48.0336C427.005 47.9462 426.663 47.8122 426.326 47.62C426.158 47.5268 426.001 47.4161 425.839 47.2938C425.676 47.1773 425.525 47.0492 425.38 46.9094C425.23 46.7696 425.096 46.6414 424.957 46.4783C424.957 46.4783 424.852 46.3502 424.742 46.2279C424.644 46.0997 424.539 45.9657 424.539 45.9657C424.29 45.6512 424.04 45.2667 423.808 44.8998C423.808 44.8998 423.64 44.6144 423.466 44.3348C423.303 44.0493 423.135 43.7698 423.135 43.7698C423.135 43.7698 422.996 43.5193 422.81 43.1873C422.996 43.4203 423.182 43.6358 423.367 43.828C423.878 44.4163 424.377 44.8124 424.777 45.1036L425.183 45.3599C425.299 45.4357 425.38 45.4648 425.398 45.4706C425.433 45.4823 425.467 45.4881 425.502 45.4881C425.595 45.4881 425.688 45.4473 425.746 45.3774C425.827 45.2784 425.833 45.1444 425.763 45.0396L425.264 44.3056C425.021 43.9328 424.719 43.461 424.388 42.8669C424.052 42.2844 423.675 41.5796 423.28 40.8398C422.758 39.8613 422.172 38.7545 421.528 37.6653C420.861 36.5818 420.217 35.7081 419.573 34.98C418.859 34.1878 418.076 33.5354 417.316 33.1044C416.73 32.7665 416.103 32.5277 415.39 32.3704C415.326 32.3588 415.268 32.353 415.21 32.3413C415.413 32.021 417.803 30.1978 423.1 33.5587C423.402 33.8092 423.692 34.0888 423.692 34.0888C424.464 34.8227 425.218 35.6033 425.943 36.4479C426.68 37.3158 427.399 38.1895 428.113 39.0632C428.838 39.9544 429.564 40.8748 430.353 41.7543C430.353 41.7543 430.654 42.0805 430.95 42.4125C431.258 42.7329 431.565 43.0591 431.565 43.0591C431.994 43.4843 432.395 43.8862 432.905 44.294C432.905 44.294 433.074 44.4338 433.254 44.5619C433.433 44.6901 433.613 44.8124 433.613 44.8124C433.851 44.9871 434.13 45.1386 434.402 45.2784C434.669 45.4357 434.942 45.5463 435.226 45.6454C435.499 45.756 435.777 45.8551 436.073 45.9017C436.642 46.0473 437.234 46.0822 437.808 46.0415C438.098 46.0065 438.388 45.9774 438.667 45.9133C438.951 45.8376 439.235 45.7502 439.508 45.657C439.781 45.5638 440.053 45.4182 440.314 45.29C440.575 45.1619 440.825 45.0046 441.074 44.8299C441.324 44.6551 441.556 44.4862 441.776 44.294C441.997 44.0843 442.211 43.8688 442.426 43.6358L442.774 43.2455L442.444 43.0591C442.246 42.9426 442.055 42.8436 441.863 42.7562C441.678 42.6572 441.492 42.5523 441.301 42.4475C441.109 42.3543 440.923 42.2553 440.744 42.1388C440.564 42.0223 440.372 41.9349 440.198 41.8242C439.473 41.3874 438.8 40.8923 438.104 40.3971C437.396 39.8845 436.653 39.3603 435.917 38.8419C435.917 38.8419 435.847 38.7953 435.737 38.7196C435.632 38.6438 435.487 38.5565 435.342 38.4458C435.058 38.2303 434.768 38.0148 434.768 38.0148C434.768 38.0148 434.483 37.7876 434.193 37.5604C433.903 37.3158 433.613 37.0711 433.613 37.0711C432.029 35.7547 430.411 34.1995 428.577 32.7724C426.697 31.3627 424.551 30.058 422.114 29.5221C424.533 30.1745 426.616 31.5608 428.45 33.0228C430.231 34.514 431.797 36.1275 433.352 37.5313C433.352 37.5313 433.636 37.7876 433.927 38.0439C434.211 38.2885 434.495 38.5332 434.495 38.5332C434.495 38.5332 434.779 38.7603 435.064 38.9875C435.348 39.2089 435.632 39.4069 435.632 39.4069C436.363 39.937 437.036 40.4787 437.698 40.9971C438.347 41.533 439.003 42.0165 439.676 42.4883C439.844 42.5989 440.013 42.7329 440.181 42.8436C440.355 42.9543 440.529 43.0649 440.697 43.1756C440.906 43.3329 441.121 43.4436 441.33 43.5834C441.074 43.7814 440.802 44.0027 440.523 44.1484C440.303 44.2707 440.076 44.393 439.839 44.5095C439.606 44.6085 439.369 44.6901 439.125 44.7658C438.881 44.8532 438.638 44.894 438.388 44.9347C438.139 44.9697 437.883 45.0104 437.634 44.9988C437.384 44.993 437.129 44.9988 436.88 44.9638C436.63 44.9289 436.386 44.8823 436.131 44.8241C435.888 44.7658 435.644 44.6726 435.406 44.5794C435.162 44.492 434.93 44.3755 434.71 44.2532C434.478 44.1309 434.269 44.0086 434.043 43.8513C434.043 43.8513 433.868 43.729 433.7 43.6067C433.532 43.4785 433.37 43.3445 433.37 43.3445C432.963 43.0358 432.534 42.6222 432.134 42.2378C432.134 42.2378 431.838 41.9349 431.536 41.6262C431.246 41.3116 430.95 41.0029 430.95 41.0029C430.95 41.0029 430.817 40.8573 430.619 40.636C430.915 40.869 431.205 41.0903 431.478 41.2709C432.401 41.9407 433.271 42.3019 433.712 42.4824L434.338 42.6805C434.512 42.7388 434.629 42.7504 434.646 42.7504C434.652 42.7504 434.658 42.7504 434.669 42.7504C434.803 42.7504 434.919 42.6688 434.959 42.5465C435.006 42.4184 434.948 42.2786 434.826 42.2087C434.814 42.2028 434.762 42.1679 434.669 42.0922L434.141 41.6903L434.019 41.5912C433.584 41.2243 432.987 40.7233 432.331 40.0476C431.664 39.372 430.863 38.4982 429.877 37.374L429.471 36.9197C428.658 36.0168 427.817 35.0848 426.906 34.1703C425.659 32.9529 424.522 32.0035 423.419 31.2754C422.207 30.4774 420.93 29.8832 419.729 29.5745C418.534 29.2541 417.519 29.2367 416.834 29.2541C416.742 29.26 416.672 29.2716 416.591 29.2774C417.066 28.759 421.4 27.3319 424.533 28.5027C426.274 29.1493 428.844 30.6288 430.126 31.4268C430.573 31.7122 431.02 32.0035 431.461 32.2889C431.838 32.5335 432.198 32.7665 432.563 32.9995C433.068 33.3898 433.573 33.7859 434.083 34.1762C435.168 35.0266 436.253 35.9003 437.419 36.7042C437.419 36.7042 437.86 37.0012 438.295 37.2925C438.748 37.5721 439.195 37.8575 439.195 37.8575C439.514 38.0322 439.821 38.2012 440.129 38.3759C440.448 38.539 440.784 38.6904 441.138 38.8477C441.138 38.8477 441.202 38.871 441.289 38.9118C441.382 38.9468 441.509 38.9875 441.637 39.0341C441.892 39.1215 442.142 39.2089 442.142 39.2089C442.478 39.3312 442.89 39.3836 443.256 39.471C443.627 39.57 444.022 39.5584 444.399 39.5991C444.776 39.6457 445.176 39.605 445.559 39.5817C445.942 39.57 446.342 39.4943 446.731 39.4186C446.928 39.3778 447.12 39.337 447.311 39.2962C447.509 39.2322 447.7 39.1681 447.891 39.104C448.657 38.871 449.417 38.4866 450.125 38.1021C450.85 37.6594 451.523 37.2226 452.156 36.675C452.475 36.4013 452.777 36.1625 453.067 35.8712C453.357 35.58 453.629 35.2829 453.902 34.9683L454.355 34.4499L453.862 34.4208C453.566 34.4033 453.281 34.3975 452.997 34.4033C452.713 34.4033 452.428 34.3742 452.138 34.3684C451.564 34.38 450.995 34.2927 450.427 34.2752C449.296 34.1529 448.193 33.9723 447.097 33.716C445.994 33.4597 444.898 33.1219 443.749 32.7491C443.749 32.7491 443.331 32.6034 442.908 32.4636C442.49 32.2947 442.066 32.12 442.066 32.12C442.066 32.12 441.962 32.0792 441.805 32.0035C441.649 31.9336 441.44 31.8346 441.225 31.7414C440.802 31.5491 440.378 31.3278 440.378 31.3278C438.075 30.1919 435.731 28.7357 433.114 27.495C430.445 26.2776 427.428 25.2816 424.237 25.3515C427.446 25.4039 430.399 26.499 433.021 27.7804C435.592 29.091 437.883 30.6288 440.169 31.852C440.169 31.852 440.274 31.9103 440.43 31.9918C440.587 32.0792 440.796 32.1957 441.01 32.2947C441.219 32.3996 441.428 32.5044 441.591 32.5801C441.747 32.6617 441.852 32.7025 441.852 32.7025C441.852 32.7025 442.27 32.883 442.687 33.0694C443.105 33.2267 443.523 33.384 443.523 33.384C444.602 33.7626 445.646 34.1179 446.679 34.415C447.706 34.7179 448.744 34.9625 449.8 35.1082C450.322 35.2188 450.856 35.2363 451.378 35.3237C451.697 35.3703 452.022 35.3761 452.336 35.4227C452.005 35.7081 451.651 36.0459 451.28 36.2964C450.7 36.7042 450.085 37.1352 449.435 37.4323C448.791 37.7876 448.124 38.0031 447.445 38.2186C447.108 38.2885 446.766 38.3643 446.424 38.4342C446.081 38.5041 445.751 38.5099 445.402 38.5332C445.06 38.5739 444.729 38.5448 444.393 38.5157C444.056 38.4982 443.72 38.4691 443.412 38.3875C443.093 38.3118 442.78 38.2769 442.461 38.1604C442.461 38.1604 442.217 38.073 441.974 37.9915C441.724 37.9099 441.486 37.8109 441.486 37.8109C441.202 37.6886 440.894 37.5546 440.587 37.409C440.285 37.2459 439.984 37.0828 439.688 36.9255C439.688 36.9255 439.253 36.6576 438.812 36.3954C438.719 36.3372 438.62 36.2789 438.533 36.2207C438.568 36.2323 438.609 36.2498 438.643 36.2615C439.224 36.4828 439.775 36.611 440.268 36.7275L440.407 36.7566C440.552 36.7799 440.686 36.7974 440.819 36.8207C441.167 36.8789 441.504 36.9313 441.782 36.9313C442.037 36.9488 442.258 36.9546 442.438 36.9546C442.821 36.9546 443.047 36.9255 443.059 36.9255C443.209 36.908 443.32 36.7857 443.325 36.6459C443.331 36.5061 443.227 36.378 443.082 36.3488C443.082 36.3488 442.676 36.2615 441.991 36.0285C441.788 35.9761 441.568 35.8829 441.306 35.778C441.144 35.7139 440.976 35.644 440.819 35.5858L440.477 35.4227C440.1 35.2479 439.711 35.0674 439.299 34.8344C438.255 34.2694 437.054 33.5063 435.609 32.4928C435.197 32.2132 434.779 31.9219 434.35 31.6249C433.34 30.9259 432.302 30.2094 431.2 29.5163C429.355 28.3862 427.713 27.5649 426.175 27.0057C424.487 26.3941 422.741 26.0563 421.133 26.033C419.55 25.9864 418.238 26.2951 417.438 26.4873C417.293 26.5339 418.041 24.3962 421.58 23.7613C423.222 23.4642 425.189 23.9011 427.196 24.2855C428.136 24.4661 429.076 24.6874 429.999 24.9262C430.614 25.1243 431.234 25.3282 431.844 25.5495C433.346 26.0912 434.826 26.7028 436.328 27.297C437.82 27.8911 439.311 28.5085 440.865 29.0328C440.865 29.0328 441.451 29.2192 442.037 29.4114C442.623 29.5978 443.227 29.7609 443.227 29.7609C443.627 29.8774 444.033 29.9706 444.445 30.0638C444.851 30.1628 445.275 30.2502 445.745 30.3143C445.745 30.3143 446.058 30.355 446.377 30.4016C446.696 30.4366 447.021 30.4599 447.021 30.4599C447.462 30.489 447.938 30.5123 448.414 30.4948C448.895 30.4832 449.348 30.4715 449.835 30.4016C450.317 30.3317 450.781 30.3026 451.268 30.1686C451.755 30.0463 452.225 29.959 452.707 29.79C453.189 29.6211 453.664 29.458 454.134 29.26C454.61 29.0386 455.074 28.8114 455.532 28.5843C455.991 28.3338 456.443 28.0484 456.878 27.7746C457.319 27.5183 457.743 27.1688 458.155 26.8659C458.567 26.5572 458.961 26.2427 459.344 25.8815C459.727 25.532 460.087 25.1942 460.423 24.8564C460.76 24.4894 461.079 24.1166 461.392 23.738L461.909 23.1031L461.265 23.237C460.882 23.3186 460.51 23.4059 460.145 23.4991C459.774 23.5632 459.408 23.6389 459.037 23.7147C458.671 23.8079 458.3 23.8603 457.934 23.9127C457.569 23.9593 457.198 24.0583 456.832 24.0758C455.364 24.2797 453.914 24.303 452.434 24.268C450.955 24.2331 449.441 24.0991 447.886 23.9535C447.886 23.9535 447.741 23.9418 447.532 23.9244C447.317 23.9127 447.033 23.8778 446.749 23.837C446.464 23.7962 446.174 23.7613 445.959 23.7322C445.745 23.6972 445.6 23.6739 445.6 23.6739C445.6 23.6739 445.025 23.5749 444.451 23.4759C443.877 23.3594 443.296 23.2428 443.296 23.2428C440.181 22.5905 436.99 21.6818 433.584 21.0178C430.144 20.377 426.448 19.9634 422.717 20.5925C426.483 20.0741 430.138 20.5984 433.544 21.309C436.909 22.0546 440.059 23.0448 443.157 23.7846C443.157 23.7846 443.732 23.9127 444.306 24.0467C444.88 24.1574 445.449 24.2739 445.449 24.2739C445.449 24.2739 445.588 24.3088 445.803 24.3379C446.017 24.3729 446.302 24.4137 446.586 24.4603C446.87 24.5127 447.155 24.5418 447.363 24.5651C447.578 24.5884 447.717 24.6059 447.717 24.6059C449.179 24.769 450.601 24.9321 451.993 25.0311C453.38 25.1185 454.755 25.1068 456.124 25.0311C456.467 25.002 456.809 24.9787 457.151 24.9554C457.493 24.9029 457.836 24.8622 458.172 24.8214C458.596 24.7923 459.008 24.7107 459.42 24.6466C459.222 24.8389 459.019 25.0311 458.81 25.2291C458.602 25.4214 458.381 25.5845 458.161 25.765C457.807 26.0388 457.447 26.33 457.076 26.5922C456.704 26.8368 456.316 27.0814 455.921 27.3203C455.527 27.5707 455.126 27.7455 454.714 27.9552C454.511 28.0542 454.302 28.1591 454.094 28.2464L453.473 28.4852C452.632 28.8173 451.796 29.0328 450.949 29.2075C450.531 29.2833 450.114 29.3415 449.69 29.3881C449.278 29.4172 448.86 29.4464 448.46 29.4464C448.048 29.458 447.677 29.4289 447.259 29.4056C447.259 29.4056 446.94 29.3881 446.627 29.3415C446.319 29.2949 446.006 29.2541 446.006 29.2541C445.635 29.2075 445.234 29.1376 444.84 29.0444C444.445 28.9571 444.033 28.8755 443.656 28.7648C443.656 28.7648 443.111 28.625 442.554 28.4561C443.325 28.6017 444.062 28.7183 444.747 28.7881C445.461 28.8697 446.18 28.9105 446.917 28.9105C447.514 28.9105 448.124 28.8814 448.75 28.8289C449.725 28.7124 450.282 28.6076 450.305 28.6017C450.456 28.5726 450.56 28.4445 450.549 28.2989C450.537 28.1532 450.415 28.0367 450.264 28.0251L448.826 27.9202C447.555 27.7746 446.36 27.5649 445.17 27.2795C443.766 26.93 442.061 26.4174 440.1 25.7534C439.554 25.5728 438.997 25.3864 438.429 25.1942C437.03 24.7224 435.58 24.2331 434.089 23.7904C431.623 23.0739 429.494 22.6021 427.573 22.3516C425.38 22.0662 423.269 22.0546 421.476 22.3167C420.043 22.5089 418.662 22.8817 417.24 23.4584C417.032 23.5458 418.61 21.4138 420.762 20.7789C422.828 20.179 425.346 19.7188 428.043 19.4334C428.641 19.3693 429.256 19.3169 429.871 19.2645C431.681 19.247 433.509 19.2936 435.342 19.4159C437.216 19.5266 439.09 19.7013 440.987 19.8411C442.884 19.9809 444.793 20.1382 446.76 20.1848C446.76 20.1848 446.946 20.1848 447.218 20.1964C447.497 20.1964 447.874 20.1964 448.245 20.2023C448.988 20.2139 449.748 20.1906 449.748 20.1906C450.775 20.1673 451.755 20.1149 452.904 19.9926C452.904 19.9926 453.299 19.9402 453.693 19.8877C453.891 19.8586 454.088 19.8353 454.233 19.812C454.384 19.7829 454.482 19.7654 454.482 19.7654C455.028 19.6605 455.619 19.544 456.194 19.4043C456.786 19.2586 457.348 19.0955 457.917 18.9208C458.497 18.7286 459.072 18.5247 459.64 18.3034C460.22 18.0587 460.8 17.8024 461.363 17.5461C461.938 17.2665 462.506 16.9462 463.057 16.6433C464.177 15.9851 465.262 15.2802 466.26 14.4764C466.515 14.2784 466.765 14.0861 467.014 13.8881C467.252 13.6726 467.49 13.4629 467.728 13.2532C468.192 12.8221 468.656 12.4377 469.074 11.9775C469.503 11.529 469.898 11.098 470.269 10.6728C470.635 10.2359 470.971 9.77572 471.302 9.32138L471.841 8.56415L471.052 8.90199C470.594 9.10586 470.141 9.30973 469.689 9.5136C469.236 9.69417 468.784 9.88057 468.331 10.0728C467.89 10.2825 467.42 10.4106 466.968 10.5912C466.742 10.6786 466.515 10.766 466.289 10.8533C466.063 10.9232 465.831 10.999 465.599 11.0747C463.777 11.6805 461.932 12.1581 460.023 12.5425C458.126 12.9212 456.165 13.2124 454.175 13.5095C454.175 13.5095 453.995 13.5386 453.722 13.5852C453.45 13.6201 453.084 13.6667 452.724 13.7133C451.999 13.8124 451.268 13.8764 451.268 13.8764C451.268 13.8764 451.088 13.8939 450.816 13.923C450.543 13.9522 450.177 13.9871 449.812 14.0104C449.081 14.0628 448.344 14.1094 448.344 14.1094C444.422 14.3483 440.425 14.3657 436.311 14.6395C432.209 14.9307 427.962 15.4317 423.913 16.9403C428.026 15.5249 432.25 15.1346 436.334 14.9191C440.424 14.7327 444.393 14.8026 448.309 14.6453C448.309 14.6453 449.04 14.6046 449.771 14.5696C450.502 14.5288 451.233 14.4648 451.233 14.4648C451.233 14.4648 451.959 14.4123 452.684 14.325C453.409 14.2551 454.128 14.1444 454.128 14.1444C455.997 13.8939 457.836 13.6609 459.617 13.3406C461.404 13.026 463.15 12.6357 464.873 12.1639C465.732 11.8902 466.596 11.6572 467.432 11.3426C467.699 11.2552 467.96 11.1679 468.215 11.0863C468.476 10.9873 468.732 10.8883 468.981 10.7951C468.766 11.0339 468.546 11.2902 468.308 11.5232C468.07 11.7562 467.827 11.9892 467.571 12.2222C466.782 12.9852 465.918 13.6493 464.995 14.3366C464.537 14.6512 464.067 14.9599 463.58 15.2686C463.098 15.5831 462.605 15.8278 462.112 16.1016C461.613 16.3811 461.114 16.6083 460.609 16.8355C460.104 17.0685 459.594 17.2898 459.089 17.4646C458.584 17.6451 458.068 17.8548 457.563 17.983C457.058 18.1228 456.542 18.2801 456.055 18.3907C455.561 18.4897 455.092 18.5946 454.569 18.6878C454.569 18.6878 454.471 18.7053 454.326 18.7286C454.181 18.746 453.983 18.7752 453.792 18.7985C453.403 18.8509 453.014 18.8975 453.014 18.8975C452.092 19.0023 451.03 19.0781 450.061 19.1072C450.061 19.1072 449.876 19.1072 449.597 19.1188C449.319 19.1305 448.947 19.1363 448.582 19.1305C447.851 19.1305 447.114 19.1305 447.114 19.1305C447.114 19.1305 445.652 19.1072 444.213 19.0431C442.774 18.979 441.335 18.9091 441.335 18.9091C441.335 18.9091 440.541 18.8684 439.537 18.8218C441.376 18.7635 443.227 18.6936 444.991 18.5829C447.862 18.4024 450.409 18.0995 452.55 17.6743C454.622 17.2723 456.565 16.7598 458.016 16.2297C458.596 16.0433 459.072 15.8453 459.42 15.6996L460.116 15.4084C460.278 15.3385 460.36 15.1637 460.302 15.0006C460.243 14.8375 460.069 14.7502 459.89 14.7851L459.106 14.9657C458.776 15.0414 458.358 15.1404 457.847 15.2278C456.6 15.4899 454.83 15.7288 452.597 15.9501C450.589 16.1248 448.187 16.2297 445.246 16.2705C444.381 16.2879 443.488 16.2996 442.589 16.3054C440.674 16.3287 438.696 16.352 436.694 16.4219C433.271 16.5501 430.393 16.7947 427.898 17.185C425.038 17.6277 422.393 18.315 420.246 19.1829C418.024 20.0625 415.43 22.1128 415.123 22.8934C414.798 22.8118 411.334 20.4819 418.064 16.7132C420.228 15.5016 424.475 14.6104 428.467 14.0337C432.128 13.5153 435.702 13.2707 438.406 13.1192C439.67 13.0435 440.923 12.9911 442.153 12.9328C444.097 12.8454 445.93 12.7639 447.764 12.6183C453.815 12.1581 459.344 11.2028 464.212 9.77572C466.399 9.13498 468.633 8.32533 470.849 7.3584L471.017 7.28267C471.94 6.85745 472.81 6.46137 473.599 6.0245C474.116 5.76821 474.591 5.50026 475.044 5.23232C477.307 3.38583 478.606 1.75486 477.719 1.92378L477.829 1.8597Z" fill="white"/>
</svg>
