<svg width="20" height="20" viewBox="0 0 20 20" fill="none" xmlns="http://www.w3.org/2000/svg">
<path fill-rule="evenodd" clip-rule="evenodd" d="M14.553 1.97811C13.6012 1.87499 12.4015 1.87499 10.8711 1.875H9.12898C7.59853 1.87499 6.39886 1.87499 5.44708 1.97811C4.4758 2.08334 3.68882 2.30194 3.01688 2.79013C2.6101 3.08568 2.25236 3.44341 1.95681 3.8502C1.82208 4.03564 1.7067 4.23151 1.60825 4.43997C1.30676 5.07837 1.17228 5.81864 1.10674 6.7014C1.04168 7.57769 1.04168 8.65186 1.04169 9.9763V10.0377C1.04168 11.5682 1.04167 12.7678 1.14479 13.7196C1.25003 14.6909 1.46862 15.4779 1.95681 16.1498C2.25236 16.5566 2.6101 16.9143 3.01688 17.2099C3.68882 17.6981 4.4758 17.9167 5.44708 18.0219C6.39885 18.125 7.59849 18.125 9.1289 18.125H10.8711C12.4015 18.125 13.6012 18.125 14.553 18.0219C15.5242 17.9167 16.3112 17.6981 16.9832 17.2099C17.3899 16.9143 17.7477 16.5566 18.0432 16.1498C18.5314 15.4779 18.75 14.6909 18.8552 13.7196C18.9584 12.7678 18.9584 11.5682 18.9584 10.0378V9.97575C18.9584 8.64227 18.9584 7.56238 18.8919 6.68254C18.8249 5.79588 18.6874 5.05316 18.3789 4.41288C18.2833 4.21445 18.1721 4.02753 18.0432 3.8502C17.7477 3.44341 17.3899 3.08568 16.9832 2.79013C16.3112 2.30194 15.5242 2.08334 14.553 1.97811ZM3.75161 3.8014C4.17495 3.49383 4.7168 3.31454 5.58172 3.22083C6.45835 3.12586 7.59038 3.125 9.16669 3.125H10.8334C12.4097 3.125 13.5417 3.12586 14.4183 3.22083C15.2832 3.31454 15.8251 3.49383 16.2484 3.8014C16.549 4.01974 16.8133 4.28401 17.0316 4.58449L15.4506 6.1655C14.0493 7.56689 13.0417 8.57253 12.1727 9.23556C11.3181 9.88758 10.6714 10.1491 10 10.1491C9.32867 10.1491 8.6819 9.88758 7.82731 9.23556C6.95831 8.57252 5.95079 7.56689 4.54941 6.1655L2.9684 4.5845C3.18679 4.28401 3.45109 4.01974 3.75161 3.8014ZM17.5311 5.85281C17.5814 6.11967 17.6188 6.42409 17.6454 6.7767C17.7079 7.60411 17.7084 8.63735 17.7084 10C17.7084 11.5763 17.7075 12.7083 17.6125 13.585C17.5188 14.4499 17.3395 14.9917 17.032 15.4151C16.8135 15.7157 16.5491 15.9802 16.2484 16.1986C15.8251 16.5062 15.2832 16.6855 14.4183 16.7792C13.5417 16.8741 12.4097 16.875 10.8334 16.875H9.16669C7.59038 16.875 6.45835 16.8741 5.58172 16.7792C4.7168 16.6855 4.17495 16.5062 3.75161 16.1986C3.45095 15.9802 3.18653 15.7157 2.96809 15.4151C2.66051 14.9917 2.48123 14.4499 2.38752 13.585C2.29255 12.7083 2.29169 11.5763 2.29169 10C2.29169 8.64704 2.29208 7.6187 2.35331 6.79395C2.38003 6.43404 2.41778 6.12404 2.46895 5.85281L3.69933 7.08319C5.05956 8.44344 6.12554 9.50943 7.06909 10.2293C8.03486 10.9662 8.94548 11.3991 10 11.3991C11.0546 11.3991 11.9652 10.9662 12.931 10.2293C13.8745 9.50943 14.9405 8.44345 16.3007 7.08321L17.5311 5.85281Z" fill="#D9D9D9"/>
</svg>
