<svg width="675" height="76" viewBox="0 0 675 76" fill="none" xmlns="http://www.w3.org/2000/svg">
<path d="M3.88 37.9601C0.879996 38.5601 -3.57628e-06 38.4001 0.0799966 37.1601C0.0799966 36.8401 0.439997 36.3601 0.959997 35.9601C1.68 35.4801 2.36 35.2801 5.04 34.9601C6.8 34.7201 8.32 34.4401 8.44 34.4001C8.52 34.3601 8.4 32.9201 8.16 31.2801C7.44 26.5601 7.2 22.4001 7.44 18.1601C7.76 11.3601 8.92 8.36006 11.68 7.12006C17.28 4.60006 21.6 11.5601 22.4 24.4401C22.68 29.2801 22.6 30.8001 22.04 31.4001C21.08 32.3601 18.8 32.5201 18.28 31.6401C18.2 31.5201 18.08 29.7201 18 27.6801C17.8 22.5601 17.48 20.0401 16.56 16.3201C15.8 13.1601 14.04 9.60006 13.44 10.0001C13.28 10.0401 12.96 10.6801 12.72 11.2801C11.16 15.2001 11 22.8401 12.28 31.4801L12.68 34.1601L21.56 33.7201C24.24 33.6001 26.72 33.6001 27.08 33.6801C28.28 34.0001 28.12 35.3201 26.8 36.0401C26.16 36.3601 25.12 36.4401 21.72 36.5601C14 36.8801 13.44 36.9201 13.44 37.2801C13.36 38.1201 15.16 44.6401 17.28 51.6001C19.72 59.4001 20.08 60.9601 19.68 62.0001C19.2 63.2001 17.4 64.0801 16.68 63.5201C16.44 63.3601 16.08 62.3601 15.88 61.2801C15.64 60.2001 14.6 56.4801 13.52 53.1201C11.72 47.2001 10.6 43.2001 9.6 39.1201L9.16 37.2801L7.4 37.4401C6.4 37.5601 4.84 37.7601 3.88 37.9601ZM50.8441 41.8001L47.6841 41.6401L48.5641 42.6001C56.4041 50.4801 65.1641 56.0801 70.5641 56.6401C71.9641 56.8001 72.0841 56.7601 73.0841 56.0001C73.9641 55.3201 74.3241 55.2401 75.1641 55.2801C77.2441 55.4401 76.5641 57.0801 73.8841 58.3201C72.0441 59.1601 69.7241 59.4001 67.4841 58.8401C60.7641 57.2401 53.6841 52.5601 44.4041 43.6001L43.5241 42.7601L43.9641 43.5601C44.3641 44.2801 44.3641 44.3601 43.8441 44.9601C43.3241 45.6001 43.3241 45.7601 44.3241 50.6401C45.4441 56.1201 45.4041 56.6401 44.0841 57.4001C43.2041 57.9201 41.7641 57.9201 41.4041 57.4801C41.1241 57.0801 39.4041 48.6401 38.2041 41.8001C37.8041 39.3201 37.3641 37.7601 36.9241 37.0801C36.0441 35.6801 35.9641 35.0001 36.5241 34.2001C36.9241 33.6401 36.9241 33.2001 36.6841 30.0401C36.1641 24.1201 36.1641 16.8401 36.6841 15.7201C37.0041 15.0001 38.1241 14.4401 39.2841 14.3601C40.8841 14.3601 41.2441 14.8801 41.5641 17.6801C41.9641 20.9601 41.9241 21.9201 41.3241 22.3201C41.0841 22.4801 40.8041 22.9201 40.7641 23.2001C40.5641 24.1201 41.1241 32.4001 41.3641 32.1601C41.4041 32.1601 41.9641 30.3201 42.6041 28.1601C45.0841 19.9601 47.5241 14.1201 49.4841 11.7601C51.7241 9.08006 54.9641 8.28006 57.6041 9.76006C60.2441 11.2001 62.8441 16.6801 64.2041 23.4401C64.9641 27.4001 65.1241 30.3201 64.6841 33.2401C64.2441 36.6401 63.6041 37.9201 61.6041 39.4801C59.2841 41.3201 55.9641 42.0401 50.8441 41.8001ZM48.2041 24.4001C47.1641 27.5601 44.6041 36.4401 44.3641 37.6001C44.2441 38.3201 48.6841 39.1201 53.4841 39.1601C56.2441 39.1601 57.0041 39.1201 57.9241 38.7201C59.4041 38.0801 60.0841 37.0001 60.5241 34.7201C61.2041 31.2001 60.7241 26.0401 59.2441 20.9201C57.8041 15.8401 55.5641 11.7601 54.3641 12.0001C52.8841 12.2801 50.6841 16.6801 48.2041 24.4001ZM78.3891 18.5201C80.3091 12.6401 85.0691 10.2401 90.1491 12.6801C91.7491 13.4401 95.1891 16.9601 96.6691 19.3601C101.389 26.9601 103.389 39.9201 101.269 49.4001C100.269 53.8401 97.4291 57.8801 94.3891 59.0001C92.3891 59.7601 89.9491 59.6801 88.2291 58.9201C83.5091 56.7201 79.7491 48.7201 77.4691 35.9201C77.1091 33.8801 76.7491 32.0401 76.7091 31.7201C76.6291 31.3201 76.2691 31.0801 75.5491 30.8401C74.0691 30.4001 73.9091 29.9201 73.9091 25.9601C73.9091 20.6801 74.4691 19.4801 76.9891 19.4801C78.0291 19.4001 78.1491 19.3601 78.3891 18.5201ZM93.8691 56.2001C94.8291 55.6001 95.9091 53.9601 96.5891 52.1601C98.8291 46.1601 98.5091 34.7601 95.9091 26.8401C93.8691 20.5601 89.5891 14.9201 86.6291 14.5201C85.7891 14.4001 85.5091 14.5201 84.7091 15.2001C82.6691 16.9601 81.2691 21.3201 81.5491 25.0801C81.8691 30.2801 84.7891 37.5601 88.6691 42.9201C90.2691 45.2001 90.4291 45.5601 90.1891 46.0801C89.9091 46.8001 88.9891 47.2401 87.9091 47.2401C87.1091 47.2401 85.7091 45.8401 84.3491 43.6401C83.8291 42.7601 83.3491 42.2001 83.3091 42.3601C83.1091 42.8801 85.0291 48.4401 86.1891 50.7601C87.3891 53.1601 89.1891 55.4401 90.5491 56.2401C91.5491 56.8401 92.9091 56.8401 93.8691 56.2001ZM135.2 5.12005C135.48 5.36006 136 6.16006 136.36 6.92006C136.76 7.72006 138.36 10.8801 140 13.9201C145.28 24.0001 147.84 31.0401 149.8 40.8001C150.88 46.4001 151.28 50.6801 151.04 54.0401C150.92 55.8001 150.68 57.2001 150.44 57.7601C149.92 58.8801 148.48 60.2401 147.36 60.6401C146.24 61.0401 144.24 61.0001 143.16 60.6001C138.28 58.7201 128.84 45.0801 121.6 29.4401C120.68 27.4401 119.88 25.8801 119.84 25.9201C119.52 26.2801 121.24 37.9201 123.92 50.2001C125.32 56.5201 125.32 56.7201 124.96 57.3601C124.32 58.6001 121.96 59.0401 121.24 58.0801C121.04 57.7601 120.48 55.5601 119.96 53.1201C119.16 49.1601 117.28 40.4001 115.64 32.6801C115.24 30.7601 115.12 30.4801 114.6 30.4801C113.36 30.4801 113.08 29.8801 112.52 25.8001C111.88 21.2001 111.84 18.8401 112.32 18.0401C112.76 17.3601 113.68 16.9201 114.68 16.9201C115.08 16.9201 115.44 16.8001 115.44 16.6801C115.48 16.1201 117.08 15.6001 118.24 15.7201C119.8 15.9601 120.2 16.5201 123.48 23.7201C130.08 38.3201 136.76 49.4401 142.36 55.2801C143.88 56.8801 145.68 58.2401 146.24 58.2401C146.28 58.2401 146.52 57.8401 146.72 57.3201C148.28 53.6001 146 38.7601 142.24 28.0001C140.64 23.4401 139.28 20.5201 135.08 12.6801C133.2 9.20006 131.72 6.20006 131.72 6.00006C131.84 4.92005 134.12 4.36006 135.2 5.12005ZM164.159 15.8001C165.159 17.3201 165.159 17.3201 168.559 18.4401C169.679 18.7601 170.759 19.1201 171.839 19.4401C176.439 20.7201 183.439 21.9201 188.159 21.0401C190.759 20.5201 193.439 19.0001 193.999 16.2001C194.039 15.7601 194.079 15.3201 194.039 14.8801C193.919 12.4401 191.599 10.1601 189.239 9.80006C185.319 9.16006 181.799 10.2401 178.639 12.5601C177.799 13.2001 177.119 14.5201 176.999 14.6001C176.759 14.8001 176.079 14.3201 175.919 14.1601C174.199 12.5601 175.439 10.6401 176.999 9.56006C179.519 7.84006 181.799 6.84006 184.879 6.56005C191.199 6.00006 195.759 8.04006 197.159 14.6001C198.559 27.5601 178.519 24.3601 171.079 22.7201C168.559 22.0401 166.439 21.5201 166.359 21.5201C166.319 21.5201 166.399 21.7601 166.519 22.0401C166.639 22.3601 166.959 22.6001 167.159 22.6001C167.359 22.6001 167.719 22.8801 167.959 23.2001C168.559 23.9601 168.039 24.9201 166.599 25.7601L165.559 26.3201L166.239 28.6401C169.159 39.2001 170.799 46.4001 171.479 51.7601C171.759 53.7601 171.719 54.0001 171.239 54.8001C170.759 55.5601 169.359 56.5201 168.719 56.5201C168.599 56.5201 168.279 56.4001 168.039 56.1201C167.719 55.9601 167.479 54.8401 167.279 53.0401C167.119 51.5601 166.679 48.8001 166.319 46.9201C165.679 43.7201 164.999 41.1601 160.799 25.8801C159.839 22.4801 159.039 19.5201 158.999 19.3201C158.919 18.9201 153.279 16.9601 152.359 16.9601C150.599 16.9601 150.719 19.5201 152.559 20.9201C152.999 21.3201 154.679 22.2401 156.239 22.9201C157.799 23.6401 159.199 24.4801 159.319 24.6801C159.719 25.4401 159.079 26.6001 157.999 27.0401C156.359 27.6801 155.479 27.4801 152.239 25.8801C147.799 23.7201 145.919 21.6401 146.159 19.0801C146.559 14.8401 151.519 12.6801 156.879 14.4401L158.759 15.0001L160.079 14.4401C161.919 13.5201 162.839 13.8401 164.159 15.8001ZM186.667 51.2801C185.267 51.9201 183.427 52.0001 182.867 51.4001C182.027 50.5201 182.467 49.2401 184.587 46.4401L185.747 44.9201L185.267 42.4801C184.467 38.0401 184.347 36.8801 184.467 31.5601C184.547 25.4801 185.067 21.7201 186.347 17.4401C188.307 10.8801 191.147 7.92006 195.827 7.76006C198.387 7.64006 199.987 8.20006 202.027 9.84006C203.627 11.0001 205.547 13.6001 206.507 15.6801C207.707 18.3601 208.867 23.6401 208.907 26.9601C208.907 27.5201 208.947 28.1201 208.987 28.2801C209.147 29.0801 208.387 29.8401 203.067 34.0401C199.867 36.6001 195.667 40.0801 193.787 41.8001L190.307 45.0001L190.587 46.0401C191.067 47.8001 193.027 51.1601 194.707 53.0001C197.347 55.8401 200.227 56.8801 202.707 55.6401C205.027 54.5201 208.147 50.1601 209.787 45.6801C210.147 44.7601 210.947 41.8801 211.547 39.3601C212.267 36.4001 212.867 34.6001 213.187 34.2401C213.747 33.6401 214.947 33.0801 215.547 33.0801C216.107 33.0801 217.027 34.0801 216.867 34.4801C216.787 34.6801 216.267 36.6801 215.707 38.9601C213.787 46.4801 211.587 51.0801 208.027 54.9601C206.467 56.5601 203.747 58.5201 202.067 59.0801C200.427 59.6401 197.627 59.7201 196.147 59.1601C193.587 58.2001 190.787 55.5201 188.867 52.2801L187.907 50.6401L186.667 51.2801ZM195.587 10.6001C193.507 10.5601 190.907 15.1601 189.427 21.4401C188.627 24.9201 188.187 34.8401 188.707 38.2401C188.867 39.5601 189.107 40.8001 189.147 40.9601C189.227 41.2001 190.067 40.6401 191.547 39.3201C192.827 38.2001 195.787 35.7601 198.107 33.9601C203.987 29.3601 204.747 28.6401 204.467 28.0801C204.347 27.8401 204.107 26.4401 203.947 25.0401C203.547 21.7201 202.507 17.9601 201.427 15.9201C199.827 13.0401 197.227 10.7201 195.587 10.6001ZM244.28 5.12005C244.56 5.36006 245.08 6.16006 245.44 6.92006C245.84 7.72006 247.44 10.8801 249.08 13.9201C254.36 24.0001 256.92 31.0401 258.88 40.8001C259.96 46.4001 260.36 50.6801 260.12 54.0401C260 55.8001 259.76 57.2001 259.52 57.7601C259 58.8801 257.56 60.2401 256.44 60.6401C255.32 61.0401 253.32 61.0001 252.24 60.6001C247.36 58.7201 237.92 45.0801 230.68 29.4401C229.76 27.4401 228.96 25.8801 228.92 25.9201C228.6 26.2801 230.32 37.9201 233 50.2001C234.4 56.5201 234.4 56.7201 234.04 57.3601C233.4 58.6001 231.04 59.0401 230.32 58.0801C230.12 57.7601 229.56 55.5601 229.04 53.1201C228.24 49.1601 226.36 40.4001 224.72 32.6801C224.32 30.7601 224.2 30.4801 223.68 30.4801C222.44 30.4801 222.16 29.8801 221.6 25.8001C220.96 21.2001 220.92 18.8401 221.4 18.0401C221.84 17.3601 222.76 16.9201 223.76 16.9201C224.16 16.9201 224.52 16.8001 224.52 16.6801C224.56 16.1201 226.16 15.6001 227.32 15.7201C228.88 15.9601 229.28 16.5201 232.56 23.7201C239.16 38.3201 245.84 49.4401 251.44 55.2801C252.96 56.8801 254.76 58.2401 255.32 58.2401C255.36 58.2401 255.6 57.8401 255.8 57.3201C257.36 53.6001 255.08 38.7601 251.32 28.0001C249.72 23.4401 248.36 20.5201 244.16 12.6801C242.28 9.20006 240.8 6.20006 240.8 6.00006C240.92 4.92005 243.2 4.36006 244.28 5.12005ZM264.198 65.7601C265.478 63.3201 269.998 59.0401 274.518 55.8401C275.598 55.1201 276.478 54.3601 276.518 54.2001C276.518 54.0801 275.558 50.0801 274.358 45.3601C270.678 30.9201 269.718 26.2401 268.998 18.3601L268.678 15.0401L265.478 13.5601C263.758 12.7201 262.198 11.8801 262.078 11.6801C261.718 11.0401 262.398 10.0401 263.518 9.56006C264.198 9.28006 264.838 9.24006 265.918 9.36006C268.478 9.64006 269.238 9.92006 269.518 10.7601C269.718 11.3601 270.398 11.7601 273.918 13.5201C285.038 19.0401 289.878 21.8001 293.798 24.9601C297.918 28.2401 300.558 32.0001 301.478 35.8401C301.838 37.2401 301.838 38.0801 301.638 40.6801C301.438 43.3201 301.278 44.0001 300.558 45.8801C298.038 52.0001 293.438 57.5201 286.518 62.7201C282.078 66.0801 276.478 69.0401 272.238 70.2001C269.678 70.9601 266.478 71.0401 265.238 70.4801C263.518 69.7201 263.118 67.8401 264.198 65.7601ZM291.198 48.5601C291.638 48.5601 292.158 48.7601 292.358 48.9601C293.238 49.9201 292.358 50.7601 289.038 52.1201C285.598 53.4801 284.238 54.1601 280.318 56.4801C277.038 58.3201 275.358 59.4001 273.358 60.9601C272.758 61.4801 271.958 62.0001 271.558 62.1601C270.638 62.5601 268.558 64.8001 267.838 66.2001L267.278 67.2401L267.838 67.6801C268.558 68.2801 270.598 68.2001 273.158 67.2801C280.398 64.8401 289.598 57.7201 294.078 51.0401C297.358 46.1601 298.518 40.9201 297.318 36.4401C296.118 32.0801 292.478 28.0401 285.958 24.0001C283.318 22.3201 274.158 17.5201 273.958 17.6801C273.878 17.7601 273.998 20.0401 274.198 22.7601C274.678 29.2001 275.078 31.2801 278.318 44.3601C279.478 49.0801 280.438 52.9201 280.438 52.9601C280.438 52.9601 281.478 52.4801 282.758 51.8401C285.998 50.2801 290.278 48.5601 291.198 48.5601ZM333.142 65.7601C334.422 63.3201 338.942 59.0401 343.462 55.8401C344.542 55.1201 345.422 54.3601 345.462 54.2001C345.462 54.0801 344.502 50.0801 343.302 45.3601C339.622 30.9201 338.662 26.2401 337.942 18.3601L337.622 15.0401L334.422 13.5601C332.702 12.7201 331.142 11.8801 331.022 11.6801C330.662 11.0401 331.342 10.0401 332.462 9.56006C333.142 9.28006 333.782 9.24006 334.862 9.36006C337.422 9.64006 338.182 9.92006 338.462 10.7601C338.662 11.3601 339.342 11.7601 342.862 13.5201C353.982 19.0401 358.822 21.8001 362.742 24.9601C366.862 28.2401 369.502 32.0001 370.422 35.8401C370.782 37.2401 370.782 38.0801 370.582 40.6801C370.382 43.3201 370.222 44.0001 369.502 45.8801C366.982 52.0001 362.382 57.5201 355.462 62.7201C351.022 66.0801 345.422 69.0401 341.182 70.2001C338.622 70.9601 335.422 71.0401 334.182 70.4801C332.462 69.7201 332.062 67.8401 333.142 65.7601ZM360.142 48.5601C360.582 48.5601 361.102 48.7601 361.302 48.9601C362.182 49.9201 361.302 50.7601 357.982 52.1201C354.542 53.4801 353.182 54.1601 349.262 56.4801C345.982 58.3201 344.302 59.4001 342.302 60.9601C341.702 61.4801 340.902 62.0001 340.502 62.1601C339.582 62.5601 337.502 64.8001 336.782 66.2001L336.222 67.2401L336.782 67.6801C337.502 68.2801 339.542 68.2001 342.102 67.2801C349.342 64.8401 358.542 57.7201 363.022 51.0401C366.302 46.1601 367.462 40.9201 366.262 36.4401C365.062 32.0801 361.422 28.0401 354.902 24.0001C352.262 22.3201 343.102 17.5201 342.902 17.6801C342.822 17.7601 342.942 20.0401 343.142 22.7601C343.622 29.2001 344.022 31.2801 347.262 44.3601C348.422 49.0801 349.382 52.9201 349.382 52.9601C349.382 52.9601 350.422 52.4801 351.702 51.8401C354.942 50.2801 359.222 48.5601 360.142 48.5601ZM385.94 51.2801C384.54 51.9201 382.7 52.0001 382.14 51.4001C381.3 50.5201 381.74 49.2401 383.86 46.4401L385.02 44.9201L384.54 42.4801C383.74 38.0401 383.62 36.8801 383.74 31.5601C383.82 25.4801 384.34 21.7201 385.62 17.4401C387.58 10.8801 390.42 7.92006 395.1 7.76006C397.66 7.64006 399.26 8.20006 401.3 9.84006C402.9 11.0001 404.82 13.6001 405.78 15.6801C406.98 18.3601 408.14 23.6401 408.18 26.9601C408.18 27.5201 408.22 28.1201 408.26 28.2801C408.42 29.0801 407.66 29.8401 402.34 34.0401C399.14 36.6001 394.94 40.0801 393.06 41.8001L389.58 45.0001L389.86 46.0401C390.34 47.8001 392.3 51.1601 393.98 53.0001C396.62 55.8401 399.5 56.8801 401.98 55.6401C404.3 54.5201 407.42 50.1601 409.06 45.6801C409.42 44.7601 410.22 41.8801 410.82 39.3601C411.54 36.4001 412.14 34.6001 412.46 34.2401C413.02 33.6401 414.22 33.0801 414.82 33.0801C415.38 33.0801 416.3 34.0801 416.14 34.4801C416.06 34.6801 415.54 36.6801 414.98 38.9601C413.06 46.4801 410.86 51.0801 407.3 54.9601C405.74 56.5601 403.02 58.5201 401.34 59.0801C399.7 59.6401 396.9 59.7201 395.42 59.1601C392.86 58.2001 390.06 55.5201 388.14 52.2801L387.18 50.6401L385.94 51.2801ZM394.86 10.6001C392.78 10.5601 390.18 15.1601 388.7 21.4401C387.9 24.9201 387.46 34.8401 387.98 38.2401C388.14 39.5601 388.38 40.8001 388.42 40.9601C388.5 41.2001 389.34 40.6401 390.82 39.3201C392.1 38.2001 395.06 35.7601 397.38 33.9601C403.26 29.3601 404.02 28.6401 403.74 28.0801C403.62 27.8401 403.38 26.4401 403.22 25.0401C402.82 21.7201 401.78 17.9601 400.7 15.9201C399.1 13.0401 396.5 10.7201 394.86 10.6001ZM425.233 16.2001C425.513 16.4401 425.993 17.2001 426.353 17.9601C426.993 19.4401 426.953 19.8401 426.033 21.0801C425.593 21.6001 426.433 27.1201 427.993 34.2001C429.113 39.2001 431.113 46.5201 431.473 46.9601C431.593 47.0801 431.753 46.3601 431.833 45.2401C431.953 43.2401 432.273 40.5201 435.393 17.7201C435.913 13.8001 436.593 8.76006 436.873 6.52006C437.193 4.20005 437.553 2.08006 437.673 1.80006C438.233 0.520059 440.913 5.81741e-05 441.873 0.960055C442.313 1.44006 442.353 1.68006 442.113 2.68005C441.953 3.40005 441.673 6.32006 441.433 9.28006C441.073 14.2801 440.993 14.6801 440.473 15.2001C439.993 15.6801 439.793 16.4401 439.273 19.8001C436.673 37.6001 436.153 41.8401 435.553 48.0001C434.913 54.6001 434.793 55.0001 433.033 56.2001C431.593 57.1201 430.793 57.2801 430.113 56.7201C429.113 55.8801 424.873 41.3601 422.913 32.3201C421.593 25.9601 420.673 19.8001 420.873 18.2001C420.993 17.2001 421.153 16.9601 421.953 16.4401C422.993 15.8001 424.473 15.6801 425.233 16.2001ZM457.735 51.2801C456.335 51.9201 454.495 52.0001 453.935 51.4001C453.095 50.5201 453.535 49.2401 455.655 46.4401L456.815 44.9201L456.335 42.4801C455.535 38.0401 455.415 36.8801 455.535 31.5601C455.615 25.4801 456.135 21.7201 457.415 17.4401C459.375 10.8801 462.215 7.92006 466.895 7.76006C469.455 7.64006 471.055 8.20006 473.095 9.84006C474.695 11.0001 476.615 13.6001 477.575 15.6801C478.775 18.3601 479.935 23.6401 479.975 26.9601C479.975 27.5201 480.015 28.1201 480.055 28.2801C480.215 29.0801 479.455 29.8401 474.135 34.0401C470.935 36.6001 466.735 40.0801 464.855 41.8001L461.375 45.0001L461.655 46.0401C462.135 47.8001 464.095 51.1601 465.775 53.0001C468.415 55.8401 471.295 56.8801 473.775 55.6401C476.095 54.5201 479.215 50.1601 480.855 45.6801C481.215 44.7601 482.015 41.8801 482.615 39.3601C483.335 36.4001 483.935 34.6001 484.255 34.2401C484.815 33.6401 486.015 33.0801 486.615 33.0801C487.175 33.0801 488.095 34.0801 487.935 34.4801C487.855 34.6801 487.335 36.6801 486.775 38.9601C484.855 46.4801 482.655 51.0801 479.095 54.9601C477.535 56.5601 474.815 58.5201 473.135 59.0801C471.495 59.6401 468.695 59.7201 467.215 59.1601C464.655 58.2001 461.855 55.5201 459.935 52.2801L458.975 50.6401L457.735 51.2801ZM466.655 10.6001C464.575 10.5601 461.975 15.1601 460.495 21.4401C459.695 24.9201 459.255 34.8401 459.775 38.2401C459.935 39.5601 460.175 40.8001 460.215 40.9601C460.295 41.2001 461.135 40.6401 462.615 39.3201C463.895 38.2001 466.855 35.7601 469.175 33.9601C475.055 29.3601 475.815 28.6401 475.535 28.0801C475.415 27.8401 475.175 26.4401 475.015 25.0401C474.615 21.7201 473.575 17.9601 472.495 15.9201C470.895 13.0401 468.295 10.7201 466.655 10.6001ZM490.588 56.8001C492.868 56.6801 494.148 56.9201 499.188 58.1601C499.668 58.2801 499.708 58.2001 499.588 57.7201C499.548 57.3601 498.908 54.1601 498.228 50.5601C497.508 46.9201 496.628 42.1601 496.268 39.8801C495.868 37.6401 495.388 35.4401 495.148 35.0001C494.948 34.4801 494.788 33.6001 494.828 32.9201C494.908 31.8401 493.628 23.1601 492.028 13.3601C491.388 9.52006 491.468 8.44006 492.388 7.88006C493.188 7.36006 494.748 7.36006 495.548 7.88006C496.988 8.68006 499.068 14.6401 499.708 19.7601C500.188 23.5601 500.228 26.2401 499.748 29.5201C499.548 30.8401 499.428 32.5201 499.468 33.2801C499.548 35.1601 501.268 44.8401 502.748 51.6801C503.388 54.6401 503.828 57.3601 503.788 57.6001C503.748 57.8801 503.428 58.3201 503.068 58.6401C502.548 59.0401 502.468 59.2401 502.708 59.3201C502.908 59.4001 504.308 59.8801 505.828 60.4801C509.828 61.9201 513.228 63.5601 520.148 67.2401C523.508 69.0401 526.508 70.6001 526.828 70.7201C527.348 70.8801 527.348 70.8401 527.188 70.3201C526.868 69.2401 519.908 59.1601 517.468 55.9601C516.108 54.1601 515.148 52.6001 515.188 52.3201C515.428 51.2401 517.468 50.1201 518.628 50.4401C519.148 50.5601 528.228 63.2401 529.988 66.0401C531.708 68.8001 531.988 71.6801 530.668 72.9601C529.308 74.3201 527.228 74.6001 525.108 73.8001C524.468 73.6001 521.308 71.9601 518.068 70.2001C508.708 65.2401 503.148 62.8801 496.428 61.0401C493.628 60.2401 492.908 60.1201 489.948 60.1201C486.868 60.0801 486.628 60.0801 486.348 59.5201C485.908 58.8401 486.228 58.0801 487.348 57.4001C488.068 56.9601 488.628 56.8401 490.588 56.8001ZM516.973 18.5201C518.893 12.6401 523.653 10.2401 528.733 12.6801C530.333 13.4401 533.773 16.9601 535.253 19.3601C539.973 26.9601 541.973 39.9201 539.853 49.4001C538.853 53.8401 536.013 57.8801 532.973 59.0001C530.973 59.7601 528.533 59.6801 526.813 58.9201C522.093 56.7201 518.333 48.7201 516.053 35.9201C515.693 33.8801 515.333 32.0401 515.293 31.7201C515.213 31.3201 514.853 31.0801 514.133 30.8401C512.653 30.4001 512.493 29.9201 512.493 25.9601C512.493 20.6801 513.053 19.4801 515.573 19.4801C516.613 19.4001 516.733 19.3601 516.973 18.5201ZM532.453 56.2001C533.413 55.6001 534.493 53.9601 535.173 52.1601C537.413 46.1601 537.093 34.7601 534.493 26.8401C532.453 20.5601 528.173 14.9201 525.213 14.5201C524.373 14.4001 524.093 14.5201 523.293 15.2001C521.253 16.9601 519.853 21.3201 520.133 25.0801C520.453 30.2801 523.373 37.5601 527.253 42.9201C528.853 45.2001 529.013 45.5601 528.773 46.0801C528.493 46.8001 527.573 47.2401 526.493 47.2401C525.693 47.2401 524.293 45.8401 522.933 43.6401C522.413 42.7601 521.933 42.2001 521.893 42.3601C521.693 42.8801 523.613 48.4401 524.773 50.7601C525.973 53.1601 527.773 55.4401 529.133 56.2401C530.133 56.8401 531.493 56.8401 532.453 56.2001ZM556.584 13.0801C556.864 13.2401 557.224 14.2001 557.464 15.3201C557.864 17.1201 557.864 17.2401 557.384 17.9201C556.944 18.6401 556.904 18.8801 557.144 22.7601C557.584 30.2001 559.184 42.3601 559.784 42.5601C559.984 42.6001 560.224 41.6001 560.544 39.4001C561.504 32.7201 564.384 19.0801 565.464 16.0401C566.104 14.1201 566.624 13.4801 567.704 13.0801C568.824 12.6001 569.664 12.6001 570.544 13.0801C572.104 13.9201 573.024 16.1601 576.744 28.2801C578.304 33.4001 580.104 39.2001 580.744 41.2001C582.184 45.7601 582.384 47.0401 581.744 48.2401C581.184 49.2001 580.504 49.6401 579.024 50.0801C577.464 50.5601 575.064 50.1601 569.064 48.4401C566.384 47.7201 564.064 47.1201 563.904 47.1201C563.664 47.1201 563.544 48.0001 563.384 50.8801C563.064 57.0401 563.304 59.6001 564.704 65.5201C566.264 72.2401 566.304 72.6401 565.944 73.4401C565.504 74.4001 564.304 75.2801 563.504 75.2801C562.904 75.2801 562.704 75.1201 562.304 74.1201C561.544 72.2801 560.584 68.1201 559.944 64.2801C559.664 62.3601 558.864 58.4801 558.224 55.6001C557.544 52.7601 556.744 49.2001 556.464 47.6801L555.904 44.9601L554.784 44.5601C553.464 44.0801 552.664 43.2801 552.704 42.6001C552.744 42.0401 554.224 40.6801 554.784 40.6801C555.024 40.6801 555.104 40.5201 555.064 40.2401C553.744 34.0401 552.024 15.4001 552.664 14.0401C553.184 12.9201 555.584 12.2801 556.584 13.0801ZM569.024 17.4801C568.864 17.5601 567.424 24.0001 566.304 29.5201C565.264 34.5601 563.864 43.2801 564.064 43.5201C564.304 43.8001 576.984 47.2801 577.864 47.3201C578.224 47.3201 578.264 47.2401 578.224 46.7201C578.064 45.8001 569.984 19.4801 569.504 18.3201C569.304 17.8001 569.064 17.4001 569.024 17.4801ZM595.974 51.2801C594.574 51.9201 592.734 52.0001 592.174 51.4001C591.334 50.5201 591.774 49.2401 593.894 46.4401L595.054 44.9201L594.574 42.4801C593.774 38.0401 593.654 36.8801 593.774 31.5601C593.854 25.4801 594.374 21.7201 595.654 17.4401C597.614 10.8801 600.454 7.92006 605.134 7.76006C607.694 7.64006 609.294 8.20006 611.334 9.84006C612.934 11.0001 614.854 13.6001 615.814 15.6801C617.014 18.3601 618.174 23.6401 618.214 26.9601C618.214 27.5201 618.254 28.1201 618.294 28.2801C618.454 29.0801 617.694 29.8401 612.374 34.0401C609.174 36.6001 604.974 40.0801 603.094 41.8001L599.614 45.0001L599.894 46.0401C600.374 47.8001 602.334 51.1601 604.014 53.0001C606.654 55.8401 609.534 56.8801 612.014 55.6401C614.334 54.5201 617.454 50.1601 619.094 45.6801C619.454 44.7601 620.254 41.8801 620.854 39.3601C621.574 36.4001 622.174 34.6001 622.494 34.2401C623.054 33.6401 624.254 33.0801 624.854 33.0801C625.414 33.0801 626.334 34.0801 626.174 34.4801C626.094 34.6801 625.574 36.6801 625.014 38.9601C623.094 46.4801 620.894 51.0801 617.334 54.9601C615.774 56.5601 613.054 58.5201 611.374 59.0801C609.734 59.6401 606.934 59.7201 605.454 59.1601C602.894 58.2001 600.094 55.5201 598.174 52.2801L597.214 50.6401L595.974 51.2801ZM604.894 10.6001C602.814 10.5601 600.214 15.1601 598.734 21.4401C597.934 24.9201 597.494 34.8401 598.014 38.2401C598.174 39.5601 598.414 40.8001 598.454 40.9601C598.534 41.2001 599.374 40.6401 600.854 39.3201C602.134 38.2001 605.094 35.7601 607.414 33.9601C613.294 29.3601 614.054 28.6401 613.774 28.0801C613.654 27.8401 613.414 26.4401 613.254 25.0401C612.854 21.7201 611.814 17.9601 610.734 15.9201C609.134 13.0401 606.534 10.7201 604.894 10.6001ZM647.667 41.8001L644.507 41.6401L645.387 42.6001C653.227 50.4801 661.987 56.0801 667.387 56.6401C668.787 56.8001 668.907 56.7601 669.907 56.0001C670.787 55.3201 671.147 55.2401 671.987 55.2801C674.067 55.4401 673.387 57.0801 670.707 58.3201C668.867 59.1601 666.547 59.4001 664.307 58.8401C657.587 57.2401 650.507 52.5601 641.227 43.6001L640.347 42.7601L640.787 43.5601C641.187 44.2801 641.187 44.3601 640.667 44.9601C640.147 45.6001 640.147 45.7601 641.147 50.6401C642.267 56.1201 642.227 56.6401 640.907 57.4001C640.027 57.9201 638.587 57.9201 638.227 57.4801C637.947 57.0801 636.227 48.6401 635.027 41.8001C634.627 39.3201 634.187 37.7601 633.747 37.0801C632.867 35.6801 632.787 35.0001 633.347 34.2001C633.747 33.6401 633.747 33.2001 633.507 30.0401C632.987 24.1201 632.987 16.8401 633.507 15.7201C633.827 15.0001 634.947 14.4401 636.107 14.3601C637.707 14.3601 638.067 14.8801 638.387 17.6801C638.787 20.9601 638.747 21.9201 638.147 22.3201C637.907 22.4801 637.627 22.9201 637.587 23.2001C637.387 24.1201 637.947 32.4001 638.187 32.1601C638.227 32.1601 638.787 30.3201 639.427 28.1601C641.907 19.9601 644.347 14.1201 646.307 11.7601C648.547 9.08006 651.787 8.28006 654.427 9.76006C657.067 11.2001 659.667 16.6801 661.027 23.4401C661.787 27.4001 661.947 30.3201 661.507 33.2401C661.067 36.6401 660.427 37.9201 658.427 39.4801C656.107 41.3201 652.787 42.0401 647.667 41.8001ZM645.027 24.4001C643.987 27.5601 641.427 36.4401 641.187 37.6001C641.067 38.3201 645.507 39.1201 650.307 39.1601C653.067 39.1601 653.827 39.1201 654.747 38.7201C656.227 38.0801 656.907 37.0001 657.347 34.7201C658.027 31.2001 657.547 26.0401 656.067 20.9201C654.627 15.8401 652.387 11.7601 651.187 12.0001C649.707 12.2801 647.507 16.6801 645.027 24.4001Z" fill="#F0F0F0"/>
</svg>
