<svg width="274" height="144" viewBox="0 0 274 144" fill="none" xmlns="http://www.w3.org/2000/svg">
<path d="M51.6478 33.36C48.6478 33.96 47.7678 33.8 47.8478 32.56C47.8478 32.24 48.2078 31.76 48.7278 31.36C49.4478 30.88 50.1278 30.68 52.8078 30.36C54.5678 30.12 56.0878 29.84 56.2078 29.8C56.2878 29.76 56.1678 28.32 55.9278 26.68C55.2078 21.96 54.9678 17.8 55.2078 13.56C55.5278 6.75996 56.6878 3.75996 59.4478 2.51996C65.0478 -3.91006e-05 69.3678 6.95996 70.1678 19.84C70.4478 24.68 70.3678 26.2 69.8078 26.8C68.8478 27.76 66.5678 27.92 66.0478 27.04C65.9678 26.92 65.8478 25.12 65.7678 23.08C65.5678 17.96 65.2478 15.44 64.3278 11.72C63.5678 8.55996 61.8078 4.99996 61.2078 5.39996C61.0478 5.43996 60.7278 6.07996 60.4878 6.67996C58.9278 10.6 58.7678 18.24 60.0478 26.88L60.4478 29.56L69.3278 29.12C72.0078 29 74.4878 29 74.8478 29.08C76.0478 29.4 75.8878 30.72 74.5678 31.44C73.9278 31.76 72.8878 31.84 69.4878 31.96C61.7678 32.28 61.2078 32.32 61.2078 32.68C61.1278 33.52 62.9278 40.04 65.0478 47C67.4878 54.8 67.8478 56.36 67.4478 57.4C66.9678 58.6 65.1678 59.48 64.4478 58.92C64.2078 58.76 63.8478 57.76 63.6478 56.68C63.4078 55.6 62.3678 51.88 61.2878 48.52C59.4878 42.6 58.3678 38.6 57.3678 34.52L56.9278 32.68L55.1678 32.84C54.1678 32.96 52.6078 33.16 51.6478 33.36ZM85.4118 14.48C86.1318 18.48 86.6118 22.8 87.1718 26.88C87.2518 27.44 87.3718 28 87.4518 28.52C88.2518 33.28 89.7718 39.72 91.9718 43.88C93.0918 46.08 94.1718 48.4 95.7718 44.76C98.0118 39.72 98.4118 37.64 99.0518 32.32C99.6518 27.52 99.7718 25.72 99.6918 22.76V22.04C99.6118 18.68 99.5718 15.36 99.7318 12C99.7718 10.56 99.8518 6.39996 100.092 5.15996C100.372 3.95996 103.252 2.95996 104.132 4.11996C104.972 5.19996 104.332 20.28 104.212 22.44C103.932 26.96 104.012 29.52 104.492 34C104.972 38.44 105.572 42.08 106.412 45.4C106.812 47.04 107.092 48.56 107.052 48.8C106.972 49.4 105.212 50.76 104.532 50.72C104.212 50.72 103.772 50.52 103.572 50.28C103.172 49.36 102.572 46.44 102.332 45.24C101.812 42.76 101.332 40.68 101.292 40.64C101.252 40.56 100.852 41.32 100.332 42.32C100.212 42.6 100.052 42.84 99.9318 43.12C98.4918 45.6 96.5718 50.12 93.2918 50.32C87.7318 50.64 84.1718 33.76 83.3718 29.44C83.1318 28.24 82.9318 27.04 82.6918 25.84C81.9318 21.88 81.3318 17.84 80.6518 13.84C80.4118 12.52 79.9318 11.72 81.4918 11.12C84.0918 10.12 85.0518 12.4 85.4118 14.48ZM120.352 14.48C121.072 18.48 121.552 22.8 122.112 26.88C122.192 27.44 122.312 28 122.392 28.52C123.192 33.28 124.712 39.72 126.912 43.88C128.032 46.08 129.112 48.4 130.712 44.76C132.952 39.72 133.352 37.64 133.992 32.32C134.592 27.52 134.712 25.72 134.632 22.76V22.04C134.552 18.68 134.512 15.36 134.672 12C134.712 10.56 134.792 6.39996 135.032 5.15996C135.312 3.95996 138.192 2.95996 139.072 4.11996C139.912 5.19996 139.272 20.28 139.152 22.44C138.872 26.96 138.952 29.52 139.432 34C139.912 38.44 140.512 42.08 141.352 45.4C141.752 47.04 142.032 48.56 141.992 48.8C141.912 49.4 140.152 50.76 139.472 50.72C139.152 50.72 138.712 50.52 138.512 50.28C138.112 49.36 137.512 46.44 137.272 45.24C136.752 42.76 136.272 40.68 136.232 40.64C136.192 40.56 135.792 41.32 135.272 42.32C135.152 42.6 134.992 42.84 134.872 43.12C133.432 45.6 131.512 50.12 128.232 50.32C122.672 50.64 119.112 33.76 118.312 29.44C118.072 28.24 117.872 27.04 117.632 25.84C116.872 21.88 116.272 17.84 115.592 13.84C115.352 12.52 114.872 11.72 116.432 11.12C119.032 10.12 119.992 12.4 120.352 14.48ZM149.653 52.2C151.933 52.08 153.213 52.32 158.253 53.56C158.733 53.68 158.773 53.6 158.653 53.12C158.613 52.76 157.973 49.56 157.293 45.96C156.573 42.32 155.693 37.56 155.333 35.28C154.933 33.04 154.453 30.84 154.213 30.4C154.013 29.88 153.853 29 153.893 28.32C153.973 27.24 152.693 18.56 151.093 8.75996C150.453 4.91996 150.533 3.83996 151.453 3.27996C152.253 2.75996 153.813 2.75996 154.613 3.27996C156.053 4.07996 158.133 10.04 158.773 15.16C159.253 18.96 159.293 21.64 158.813 24.92C158.613 26.24 158.493 27.92 158.533 28.68C158.613 30.56 160.333 40.24 161.813 47.08C162.453 50.04 162.893 52.76 162.853 53C162.813 53.28 162.493 53.72 162.133 54.04C161.613 54.44 161.533 54.64 161.773 54.72C161.973 54.8 163.373 55.28 164.893 55.88C168.893 57.32 172.293 58.96 179.213 62.64C182.573 64.44 185.573 66 185.893 66.12C186.413 66.28 186.413 66.24 186.253 65.72C185.933 64.64 178.973 54.56 176.533 51.36C175.173 49.56 174.213 48 174.253 47.72C174.493 46.64 176.533 45.52 177.693 45.84C178.213 45.96 187.293 58.64 189.053 61.44C190.773 64.2 191.053 67.08 189.733 68.36C188.373 69.72 186.293 70 184.173 69.2C183.533 69 180.373 67.36 177.133 65.6C167.773 60.64 162.213 58.28 155.493 56.44C152.693 55.64 151.973 55.52 149.013 55.52C145.933 55.48 145.693 55.48 145.413 54.92C144.973 54.24 145.293 53.48 146.413 52.8C147.133 52.36 147.693 52.24 149.653 52.2ZM4.55996 68.48C4.83996 68.64 5.19996 69.6 5.43996 70.72C5.83996 72.52 5.83996 72.64 5.35996 73.32C4.91996 74.04 4.87996 74.28 5.11996 78.16C5.55996 85.6 7.15996 97.76 7.75996 97.96C7.95996 98 8.19996 97 8.51996 94.8C9.47996 88.12 12.36 74.48 13.44 71.44C14.08 69.52 14.6 68.88 15.68 68.48C16.8 68 17.64 68 18.52 68.48C20.08 69.32 21 71.56 24.72 83.68C26.28 88.8 28.08 94.6 28.72 96.6C30.16 101.16 30.36 102.44 29.72 103.64C29.16 104.6 28.48 105.04 27 105.48C25.44 105.96 23.04 105.56 17.04 103.84C14.36 103.12 12.04 102.52 11.88 102.52C11.64 102.52 11.52 103.4 11.36 106.28C11.04 112.44 11.28 115 12.68 120.92C14.24 127.64 14.28 128.04 13.92 128.84C13.48 129.8 12.28 130.68 11.48 130.68C10.88 130.68 10.68 130.52 10.28 129.52C9.51996 127.68 8.55996 123.52 7.91996 119.68C7.63996 117.76 6.83996 113.88 6.19996 111C5.51996 108.16 4.71996 104.6 4.43996 103.08L3.87996 100.36L2.75996 99.96C1.43996 99.48 0.639958 98.68 0.679958 98C0.719958 97.44 2.19996 96.08 2.75996 96.08C2.99996 96.08 3.07996 95.92 3.03996 95.64C1.71996 89.44 -4.21703e-05 70.8 0.639958 69.44C1.15996 68.32 3.55996 67.68 4.55996 68.48ZM17 72.88C16.84 72.96 15.4 79.4 14.28 84.92C13.24 89.96 11.84 98.68 12.04 98.92C12.28 99.2 24.96 102.68 25.84 102.72C26.2 102.72 26.24 102.64 26.2 102.12C26.04 101.2 17.96 74.88 17.48 73.72C17.28 73.2 17.04 72.8 17 72.88ZM55.39 97.2L52.23 97.04L53.11 98C60.95 105.88 69.71 111.48 75.11 112.04C76.51 112.2 76.63 112.16 77.63 111.4C78.51 110.72 78.87 110.64 79.71 110.68C81.79 110.84 81.11 112.48 78.43 113.72C76.59 114.56 74.27 114.8 72.03 114.24C65.31 112.64 58.23 107.96 48.95 99L48.07 98.16L48.51 98.96C48.91 99.68 48.91 99.76 48.39 100.36C47.87 101 47.87 101.16 48.87 106.04C49.99 111.52 49.95 112.04 48.63 112.8C47.75 113.32 46.31 113.32 45.95 112.88C45.67 112.48 43.95 104.04 42.75 97.2C42.35 94.72 41.91 93.16 41.47 92.48C40.59 91.08 40.51 90.4 41.07 89.6C41.47 89.04 41.47 88.6 41.23 85.44C40.71 79.52 40.71 72.24 41.23 71.12C41.55 70.4 42.67 69.84 43.83 69.76C45.43 69.76 45.79 70.28 46.11 73.08C46.51 76.36 46.47 77.32 45.87 77.72C45.63 77.88 45.35 78.32 45.31 78.6C45.11 79.52 45.67 87.8 45.91 87.56C45.95 87.56 46.51 85.72 47.15 83.56C49.63 75.36 52.07 69.52 54.03 67.16C56.27 64.48 59.51 63.68 62.15 65.16C64.79 66.6 67.39 72.08 68.75 78.84C69.51 82.8 69.67 85.72 69.23 88.64C68.79 92.04 68.15 93.32 66.15 94.88C63.83 96.72 60.51 97.44 55.39 97.2ZM52.75 79.8C51.71 82.96 49.15 91.84 48.91 93C48.79 93.72 53.23 94.52 58.03 94.56C60.79 94.56 61.55 94.52 62.47 94.12C63.95 93.48 64.63 92.4 65.07 90.12C65.75 86.6 65.27 81.44 63.79 76.32C62.35 71.24 60.11 67.16 58.91 67.4C57.43 67.68 55.23 72.08 52.75 79.8ZM82.935 73.92C84.855 68.04 89.615 65.64 94.695 68.08C96.295 68.84 99.735 72.36 101.215 74.76C105.935 82.36 107.935 95.32 105.815 104.8C104.815 109.24 101.975 113.28 98.935 114.4C96.935 115.16 94.495 115.08 92.775 114.32C88.055 112.12 84.295 104.12 82.015 91.32C81.655 89.28 81.295 87.44 81.255 87.12C81.175 86.72 80.815 86.48 80.095 86.24C78.615 85.8 78.455 85.32 78.455 81.36C78.455 76.08 79.015 74.88 81.535 74.88C82.575 74.8 82.695 74.76 82.935 73.92ZM98.415 111.6C99.375 111 100.455 109.36 101.135 107.56C103.375 101.56 103.055 90.16 100.455 82.24C98.415 75.96 94.135 70.32 91.175 69.92C90.335 69.8 90.055 69.92 89.255 70.6C87.215 72.36 85.815 76.72 86.095 80.48C86.415 85.68 89.335 92.96 93.215 98.32C94.815 100.6 94.975 100.96 94.735 101.48C94.455 102.2 93.535 102.64 92.455 102.64C91.655 102.64 90.255 101.24 88.895 99.04C88.375 98.16 87.895 97.6 87.855 97.76C87.655 98.28 89.575 103.84 90.735 106.16C91.935 108.56 93.735 110.84 95.095 111.64C96.095 112.24 97.455 112.24 98.415 111.6ZM120.786 73.68C121.426 75.16 124.106 80.64 126.746 85.92C133.266 99.04 136.626 106.64 139.306 114.4C143.866 127.52 143.786 134.32 138.906 138.72C135.386 141.84 130.426 143.36 123.066 143.52C120.866 143.56 118.706 143.56 118.266 143.52C109.466 142.4 101.506 139.12 99.2659 135.64C98.3459 134.2 98.2259 133.28 98.7059 132C99.5859 129.76 102.866 127.6 108.146 125.92C112.826 124.4 120.026 123.2 122.906 123.56C125.346 123.8 126.066 124.32 125.546 125.24C125.146 126 124.266 126.16 122.226 125.92C116.426 125.08 103.986 128.68 102.186 131.68C101.986 132.04 101.786 132.72 101.786 133.2C101.786 133.96 101.986 134.2 103.226 135.44C105.626 137.72 110.146 139.64 115.786 140.76C118.026 141.2 119.026 141.28 123.186 141.28C128.706 141.28 130.186 140.96 133.506 139.36C136.546 137.88 138.426 135.76 139.066 132.92C139.426 131.4 139.386 127.64 138.986 125.32C137.946 119.48 135.066 111.32 130.226 100.64C127.626 94.92 122.986 85.6 122.866 85.92C122.786 86.2 123.386 89.04 123.986 91.12C124.346 92.24 124.626 92.76 125.146 93.12C126.506 94.08 125.506 95.36 123.386 95.36C120.666 95.36 120.066 93.92 118.146 82.8C117.706 80.16 116.946 76.6 116.546 74.84C115.506 70.8 115.506 70.52 116.546 70.04C117.506 69.68 118.546 69.84 119.106 70.52C119.386 70.76 120.106 72.2 120.786 73.68ZM148.498 106.68C147.098 107.32 145.258 107.4 144.698 106.8C143.858 105.92 144.298 104.64 146.418 101.84L147.578 100.32L147.098 97.88C146.298 93.44 146.178 92.28 146.298 86.96C146.378 80.88 146.898 77.12 148.178 72.84C150.138 66.28 152.978 63.32 157.658 63.16C160.218 63.04 161.818 63.6 163.858 65.24C165.458 66.4 167.378 69 168.338 71.08C169.538 73.76 170.698 79.04 170.738 82.36C170.738 82.92 170.778 83.52 170.818 83.68C170.978 84.48 170.218 85.24 164.898 89.44C161.698 92 157.498 95.48 155.618 97.2L152.138 100.4L152.418 101.44C152.898 103.2 154.858 106.56 156.538 108.4C159.178 111.24 162.058 112.28 164.538 111.04C166.858 109.92 169.978 105.56 171.618 101.08C171.978 100.16 172.778 97.28 173.378 94.76C174.098 91.8 174.698 90 175.018 89.64C175.578 89.04 176.778 88.48 177.378 88.48C177.938 88.48 178.858 89.48 178.698 89.88C178.618 90.08 178.098 92.08 177.538 94.36C175.618 101.88 173.418 106.48 169.858 110.36C168.298 111.96 165.578 113.92 163.898 114.48C162.258 115.04 159.458 115.12 157.978 114.56C155.418 113.6 152.618 110.92 150.698 107.68L149.738 106.04L148.498 106.68ZM157.418 66C155.338 65.96 152.738 70.56 151.258 76.84C150.458 80.32 150.018 90.24 150.538 93.64C150.698 94.96 150.938 96.2 150.978 96.36C151.058 96.6 151.898 96.04 153.378 94.72C154.658 93.6 157.618 91.16 159.938 89.36C165.818 84.76 166.578 84.04 166.298 83.48C166.178 83.24 165.938 81.84 165.778 80.44C165.378 77.12 164.338 73.36 163.258 71.32C161.658 68.44 159.058 66.12 157.418 66ZM197.712 67.24C196.912 66.32 196.592 66.36 195.512 67.88C194.232 69.64 193.512 71.24 192.752 74.04C189.672 85.04 191.792 100.24 197.312 106.8C199.712 109.64 202.392 110.56 204.952 109.32C207.072 108.28 208.432 106.08 211.072 99.4C211.952 97.12 212.912 95.04 213.152 94.72C213.432 94.44 214.152 94.04 214.752 93.88C215.712 93.6 215.872 93.6 216.392 94.2L216.952 94.76L215.312 98.88C212.032 106.84 209.552 110.32 205.472 112.44C203.912 113.28 203.272 113.48 201.392 113.56C199.432 113.6 198.952 113.56 197.672 112.88C193.672 110.88 190.792 106.6 188.832 99.52C187.512 94.76 186.952 90.48 187.032 84.96C187.192 72.04 190.912 63.84 196.952 63.2C198.872 63 200.232 63.44 201.552 64.8C203.952 67.08 205.032 71 205.112 77.48C205.152 80.16 205.072 81.96 204.872 82.28C204.112 83.68 201.672 84.2 200.712 83.16C200.312 82.76 200.232 81.96 200.232 79C200.192 73.2 199.272 68.96 197.712 67.24ZM225.07 71.2C226.07 72.72 226.07 72.72 229.47 73.84C230.59 74.16 231.67 74.52 232.75 74.84C237.35 76.12 244.35 77.32 249.07 76.44C251.67 75.92 254.35 74.4 254.91 71.6C254.95 71.16 254.99 70.72 254.95 70.28C254.83 67.84 252.51 65.56 250.15 65.2C246.23 64.56 242.71 65.64 239.55 67.96C238.71 68.6 238.03 69.92 237.91 70C237.67 70.2 236.99 69.72 236.83 69.56C235.11 67.96 236.35 66.04 237.91 64.96C240.43 63.24 242.71 62.24 245.79 61.96C252.11 61.4 256.67 63.44 258.07 70C259.47 82.96 239.43 79.76 231.99 78.12C229.47 77.44 227.35 76.92 227.27 76.92C227.23 76.92 227.31 77.16 227.43 77.44C227.55 77.76 227.87 78 228.07 78C228.27 78 228.63 78.28 228.87 78.6C229.47 79.36 228.95 80.32 227.51 81.16L226.47 81.72L227.15 84.04C230.07 94.6 231.71 101.8 232.39 107.16C232.67 109.16 232.63 109.4 232.15 110.2C231.67 110.96 230.27 111.92 229.63 111.92C229.51 111.92 229.19 111.8 228.95 111.52C228.63 111.36 228.39 110.24 228.19 108.44C228.03 106.96 227.59 104.2 227.23 102.32C226.59 99.12 225.91 96.56 221.71 81.28C220.75 77.88 219.95 74.92 219.91 74.72C219.83 74.32 214.19 72.36 213.27 72.36C211.51 72.36 211.63 74.92 213.47 76.32C213.91 76.72 215.59 77.64 217.15 78.32C218.71 79.04 220.11 79.88 220.23 80.08C220.63 80.84 219.99 82 218.91 82.44C217.27 83.08 216.39 82.88 213.15 81.28C208.71 79.12 206.83 77.04 207.07 74.48C207.47 70.24 212.43 68.08 217.79 69.84L219.67 70.4L220.99 69.84C222.83 68.92 223.75 69.24 225.07 71.2ZM243.378 76.64C244.898 72.36 247.538 70.08 251.418 69.76C253.978 69.6 256.418 70.44 259.218 72.44L260.538 73.4L260.618 71.48C260.658 69.64 260.698 69.52 261.338 68.96C261.778 68.64 262.458 68.36 263.178 68.28C264.778 68.12 265.378 68.8 265.378 70.92C265.378 71.84 265.498 73.6 265.618 74.88C265.738 76.16 265.818 77.4 265.818 77.64C265.578 79.16 265.578 80.08 265.938 82C266.178 83.16 266.498 85.12 266.698 86.28C267.098 88.8 267.778 91.16 269.338 95.68C270.418 98.76 270.458 99 270.058 99.64C269.818 99.96 269.218 100.48 268.658 100.68C267.818 101.08 267.618 101.08 267.058 100.8C266.498 100.56 266.178 99.8 265.098 96.48C264.018 93.08 263.738 92.48 263.298 92.48C262.498 92.48 261.978 91.6 262.258 90.76C262.818 89.08 261.698 83.52 260.258 80.44C259.018 77.92 256.058 74.72 253.898 73.6C251.858 72.52 250.338 72.36 249.458 73.12C246.418 75.88 245.538 83.8 247.618 89.6C249.578 94.96 252.618 97.72 261.498 102.2C264.218 103.64 267.458 105.24 268.658 105.92C271.298 107.4 273.018 109.08 272.898 110.12C272.778 111.36 271.938 112.24 270.138 113.08C268.578 113.76 268.258 113.84 265.458 113.88C263.578 113.92 261.938 113.84 261.018 113.64C252.418 110.64 248.098 109.04 247.738 108.64C247.298 108.16 247.778 107.08 248.658 106.64C249.778 106.12 250.658 106.16 252.618 107C262.258 110.88 265.618 111.52 268.018 111.16L269.218 110.96L268.538 110.28C267.378 109.16 264.898 107.72 259.138 104.88C253.098 101.88 250.898 100.48 248.618 98.32C245.138 95 242.978 90.32 242.458 84.92C242.258 82.88 242.738 78.32 243.378 76.64Z" fill="#F0F0F0"/>
</svg>
