<svg width="430" height="71" viewBox="0 0 430 71" fill="none" xmlns="http://www.w3.org/2000/svg">
<path d="M4.56 8.72019C4.84 8.88019 5.2 9.84019 5.44 10.9602C5.84 12.7602 5.84 12.8802 5.36 13.5602C4.92 14.2802 4.88 14.5202 5.12 18.4002C5.56 25.8402 7.16 38.0002 7.76 38.2002C7.96 38.2402 8.2 37.2402 8.52 35.0402C9.48 28.3602 12.36 14.7202 13.44 11.6802C14.08 9.76019 14.6 9.12019 15.68 8.72019C16.8 8.24019 17.64 8.24019 18.52 8.72019C20.08 9.56019 21 11.8002 24.72 23.9202C26.28 29.0402 28.08 34.8402 28.72 36.8402C30.16 41.4002 30.36 42.6802 29.72 43.8802C29.16 44.8402 28.48 45.2802 27 45.7202C25.44 46.2002 23.04 45.8002 17.04 44.0802C14.36 43.3602 12.04 42.7602 11.88 42.7602C11.64 42.7602 11.52 43.6402 11.36 46.5202C11.04 52.6802 11.28 55.2402 12.68 61.1602C14.24 67.8802 14.28 68.2802 13.92 69.0802C13.48 70.0402 12.28 70.9202 11.48 70.9202C10.88 70.9202 10.68 70.7602 10.28 69.7602C9.52 67.9202 8.56 63.7602 7.92 59.9202C7.64 58.0002 6.84 54.1202 6.2 51.2402C5.52 48.4002 4.72 44.8402 4.44 43.3202L3.88 40.6002L2.76 40.2002C1.44 39.7202 0.640004 38.9202 0.680004 38.2402C0.720004 37.6802 2.2 36.3202 2.76 36.3202C3 36.3202 3.08 36.1602 3.04 35.8802C1.72 29.6802 3.60608e-06 11.0402 0.640004 9.68019C1.16 8.56019 3.56 7.92019 4.56 8.72019ZM17 13.1202C16.84 13.2002 15.4 19.6402 14.28 25.1602C13.24 30.2002 11.84 38.9202 12.04 39.1602C12.28 39.4402 24.96 42.9202 25.84 42.9602C26.2 42.9602 26.24 42.8802 26.2 42.3602C26.04 41.4402 17.96 15.1202 17.48 13.9602C17.28 13.4402 17.04 13.0402 17 13.1202ZM55.79 37.4402L52.63 37.2802L53.51 38.2402C61.35 46.1202 70.11 51.7202 75.51 52.2802C76.91 52.4402 77.03 52.4002 78.03 51.6402C78.91 50.9602 79.27 50.8802 80.11 50.9202C82.19 51.0802 81.51 52.7202 78.83 53.9602C76.99 54.8002 74.67 55.0402 72.43 54.4802C65.71 52.8802 58.63 48.2002 49.35 39.2402L48.47 38.4002L48.91 39.2002C49.31 39.9202 49.31 40.0002 48.79 40.6002C48.27 41.2402 48.27 41.4002 49.27 46.2802C50.39 51.7602 50.35 52.2802 49.03 53.0402C48.15 53.5602 46.71 53.5602 46.35 53.1202C46.07 52.7202 44.35 44.2802 43.15 37.4402C42.75 34.9602 42.31 33.4002 41.87 32.7202C40.99 31.3202 40.91 30.6402 41.47 29.8402C41.87 29.2802 41.87 28.8402 41.63 25.6802C41.11 19.7602 41.11 12.4802 41.63 11.3602C41.95 10.6402 43.07 10.0802 44.23 10.0002C45.83 10.0002 46.19 10.5202 46.51 13.3202C46.91 16.6002 46.87 17.5602 46.27 17.9602C46.03 18.1202 45.75 18.5602 45.71 18.8402C45.51 19.7602 46.07 28.0402 46.31 27.8002C46.35 27.8002 46.91 25.9602 47.55 23.8002C50.03 15.6002 52.47 9.76019 54.43 7.40019C56.67 4.72019 59.91 3.92019 62.55 5.40019C65.19 6.84019 67.79 12.3202 69.15 19.0802C69.91 23.0402 70.07 25.9602 69.63 28.8802C69.19 32.2802 68.55 33.5602 66.55 35.1202C64.23 36.9602 60.91 37.6802 55.79 37.4402ZM53.15 20.0402C52.11 23.2002 49.55 32.0802 49.31 33.2402C49.19 33.9602 53.63 34.7602 58.43 34.8002C61.19 34.8002 61.95 34.7602 62.87 34.3602C64.35 33.7202 65.03 32.6402 65.47 30.3602C66.15 26.8402 65.67 21.6802 64.19 16.5602C62.75 11.4802 60.51 7.40019 59.31 7.64019C57.83 7.92019 55.63 12.3202 53.15 20.0402ZM86.175 46.9202C84.775 47.5602 82.935 47.6402 82.375 47.0402C81.535 46.1602 81.975 44.8802 84.095 42.0802L85.255 40.5602L84.775 38.1202C83.975 33.6802 83.855 32.5202 83.975 27.2002C84.055 21.1202 84.575 17.3602 85.855 13.0802C87.815 6.52019 90.655 3.56019 95.335 3.40019C97.895 3.28019 99.495 3.84019 101.535 5.48019C103.135 6.64019 105.055 9.24019 106.015 11.3202C107.215 14.0002 108.375 19.2802 108.415 22.6002C108.415 23.1602 108.455 23.7602 108.495 23.9202C108.655 24.7202 107.895 25.4802 102.575 29.6802C99.375 32.2402 95.175 35.7202 93.295 37.4402L89.815 40.6402L90.095 41.6802C90.575 43.4402 92.535 46.8002 94.215 48.6402C96.855 51.4802 99.735 52.5202 102.215 51.2802C104.535 50.1602 107.655 45.8002 109.295 41.3202C109.655 40.4002 110.455 37.5202 111.055 35.0002C111.775 32.0402 112.375 30.2402 112.695 29.8802C113.255 29.2802 114.455 28.7202 115.055 28.7202C115.615 28.7202 116.535 29.7202 116.375 30.1202C116.295 30.3202 115.775 32.3202 115.215 34.6002C113.295 42.1202 111.095 46.7202 107.535 50.6002C105.975 52.2002 103.255 54.1602 101.575 54.7202C99.935 55.2802 97.135 55.3602 95.655 54.8002C93.095 53.8402 90.295 51.1602 88.375 47.9202L87.415 46.2802L86.175 46.9202ZM95.095 6.24019C93.015 6.20019 90.415 10.8002 88.935 17.0802C88.135 20.5602 87.695 30.4802 88.215 33.8802C88.375 35.2002 88.615 36.4402 88.655 36.6002C88.735 36.8402 89.575 36.2802 91.055 34.9602C92.335 33.8402 95.295 31.4002 97.615 29.6002C103.495 25.0002 104.255 24.2802 103.975 23.7202C103.855 23.4802 103.615 22.0802 103.455 20.6802C103.055 17.3602 102.015 13.6002 100.935 11.5602C99.335 8.68019 96.735 6.36019 95.095 6.24019ZM122.628 16.8802C124.148 12.6002 126.788 10.3202 130.668 10.0002C133.228 9.84019 135.668 10.6802 138.468 12.6802L139.788 13.6402L139.868 11.7202C139.908 9.88019 139.948 9.76019 140.588 9.20019C141.028 8.88019 141.708 8.60019 142.428 8.52019C144.028 8.36019 144.628 9.04019 144.628 11.1602C144.628 12.0802 144.748 13.8402 144.868 15.1202C144.988 16.4002 145.068 17.6402 145.068 17.8802C144.828 19.4002 144.828 20.3202 145.188 22.2402C145.428 23.4002 145.748 25.3602 145.948 26.5202C146.348 29.0402 147.028 31.4002 148.588 35.9202C149.668 39.0002 149.708 39.2402 149.308 39.8802C149.068 40.2002 148.468 40.7202 147.908 40.9202C147.068 41.3202 146.868 41.3202 146.308 41.0402C145.748 40.8002 145.428 40.0402 144.348 36.7202C143.268 33.3202 142.988 32.7202 142.548 32.7202C141.748 32.7202 141.228 31.8402 141.508 31.0002C142.068 29.3202 140.948 23.7602 139.508 20.6802C138.268 18.1602 135.308 14.9602 133.148 13.8402C131.108 12.7602 129.588 12.6002 128.708 13.3602C125.668 16.1202 124.788 24.0402 126.868 29.8402C128.828 35.2002 131.868 37.9602 140.748 42.4402C143.468 43.8802 146.708 45.4802 147.908 46.1602C150.548 47.6402 152.268 49.3202 152.148 50.3602C152.028 51.6002 151.188 52.4802 149.388 53.3202C147.828 54.0002 147.508 54.0802 144.708 54.1202C142.828 54.1602 141.188 54.0802 140.268 53.8802C131.668 50.8802 127.348 49.2802 126.988 48.8802C126.548 48.4002 127.028 47.3202 127.908 46.8802C129.028 46.3602 129.908 46.4002 131.868 47.2402C141.508 51.1202 144.868 51.7602 147.268 51.4002L148.468 51.2002L147.788 50.5202C146.628 49.4002 144.148 47.9602 138.388 45.1202C132.348 42.1202 130.148 40.7202 127.868 38.5602C124.388 35.2402 122.228 30.5602 121.708 25.1602C121.508 23.1202 121.988 18.5602 122.628 16.8802ZM164.708 46.9202C163.308 47.5602 161.468 47.6402 160.908 47.0402C160.068 46.1602 160.508 44.8802 162.628 42.0802L163.788 40.5602L163.308 38.1202C162.508 33.6802 162.388 32.5202 162.508 27.2002C162.588 21.1202 163.108 17.3602 164.388 13.0802C166.348 6.52019 169.188 3.56019 173.868 3.40019C176.428 3.28019 178.028 3.84019 180.068 5.48019C181.668 6.64019 183.588 9.24019 184.548 11.3202C185.748 14.0002 186.908 19.2802 186.948 22.6002C186.948 23.1602 186.988 23.7602 187.028 23.9202C187.188 24.7202 186.428 25.4802 181.108 29.6802C177.908 32.2402 173.708 35.7202 171.828 37.4402L168.348 40.6402L168.628 41.6802C169.108 43.4402 171.068 46.8002 172.748 48.6402C175.388 51.4802 178.268 52.5202 180.748 51.2802C183.068 50.1602 186.188 45.8002 187.828 41.3202C188.188 40.4002 188.988 37.5202 189.588 35.0002C190.308 32.0402 190.908 30.2402 191.228 29.8802C191.788 29.2802 192.988 28.7202 193.588 28.7202C194.148 28.7202 195.068 29.7202 194.908 30.1202C194.828 30.3202 194.308 32.3202 193.748 34.6002C191.828 42.1202 189.628 46.7202 186.068 50.6002C184.508 52.2002 181.788 54.1602 180.108 54.7202C178.468 55.2802 175.668 55.3602 174.188 54.8002C171.628 53.8402 168.828 51.1602 166.908 47.9202L165.948 46.2802L164.708 46.9202ZM173.628 6.24019C171.548 6.20019 168.948 10.8002 167.468 17.0802C166.668 20.5602 166.228 30.4802 166.748 33.8802C166.908 35.2002 167.148 36.4402 167.188 36.6002C167.268 36.8402 168.108 36.2802 169.588 34.9602C170.868 33.8402 173.828 31.4002 176.148 29.6002C182.028 25.0002 182.788 24.2802 182.508 23.7202C182.388 23.4802 182.148 22.0802 181.988 20.6802C181.588 17.3602 180.548 13.6002 179.468 11.5602C177.868 8.68019 175.268 6.36019 173.628 6.24019ZM222.721 0.760191C223.001 1.00019 223.521 1.80019 223.881 2.56019C224.281 3.36019 225.881 6.52019 227.521 9.56019C232.801 19.6402 235.361 26.6802 237.321 36.4402C238.401 42.0402 238.801 46.3202 238.561 49.6802C238.441 51.4402 238.201 52.8402 237.961 53.4002C237.441 54.5202 236.001 55.8802 234.881 56.2802C233.761 56.6802 231.761 56.6402 230.681 56.2402C225.801 54.3602 216.361 40.7202 209.121 25.0802C208.201 23.0802 207.401 21.5202 207.361 21.5602C207.041 21.9202 208.761 33.5602 211.441 45.8402C212.841 52.1602 212.841 52.3602 212.481 53.0002C211.841 54.2402 209.481 54.6802 208.761 53.7202C208.561 53.4002 208.001 51.2002 207.481 48.7602C206.681 44.8002 204.801 36.0402 203.161 28.3202C202.761 26.4002 202.641 26.1202 202.121 26.1202C200.881 26.1202 200.601 25.5202 200.041 21.4402C199.401 16.8402 199.361 14.4802 199.841 13.6802C200.281 13.0002 201.201 12.5602 202.201 12.5602C202.601 12.5602 202.961 12.4402 202.961 12.3202C203.001 11.7602 204.601 11.2402 205.761 11.3602C207.321 11.6002 207.721 12.1602 211.001 19.3602C217.601 33.9602 224.281 45.0802 229.881 50.9202C231.401 52.5202 233.201 53.8802 233.761 53.8802C233.801 53.8802 234.041 53.4802 234.241 52.9602C235.801 49.2402 233.521 34.4002 229.761 23.6402C228.161 19.0802 226.801 16.1602 222.601 8.32019C220.721 4.84019 219.241 1.84019 219.241 1.64019C219.361 0.560191 221.641 0.000193596 222.721 0.760191ZM252.08 11.4402C253.08 12.9602 253.08 12.9602 256.48 14.0802C257.6 14.4002 258.68 14.7602 259.76 15.0802C264.36 16.3602 271.36 17.5602 276.08 16.6802C278.68 16.1602 281.36 14.6402 281.92 11.8402C281.96 11.4002 282 10.9602 281.96 10.5202C281.84 8.08019 279.52 5.80019 277.16 5.44019C273.24 4.80019 269.72 5.88019 266.56 8.20019C265.72 8.84019 265.04 10.1602 264.92 10.2402C264.68 10.4402 264 9.96019 263.84 9.80019C262.12 8.20019 263.36 6.28019 264.92 5.20019C267.44 3.48019 269.72 2.4802 272.8 2.20019C279.12 1.64019 283.68 3.68019 285.08 10.2402C286.48 23.2002 266.44 20.0002 259 18.3602C256.48 17.6802 254.36 17.1602 254.28 17.1602C254.24 17.1602 254.32 17.4002 254.44 17.6802C254.56 18.0002 254.88 18.2402 255.08 18.2402C255.28 18.2402 255.64 18.5202 255.88 18.8402C256.48 19.6002 255.96 20.5602 254.52 21.4002L253.48 21.9602L254.16 24.2802C257.08 34.8402 258.72 42.0402 259.4 47.4002C259.68 49.4002 259.64 49.6402 259.16 50.4402C258.68 51.2002 257.28 52.1602 256.64 52.1602C256.52 52.1602 256.2 52.0402 255.96 51.7602C255.64 51.6002 255.4 50.4802 255.2 48.6802C255.04 47.2002 254.6 44.4402 254.24 42.5602C253.6 39.3602 252.92 36.8002 248.72 21.5202C247.76 18.1202 246.96 15.1602 246.92 14.9602C246.84 14.5602 241.2 12.6002 240.28 12.6002C238.52 12.6002 238.64 15.1602 240.48 16.5602C240.92 16.9602 242.6 17.8802 244.16 18.5602C245.72 19.2802 247.12 20.1202 247.24 20.3202C247.64 21.0802 247 22.2402 245.92 22.6802C244.28 23.3202 243.4 23.1202 240.16 21.5202C235.72 19.3602 233.84 17.2802 234.08 14.7202C234.48 10.4802 239.44 8.32019 244.8 10.0802L246.68 10.6402L248 10.0802C249.84 9.16019 250.76 9.48019 252.08 11.4402ZM271.347 29.0802C268.507 29.2002 268.387 29.1602 267.587 28.3602C266.827 27.5602 266.707 26.6002 267.347 26.1202C267.587 25.9602 268.867 25.7602 270.627 25.7202C272.227 25.6402 273.547 25.6002 273.627 25.5602C273.667 25.4802 273.947 23.6402 274.227 21.4402C274.907 16.2402 275.427 13.2802 276.267 9.92019C277.747 4.08019 278.827 2.60019 281.547 2.60019C283.787 2.60019 284.307 3.64019 288.707 16.6002L291.427 24.7202L299.947 24.3602L300.667 25.0402C301.467 25.7202 301.587 26.8402 300.907 27.3602C300.667 27.5602 299.107 27.6802 296.547 27.8002C293.787 27.9202 292.587 28.0402 292.667 28.2002C301.307 53.4802 303.108 58.6402 305.027 63.4802C306.107 66.1602 306.227 67.2402 305.467 68.0802C304.427 69.2802 303.067 69.5202 302.507 68.5602C301.987 67.6402 299.187 60.0402 295.947 50.7202C294.467 46.4002 292.107 39.5202 290.707 35.5202L288.147 28.2402L285.107 28.3202C283.427 28.3602 281.107 28.4802 279.907 28.6002L277.827 28.7202L277.627 32.7202C277.187 41.0802 277.667 50.8002 278.547 52.1602C278.787 52.5202 278.987 53.0402 278.947 53.3202C278.907 54.0002 277.627 55.3202 276.587 55.7602C275.787 56.0802 275.667 56.0402 275.107 55.6402C274.427 55.0802 274.147 54.0002 273.747 50.1202C273.267 45.4802 273.147 41.2002 273.267 34.9602L273.347 29.0402L271.347 29.0802ZM281.027 8.32019C280.627 8.32019 279.107 16.3202 278.507 21.4802L278.107 25.2002L282.427 25.0002C284.787 24.9202 286.787 24.8002 286.827 24.7602C286.947 24.6402 281.187 8.32019 281.027 8.32019ZM311.823 11.4402C312.823 12.9602 312.823 12.9602 316.223 14.0802C317.343 14.4002 318.423 14.7602 319.503 15.0802C324.103 16.3602 331.103 17.5602 335.823 16.6802C338.423 16.1602 341.103 14.6402 341.663 11.8402C341.703 11.4002 341.743 10.9602 341.703 10.5202C341.583 8.08019 339.263 5.80019 336.903 5.44019C332.983 4.80019 329.463 5.88019 326.303 8.20019C325.463 8.84019 324.783 10.1602 324.663 10.2402C324.423 10.4402 323.743 9.96019 323.583 9.80019C321.863 8.20019 323.103 6.28019 324.663 5.20019C327.183 3.48019 329.463 2.4802 332.543 2.20019C338.863 1.64019 343.423 3.68019 344.823 10.2402C346.223 23.2002 326.183 20.0002 318.743 18.3602C316.223 17.6802 314.103 17.1602 314.023 17.1602C313.983 17.1602 314.063 17.4002 314.183 17.6802C314.303 18.0002 314.623 18.2402 314.823 18.2402C315.023 18.2402 315.383 18.5202 315.623 18.8402C316.223 19.6002 315.703 20.5602 314.263 21.4002L313.223 21.9602L313.903 24.2802C316.823 34.8402 318.463 42.0402 319.143 47.4002C319.423 49.4002 319.383 49.6402 318.903 50.4402C318.423 51.2002 317.023 52.1602 316.383 52.1602C316.263 52.1602 315.943 52.0402 315.703 51.7602C315.383 51.6002 315.143 50.4802 314.943 48.6802C314.783 47.2002 314.343 44.4402 313.983 42.5602C313.343 39.3602 312.663 36.8002 308.463 21.5202C307.503 18.1202 306.703 15.1602 306.663 14.9602C306.583 14.5602 300.943 12.6002 300.023 12.6002C298.263 12.6002 298.383 15.1602 300.223 16.5602C300.663 16.9602 302.343 17.8802 303.903 18.5602C305.463 19.2802 306.863 20.1202 306.983 20.3202C307.383 21.0802 306.743 22.2402 305.663 22.6802C304.023 23.3202 303.143 23.1202 299.903 21.5202C295.463 19.3602 293.583 17.2802 293.823 14.7202C294.223 10.4802 299.183 8.32019 304.543 10.0802L306.423 10.6402L307.743 10.0802C309.583 9.16019 310.503 9.48019 311.823 11.4402ZM347.531 6.76019C348.171 8.12019 345.291 10.2002 341.451 11.1202C340.291 11.3602 339.291 11.7202 339.291 11.8402C339.291 11.8802 339.371 12.5602 339.531 13.2002C339.771 14.4402 339.651 15.0002 338.851 16.1202C338.571 16.5602 338.531 17.4802 338.771 21.2402C339.211 29.4002 340.331 38.0402 342.251 48.5602C342.851 51.7202 343.331 54.6002 343.291 54.8402C343.291 55.1202 343.411 55.4402 343.651 55.5202C343.851 55.5602 346.051 55.6802 348.531 55.6802C352.331 55.6802 353.091 55.7602 353.331 56.0802C353.771 56.8002 353.171 57.9602 352.091 58.6802C351.251 59.2002 350.811 59.2802 344.491 59.2802C338.611 59.2802 337.731 59.2802 337.011 59.7202C335.971 60.3602 334.731 60.3602 333.891 59.8002C332.731 59.0002 333.371 57.0802 335.051 56.0802C335.491 55.8402 336.571 55.5602 337.451 55.5202C338.491 55.3602 339.051 55.1602 339.011 55.0002C338.971 54.8002 338.371 51.4802 337.691 47.6002C335.611 35.8402 334.491 26.4802 334.131 17.0802C334.051 14.8802 333.931 12.8002 333.891 12.4802C333.851 11.9602 333.571 11.8402 330.851 11.5602C326.171 11.0402 325.771 10.9202 325.291 10.3202C324.691 9.56019 324.811 9.04019 325.931 7.88019L326.891 6.88019L329.211 7.08019C330.491 7.16019 331.811 7.48019 332.171 7.68019C333.171 8.32019 333.851 8.20019 334.131 7.36019C334.291 6.84019 334.691 6.44019 335.531 6.04019C337.211 5.20019 338.091 5.52019 338.571 7.16019C338.931 8.28019 339.011 8.32019 339.851 8.20019C341.931 7.88019 343.251 7.48019 344.571 6.76019C346.131 6.00019 347.171 6.00019 347.531 6.76019ZM356.421 14.1602C358.341 8.28019 363.101 5.88019 368.181 8.32019C369.781 9.08019 373.221 12.6002 374.701 15.0002C379.421 22.6002 381.421 35.5602 379.301 45.0402C378.301 49.4802 375.461 53.5202 372.421 54.6402C370.421 55.4002 367.981 55.3202 366.261 54.5602C361.541 52.3602 357.781 44.3602 355.501 31.5602C355.141 29.5202 354.781 27.6802 354.741 27.3602C354.661 26.9602 354.301 26.7202 353.581 26.4802C352.101 26.0402 351.941 25.5602 351.941 21.6002C351.941 16.3202 352.501 15.1202 355.021 15.1202C356.061 15.0402 356.181 15.0002 356.421 14.1602ZM371.901 51.8402C372.861 51.2402 373.941 49.6002 374.621 47.8002C376.861 41.8002 376.541 30.4002 373.941 22.4802C371.901 16.2002 367.621 10.5602 364.661 10.1602C363.821 10.0402 363.541 10.1602 362.741 10.8402C360.701 12.6002 359.301 16.9602 359.581 20.7202C359.901 25.9202 362.821 33.2002 366.701 38.5602C368.301 40.8402 368.461 41.2002 368.221 41.7202C367.941 42.4402 367.021 42.8802 365.941 42.8802C365.141 42.8802 363.741 41.4802 362.381 39.2802C361.861 38.4002 361.381 37.8402 361.341 38.0002C361.141 38.5202 363.061 44.0802 364.221 46.4002C365.421 48.8002 367.221 51.0802 368.581 51.8802C369.581 52.4802 370.941 52.4802 371.901 51.8402ZM413.632 0.760191C413.912 1.00019 414.432 1.80019 414.792 2.56019C415.192 3.36019 416.792 6.52019 418.432 9.56019C423.712 19.6402 426.272 26.6802 428.232 36.4402C429.312 42.0402 429.712 46.3202 429.472 49.6802C429.352 51.4402 429.112 52.8402 428.872 53.4002C428.352 54.5202 426.912 55.8802 425.792 56.2802C424.672 56.6802 422.672 56.6402 421.592 56.2402C416.712 54.3602 407.272 40.7202 400.032 25.0802C399.112 23.0802 398.312 21.5202 398.272 21.5602C397.952 21.9202 399.672 33.5602 402.352 45.8402C403.752 52.1602 403.752 52.3602 403.392 53.0002C402.752 54.2402 400.392 54.6802 399.672 53.7202C399.472 53.4002 398.912 51.2002 398.392 48.7602C397.592 44.8002 395.712 36.0402 394.072 28.3202C393.672 26.4002 393.552 26.1202 393.032 26.1202C391.792 26.1202 391.512 25.5202 390.952 21.4402C390.312 16.8402 390.272 14.4802 390.752 13.6802C391.192 13.0002 392.112 12.5602 393.112 12.5602C393.512 12.5602 393.872 12.4402 393.872 12.3202C393.912 11.7602 395.512 11.2402 396.672 11.3602C398.232 11.6002 398.632 12.1602 401.912 19.3602C408.512 33.9602 415.192 45.0802 420.792 50.9202C422.312 52.5202 424.112 53.8802 424.672 53.8802C424.712 53.8802 424.952 53.4802 425.152 52.9602C426.712 49.2402 424.432 34.4002 420.672 23.6402C419.072 19.0802 417.712 16.1602 413.512 8.32019C411.632 4.84019 410.152 1.84019 410.152 1.64019C410.272 0.560191 412.552 0.000193596 413.632 0.760191Z" fill="#F0F0F0"/>
</svg>
