<svg width="21" height="19" viewBox="0 0 21 19" fill="none" xmlns="http://www.w3.org/2000/svg">
<path fill-rule="evenodd" clip-rule="evenodd" d="M17.4596 17.3197L17.4603 17.3179L17.4778 17.273L20.5004 1.66252V1.61182C20.5004 1.22287 20.3601 0.883322 20.0548 0.679652C19.7876 0.501378 19.4804 0.488682 19.265 0.505429C19.0372 0.523142 18.8224 0.581391 18.6737 0.629877C18.5972 0.654822 18.5332 0.678858 18.4874 0.697037C18.4644 0.70616 18.4458 0.713902 18.4322 0.71967L18.4189 0.725408L1.56678 7.49753L1.56214 7.49923C1.55304 7.50262 1.541 7.50722 1.52646 7.51302C1.49748 7.52458 1.45803 7.54111 1.41169 7.56263C1.32069 7.60488 1.19497 7.67007 1.06746 7.75951C0.850911 7.91143 0.438559 8.27107 0.508188 8.84125C0.565861 9.31352 0.88366 9.61346 1.09791 9.76876C1.21276 9.852 1.32264 9.91203 1.4031 9.95127C1.44387 9.97115 1.47849 9.98638 1.50428 9.99714C1.51721 10.0025 1.52803 10.0068 1.53639 10.0101L1.5471 10.0142L1.55395 10.0168L4.50234 11.0336C4.49239 11.2231 4.51073 11.4163 4.55979 11.607L6.03667 17.346C6.21178 18.0265 6.81273 18.5005 7.49969 18.5C8.11546 18.4995 8.66157 18.1179 8.89358 17.5486L11.1994 15.023L15.1594 18.1332L15.2158 18.1583C15.5755 18.3192 15.9117 18.3701 16.219 18.3271C16.5259 18.2842 16.7698 18.1523 16.953 18.0022C17.1333 17.8544 17.2568 17.6877 17.3345 17.5621C17.374 17.4984 17.4034 17.4423 17.4239 17.4001C17.4341 17.3789 17.4422 17.361 17.4482 17.347L17.4558 17.329L17.4585 17.3224L17.4596 17.3197ZM6.02167 11.2122C5.98811 11.0817 6.0408 10.944 6.15196 10.8717L16.1525 4.36602C16.1525 4.36602 16.7407 4.00021 16.7197 4.36602C16.7197 4.36602 16.8247 4.43062 16.5095 4.73183C16.2105 5.01791 9.38182 11.7716 8.69086 12.455C8.65097 12.4944 8.62716 12.5397 8.61311 12.5946L7.49855 16.9512L6.02167 11.2122Z" stroke="#D9D9D9" stroke-linejoin="round"/>
</svg>
