<svg width="40" height="40" viewBox="0 0 40 40" fill="none" xmlns="http://www.w3.org/2000/svg">
<rect width="40" height="40" rx="20" fill="#D9D9D9"/>
<path d="M20 9.5C17.3277 9.5 15.1613 11.6395 15.1613 14.2788C15.1613 16.918 17.3277 19.0576 20 19.0576C22.6723 19.0576 24.8387 16.918 24.8387 14.2788C24.8387 11.6395 22.6723 9.5 20 9.5Z" fill="#F0F0F0"/>
<path d="M14.8387 21.6063C12.1664 21.6063 10 23.7458 10 26.3851V27.8994C10 28.8592 10.7044 29.6777 11.6636 29.8323C17.1846 30.7226 22.8154 30.7226 28.3364 29.8323C29.2956 29.6777 30 28.8592 30 27.8994V26.3851C30 23.7458 27.8336 21.6063 25.1613 21.6063H24.7215C24.4834 21.6063 24.2468 21.6435 24.0206 21.7164L22.9038 22.0766C21.0169 22.6851 18.9831 22.6851 17.0962 22.0766L15.9794 21.7164C15.7532 21.6435 15.5166 21.6063 15.2785 21.6063H14.8387Z" fill="#F0F0F0"/>
</svg>
